%TF.GenerationSoftware,KiCad,Pcbnew,8.0.1*%
%TF.CreationDate,2024-05-12T11:03:26+05:30*%
%TF.ProjectId,PBSEQ-D1,50425345-512d-4443-912e-6b696361645f,0.1*%
%TF.SameCoordinates,PX7bfa480PY68e7780*%
%TF.FileFunction,Other,User*%
%FSLAX46Y46*%
G04 Gerber Fmt 4.6, Leading zero omitted, Abs format (unit mm)*
G04 Created by KiCad (PCBNEW 8.0.1) date 2024-05-12 11:03:26*
%MOMM*%
%LPD*%
G01*
G04 APERTURE LIST*
%ADD10C,0.050000*%
G04 APERTURE END LIST*
%TO.C,SW1*%
D10*
X7480000Y660000D02*
X1580000Y660000D01*
X1580000Y3860000D01*
X7480000Y3860000D01*
X7480000Y660000D01*
%TO.C,R7*%
X13915000Y8715000D02*
X10955000Y8715000D01*
X10955000Y8715000D02*
X10955000Y10175000D01*
X13915000Y10175000D02*
X13915000Y8715000D01*
X10955000Y10175000D02*
X13915000Y10175000D01*
%TO.C,R6*%
X10955000Y11035000D02*
X10955000Y13995000D01*
X10955000Y13995000D02*
X12415000Y13995000D01*
X12415000Y11035000D02*
X10955000Y11035000D01*
X12415000Y13995000D02*
X12415000Y11035000D01*
%TO.C,R5*%
X3795000Y12545000D02*
X835000Y12545000D01*
X835000Y12545000D02*
X835000Y14005000D01*
X3795000Y14005000D02*
X3795000Y12545000D01*
X835000Y14005000D02*
X3795000Y14005000D01*
%TO.C,R4*%
X4335000Y14005000D02*
X7295000Y14005000D01*
X7295000Y14005000D02*
X7295000Y12545000D01*
X4335000Y12545000D02*
X4335000Y14005000D01*
X7295000Y12545000D02*
X4335000Y12545000D01*
%TO.C,R3*%
X835000Y11975000D02*
X3795000Y11975000D01*
X3795000Y11975000D02*
X3795000Y10515000D01*
X835000Y10515000D02*
X835000Y11975000D01*
X3795000Y10515000D02*
X835000Y10515000D01*
%TO.C,R2*%
X4565000Y4765000D02*
X4565000Y7725000D01*
X4565000Y7725000D02*
X6025000Y7725000D01*
X6025000Y4765000D02*
X4565000Y4765000D01*
X6025000Y7725000D02*
X6025000Y4765000D01*
%TO.C,R1*%
X4145000Y7725000D02*
X4145000Y4765000D01*
X4145000Y4765000D02*
X2685000Y4765000D01*
X2685000Y7725000D02*
X4145000Y7725000D01*
X2685000Y4765000D02*
X2685000Y7725000D01*
%TO.C,Q2*%
X4545000Y11963000D02*
X4545000Y8563000D01*
X4545000Y8563000D02*
X8385000Y8563000D01*
X8385000Y8563000D02*
X8385000Y11963000D01*
X8385000Y11963000D02*
X4545000Y11963000D01*
%TO.C,Q1*%
X8445000Y8294000D02*
X8445000Y4894000D01*
X8445000Y4894000D02*
X12285000Y4894000D01*
X12285000Y4894000D02*
X12285000Y8294000D01*
X12285000Y8294000D02*
X8445000Y8294000D01*
%TO.C,J3*%
X1222500Y18725000D02*
X1222500Y15125000D01*
X7372500Y18725000D02*
X1222500Y18725000D01*
X1222500Y15125000D02*
X7372500Y15125000D01*
X7372500Y15125000D02*
X7372500Y18725000D01*
%TO.C,J2*%
X16725000Y6325000D02*
X13125000Y6325000D01*
X16725000Y175000D02*
X16725000Y6325000D01*
X13125000Y6325000D02*
X13125000Y175000D01*
X13125000Y175000D02*
X16725000Y175000D01*
%TO.C,J1*%
X13125000Y12675000D02*
X16725000Y12675000D01*
X13125000Y18825000D02*
X13125000Y12675000D01*
X16725000Y12675000D02*
X16725000Y18825000D01*
X16725000Y18825000D02*
X13125000Y18825000D01*
%TO.C,D3*%
X13465000Y6565000D02*
X13465000Y8025000D01*
X13465000Y8025000D02*
X16425000Y8025000D01*
X16425000Y8025000D02*
X16425000Y6565000D01*
X16425000Y6565000D02*
X13465000Y6565000D01*
%TO.C,D2*%
X13465000Y10955000D02*
X13465000Y12415000D01*
X13465000Y12415000D02*
X16425000Y12415000D01*
X16425000Y12415000D02*
X16425000Y10955000D01*
X16425000Y10955000D02*
X13465000Y10955000D01*
%TO.C,D1*%
X8625000Y9980000D02*
X10525000Y9980000D01*
X8625000Y13980000D02*
X10525000Y13980000D01*
X10525000Y9980000D02*
X10525000Y13980000D01*
X8625000Y9980000D02*
X8625000Y13980000D01*
%TO.C,C3*%
X795000Y7725000D02*
X2255000Y7725000D01*
X2255000Y4765000D02*
X795000Y4765000D01*
X2255000Y7725000D02*
X2255000Y4765000D01*
X795000Y4765000D02*
X795000Y7725000D01*
%TO.C,C2*%
X825000Y8505000D02*
X825000Y9965000D01*
X3785000Y9965000D02*
X3785000Y8505000D01*
X825000Y9965000D02*
X3785000Y9965000D01*
X3785000Y8505000D02*
X825000Y8505000D01*
%TO.C,C1*%
X7985000Y4765000D02*
X6525000Y4765000D01*
X6525000Y7725000D02*
X7985000Y7725000D01*
X6525000Y4765000D02*
X6525000Y7725000D01*
X7985000Y7725000D02*
X7985000Y4765000D01*
%TD*%
M02*
