%TF.GenerationSoftware,KiCad,Pcbnew,8.0.1*%
%TF.CreationDate,2024-05-12T11:03:26+05:30*%
%TF.ProjectId,PBSEQ-D1,50425345-512d-4443-912e-6b696361645f,0.1*%
%TF.SameCoordinates,PX7bfa480PY68e7780*%
%TF.FileFunction,OtherDrawing,Comment*%
%FSLAX46Y46*%
G04 Gerber Fmt 4.6, Leading zero omitted, Abs format (unit mm)*
G04 Created by KiCad (PCBNEW 8.0.1) date 2024-05-12 11:03:26*
%MOMM*%
%LPD*%
G01*
G04 APERTURE LIST*
%ADD10C,0.150000*%
%ADD11C,0.100000*%
G04 APERTURE END LIST*
D10*
X21404819Y5452382D02*
X21404819Y4880954D01*
X21404819Y5166668D02*
X20404819Y5166668D01*
X20404819Y5166668D02*
X20547676Y5071430D01*
X20547676Y5071430D02*
X20642914Y4976192D01*
X20642914Y4976192D02*
X20690533Y4880954D01*
X21404819Y5928573D02*
X21404819Y6119049D01*
X21404819Y6119049D02*
X21357200Y6214287D01*
X21357200Y6214287D02*
X21309580Y6261906D01*
X21309580Y6261906D02*
X21166723Y6357144D01*
X21166723Y6357144D02*
X20976247Y6404763D01*
X20976247Y6404763D02*
X20595295Y6404763D01*
X20595295Y6404763D02*
X20500057Y6357144D01*
X20500057Y6357144D02*
X20452438Y6309525D01*
X20452438Y6309525D02*
X20404819Y6214287D01*
X20404819Y6214287D02*
X20404819Y6023811D01*
X20404819Y6023811D02*
X20452438Y5928573D01*
X20452438Y5928573D02*
X20500057Y5880954D01*
X20500057Y5880954D02*
X20595295Y5833335D01*
X20595295Y5833335D02*
X20833390Y5833335D01*
X20833390Y5833335D02*
X20928628Y5880954D01*
X20928628Y5880954D02*
X20976247Y5928573D01*
X20976247Y5928573D02*
X21023866Y6023811D01*
X21023866Y6023811D02*
X21023866Y6214287D01*
X21023866Y6214287D02*
X20976247Y6309525D01*
X20976247Y6309525D02*
X20928628Y6357144D01*
X20928628Y6357144D02*
X20833390Y6404763D01*
X21309580Y6833335D02*
X21357200Y6880954D01*
X21357200Y6880954D02*
X21404819Y6833335D01*
X21404819Y6833335D02*
X21357200Y6785716D01*
X21357200Y6785716D02*
X21309580Y6833335D01*
X21309580Y6833335D02*
X21404819Y6833335D01*
X20404819Y7500001D02*
X20404819Y7595239D01*
X20404819Y7595239D02*
X20452438Y7690477D01*
X20452438Y7690477D02*
X20500057Y7738096D01*
X20500057Y7738096D02*
X20595295Y7785715D01*
X20595295Y7785715D02*
X20785771Y7833334D01*
X20785771Y7833334D02*
X21023866Y7833334D01*
X21023866Y7833334D02*
X21214342Y7785715D01*
X21214342Y7785715D02*
X21309580Y7738096D01*
X21309580Y7738096D02*
X21357200Y7690477D01*
X21357200Y7690477D02*
X21404819Y7595239D01*
X21404819Y7595239D02*
X21404819Y7500001D01*
X21404819Y7500001D02*
X21357200Y7404763D01*
X21357200Y7404763D02*
X21309580Y7357144D01*
X21309580Y7357144D02*
X21214342Y7309525D01*
X21214342Y7309525D02*
X21023866Y7261906D01*
X21023866Y7261906D02*
X20785771Y7261906D01*
X20785771Y7261906D02*
X20595295Y7309525D01*
X20595295Y7309525D02*
X20500057Y7357144D01*
X20500057Y7357144D02*
X20452438Y7404763D01*
X20452438Y7404763D02*
X20404819Y7500001D01*
X20404819Y8452382D02*
X20404819Y8547620D01*
X20404819Y8547620D02*
X20452438Y8642858D01*
X20452438Y8642858D02*
X20500057Y8690477D01*
X20500057Y8690477D02*
X20595295Y8738096D01*
X20595295Y8738096D02*
X20785771Y8785715D01*
X20785771Y8785715D02*
X21023866Y8785715D01*
X21023866Y8785715D02*
X21214342Y8738096D01*
X21214342Y8738096D02*
X21309580Y8690477D01*
X21309580Y8690477D02*
X21357200Y8642858D01*
X21357200Y8642858D02*
X21404819Y8547620D01*
X21404819Y8547620D02*
X21404819Y8452382D01*
X21404819Y8452382D02*
X21357200Y8357144D01*
X21357200Y8357144D02*
X21309580Y8309525D01*
X21309580Y8309525D02*
X21214342Y8261906D01*
X21214342Y8261906D02*
X21023866Y8214287D01*
X21023866Y8214287D02*
X20785771Y8214287D01*
X20785771Y8214287D02*
X20595295Y8261906D01*
X20595295Y8261906D02*
X20500057Y8309525D01*
X20500057Y8309525D02*
X20452438Y8357144D01*
X20452438Y8357144D02*
X20404819Y8452382D01*
X20404819Y9404763D02*
X20404819Y9500001D01*
X20404819Y9500001D02*
X20452438Y9595239D01*
X20452438Y9595239D02*
X20500057Y9642858D01*
X20500057Y9642858D02*
X20595295Y9690477D01*
X20595295Y9690477D02*
X20785771Y9738096D01*
X20785771Y9738096D02*
X21023866Y9738096D01*
X21023866Y9738096D02*
X21214342Y9690477D01*
X21214342Y9690477D02*
X21309580Y9642858D01*
X21309580Y9642858D02*
X21357200Y9595239D01*
X21357200Y9595239D02*
X21404819Y9500001D01*
X21404819Y9500001D02*
X21404819Y9404763D01*
X21404819Y9404763D02*
X21357200Y9309525D01*
X21357200Y9309525D02*
X21309580Y9261906D01*
X21309580Y9261906D02*
X21214342Y9214287D01*
X21214342Y9214287D02*
X21023866Y9166668D01*
X21023866Y9166668D02*
X20785771Y9166668D01*
X20785771Y9166668D02*
X20595295Y9214287D01*
X20595295Y9214287D02*
X20500057Y9261906D01*
X20500057Y9261906D02*
X20452438Y9309525D01*
X20452438Y9309525D02*
X20404819Y9404763D01*
X20404819Y10357144D02*
X20404819Y10452382D01*
X20404819Y10452382D02*
X20452438Y10547620D01*
X20452438Y10547620D02*
X20500057Y10595239D01*
X20500057Y10595239D02*
X20595295Y10642858D01*
X20595295Y10642858D02*
X20785771Y10690477D01*
X20785771Y10690477D02*
X21023866Y10690477D01*
X21023866Y10690477D02*
X21214342Y10642858D01*
X21214342Y10642858D02*
X21309580Y10595239D01*
X21309580Y10595239D02*
X21357200Y10547620D01*
X21357200Y10547620D02*
X21404819Y10452382D01*
X21404819Y10452382D02*
X21404819Y10357144D01*
X21404819Y10357144D02*
X21357200Y10261906D01*
X21357200Y10261906D02*
X21309580Y10214287D01*
X21309580Y10214287D02*
X21214342Y10166668D01*
X21214342Y10166668D02*
X21023866Y10119049D01*
X21023866Y10119049D02*
X20785771Y10119049D01*
X20785771Y10119049D02*
X20595295Y10166668D01*
X20595295Y10166668D02*
X20500057Y10214287D01*
X20500057Y10214287D02*
X20452438Y10261906D01*
X20452438Y10261906D02*
X20404819Y10357144D01*
X21404819Y11880954D02*
X20738152Y11880954D01*
X20833390Y11880954D02*
X20785771Y11928573D01*
X20785771Y11928573D02*
X20738152Y12023811D01*
X20738152Y12023811D02*
X20738152Y12166668D01*
X20738152Y12166668D02*
X20785771Y12261906D01*
X20785771Y12261906D02*
X20881009Y12309525D01*
X20881009Y12309525D02*
X21404819Y12309525D01*
X20881009Y12309525D02*
X20785771Y12357144D01*
X20785771Y12357144D02*
X20738152Y12452382D01*
X20738152Y12452382D02*
X20738152Y12595239D01*
X20738152Y12595239D02*
X20785771Y12690478D01*
X20785771Y12690478D02*
X20881009Y12738097D01*
X20881009Y12738097D02*
X21404819Y12738097D01*
X21404819Y13214287D02*
X20738152Y13214287D01*
X20833390Y13214287D02*
X20785771Y13261906D01*
X20785771Y13261906D02*
X20738152Y13357144D01*
X20738152Y13357144D02*
X20738152Y13500001D01*
X20738152Y13500001D02*
X20785771Y13595239D01*
X20785771Y13595239D02*
X20881009Y13642858D01*
X20881009Y13642858D02*
X21404819Y13642858D01*
X20881009Y13642858D02*
X20785771Y13690477D01*
X20785771Y13690477D02*
X20738152Y13785715D01*
X20738152Y13785715D02*
X20738152Y13928572D01*
X20738152Y13928572D02*
X20785771Y14023811D01*
X20785771Y14023811D02*
X20881009Y14071430D01*
X20881009Y14071430D02*
X21404819Y14071430D01*
D11*
X19500000Y19000000D02*
X22686420Y19000000D01*
X19500000Y0D02*
X22686420Y0D01*
X22100000Y19000000D02*
X22100000Y0D01*
X22100000Y19000000D02*
X22100000Y0D01*
X22100000Y19000000D02*
X22686421Y17873496D01*
X22100000Y19000000D02*
X21513579Y17873496D01*
X22100000Y0D02*
X21513579Y1126504D01*
X22100000Y0D02*
X22686421Y1126504D01*
D10*
X5452381Y21945181D02*
X4880953Y21945181D01*
X5166667Y21945181D02*
X5166667Y22945181D01*
X5166667Y22945181D02*
X5071429Y22802324D01*
X5071429Y22802324D02*
X4976191Y22707086D01*
X4976191Y22707086D02*
X4880953Y22659467D01*
X5928572Y21945181D02*
X6119048Y21945181D01*
X6119048Y21945181D02*
X6214286Y21992800D01*
X6214286Y21992800D02*
X6261905Y22040420D01*
X6261905Y22040420D02*
X6357143Y22183277D01*
X6357143Y22183277D02*
X6404762Y22373753D01*
X6404762Y22373753D02*
X6404762Y22754705D01*
X6404762Y22754705D02*
X6357143Y22849943D01*
X6357143Y22849943D02*
X6309524Y22897562D01*
X6309524Y22897562D02*
X6214286Y22945181D01*
X6214286Y22945181D02*
X6023810Y22945181D01*
X6023810Y22945181D02*
X5928572Y22897562D01*
X5928572Y22897562D02*
X5880953Y22849943D01*
X5880953Y22849943D02*
X5833334Y22754705D01*
X5833334Y22754705D02*
X5833334Y22516610D01*
X5833334Y22516610D02*
X5880953Y22421372D01*
X5880953Y22421372D02*
X5928572Y22373753D01*
X5928572Y22373753D02*
X6023810Y22326134D01*
X6023810Y22326134D02*
X6214286Y22326134D01*
X6214286Y22326134D02*
X6309524Y22373753D01*
X6309524Y22373753D02*
X6357143Y22421372D01*
X6357143Y22421372D02*
X6404762Y22516610D01*
X6833334Y22040420D02*
X6880953Y21992800D01*
X6880953Y21992800D02*
X6833334Y21945181D01*
X6833334Y21945181D02*
X6785715Y21992800D01*
X6785715Y21992800D02*
X6833334Y22040420D01*
X6833334Y22040420D02*
X6833334Y21945181D01*
X7500000Y22945181D02*
X7595238Y22945181D01*
X7595238Y22945181D02*
X7690476Y22897562D01*
X7690476Y22897562D02*
X7738095Y22849943D01*
X7738095Y22849943D02*
X7785714Y22754705D01*
X7785714Y22754705D02*
X7833333Y22564229D01*
X7833333Y22564229D02*
X7833333Y22326134D01*
X7833333Y22326134D02*
X7785714Y22135658D01*
X7785714Y22135658D02*
X7738095Y22040420D01*
X7738095Y22040420D02*
X7690476Y21992800D01*
X7690476Y21992800D02*
X7595238Y21945181D01*
X7595238Y21945181D02*
X7500000Y21945181D01*
X7500000Y21945181D02*
X7404762Y21992800D01*
X7404762Y21992800D02*
X7357143Y22040420D01*
X7357143Y22040420D02*
X7309524Y22135658D01*
X7309524Y22135658D02*
X7261905Y22326134D01*
X7261905Y22326134D02*
X7261905Y22564229D01*
X7261905Y22564229D02*
X7309524Y22754705D01*
X7309524Y22754705D02*
X7357143Y22849943D01*
X7357143Y22849943D02*
X7404762Y22897562D01*
X7404762Y22897562D02*
X7500000Y22945181D01*
X8452381Y22945181D02*
X8547619Y22945181D01*
X8547619Y22945181D02*
X8642857Y22897562D01*
X8642857Y22897562D02*
X8690476Y22849943D01*
X8690476Y22849943D02*
X8738095Y22754705D01*
X8738095Y22754705D02*
X8785714Y22564229D01*
X8785714Y22564229D02*
X8785714Y22326134D01*
X8785714Y22326134D02*
X8738095Y22135658D01*
X8738095Y22135658D02*
X8690476Y22040420D01*
X8690476Y22040420D02*
X8642857Y21992800D01*
X8642857Y21992800D02*
X8547619Y21945181D01*
X8547619Y21945181D02*
X8452381Y21945181D01*
X8452381Y21945181D02*
X8357143Y21992800D01*
X8357143Y21992800D02*
X8309524Y22040420D01*
X8309524Y22040420D02*
X8261905Y22135658D01*
X8261905Y22135658D02*
X8214286Y22326134D01*
X8214286Y22326134D02*
X8214286Y22564229D01*
X8214286Y22564229D02*
X8261905Y22754705D01*
X8261905Y22754705D02*
X8309524Y22849943D01*
X8309524Y22849943D02*
X8357143Y22897562D01*
X8357143Y22897562D02*
X8452381Y22945181D01*
X9404762Y22945181D02*
X9500000Y22945181D01*
X9500000Y22945181D02*
X9595238Y22897562D01*
X9595238Y22897562D02*
X9642857Y22849943D01*
X9642857Y22849943D02*
X9690476Y22754705D01*
X9690476Y22754705D02*
X9738095Y22564229D01*
X9738095Y22564229D02*
X9738095Y22326134D01*
X9738095Y22326134D02*
X9690476Y22135658D01*
X9690476Y22135658D02*
X9642857Y22040420D01*
X9642857Y22040420D02*
X9595238Y21992800D01*
X9595238Y21992800D02*
X9500000Y21945181D01*
X9500000Y21945181D02*
X9404762Y21945181D01*
X9404762Y21945181D02*
X9309524Y21992800D01*
X9309524Y21992800D02*
X9261905Y22040420D01*
X9261905Y22040420D02*
X9214286Y22135658D01*
X9214286Y22135658D02*
X9166667Y22326134D01*
X9166667Y22326134D02*
X9166667Y22564229D01*
X9166667Y22564229D02*
X9214286Y22754705D01*
X9214286Y22754705D02*
X9261905Y22849943D01*
X9261905Y22849943D02*
X9309524Y22897562D01*
X9309524Y22897562D02*
X9404762Y22945181D01*
X10357143Y22945181D02*
X10452381Y22945181D01*
X10452381Y22945181D02*
X10547619Y22897562D01*
X10547619Y22897562D02*
X10595238Y22849943D01*
X10595238Y22849943D02*
X10642857Y22754705D01*
X10642857Y22754705D02*
X10690476Y22564229D01*
X10690476Y22564229D02*
X10690476Y22326134D01*
X10690476Y22326134D02*
X10642857Y22135658D01*
X10642857Y22135658D02*
X10595238Y22040420D01*
X10595238Y22040420D02*
X10547619Y21992800D01*
X10547619Y21992800D02*
X10452381Y21945181D01*
X10452381Y21945181D02*
X10357143Y21945181D01*
X10357143Y21945181D02*
X10261905Y21992800D01*
X10261905Y21992800D02*
X10214286Y22040420D01*
X10214286Y22040420D02*
X10166667Y22135658D01*
X10166667Y22135658D02*
X10119048Y22326134D01*
X10119048Y22326134D02*
X10119048Y22564229D01*
X10119048Y22564229D02*
X10166667Y22754705D01*
X10166667Y22754705D02*
X10214286Y22849943D01*
X10214286Y22849943D02*
X10261905Y22897562D01*
X10261905Y22897562D02*
X10357143Y22945181D01*
X11880953Y21945181D02*
X11880953Y22611848D01*
X11880953Y22516610D02*
X11928572Y22564229D01*
X11928572Y22564229D02*
X12023810Y22611848D01*
X12023810Y22611848D02*
X12166667Y22611848D01*
X12166667Y22611848D02*
X12261905Y22564229D01*
X12261905Y22564229D02*
X12309524Y22468991D01*
X12309524Y22468991D02*
X12309524Y21945181D01*
X12309524Y22468991D02*
X12357143Y22564229D01*
X12357143Y22564229D02*
X12452381Y22611848D01*
X12452381Y22611848D02*
X12595238Y22611848D01*
X12595238Y22611848D02*
X12690477Y22564229D01*
X12690477Y22564229D02*
X12738096Y22468991D01*
X12738096Y22468991D02*
X12738096Y21945181D01*
X13214286Y21945181D02*
X13214286Y22611848D01*
X13214286Y22516610D02*
X13261905Y22564229D01*
X13261905Y22564229D02*
X13357143Y22611848D01*
X13357143Y22611848D02*
X13500000Y22611848D01*
X13500000Y22611848D02*
X13595238Y22564229D01*
X13595238Y22564229D02*
X13642857Y22468991D01*
X13642857Y22468991D02*
X13642857Y21945181D01*
X13642857Y22468991D02*
X13690476Y22564229D01*
X13690476Y22564229D02*
X13785714Y22611848D01*
X13785714Y22611848D02*
X13928571Y22611848D01*
X13928571Y22611848D02*
X14023810Y22564229D01*
X14023810Y22564229D02*
X14071429Y22468991D01*
X14071429Y22468991D02*
X14071429Y21945181D01*
D11*
X0Y19500000D02*
X0Y21836420D01*
X19000000Y19500000D02*
X19000000Y21836420D01*
X0Y21250000D02*
X19000000Y21250000D01*
X0Y21250000D02*
X19000000Y21250000D01*
X0Y21250000D02*
X1126504Y21836421D01*
X0Y21250000D02*
X1126504Y20663579D01*
X19000000Y21250000D02*
X17873496Y20663579D01*
X19000000Y21250000D02*
X17873496Y21836421D01*
M02*
