%TF.GenerationSoftware,KiCad,Pcbnew,8.0.1*%
%TF.CreationDate,2024-05-12T11:03:26+05:30*%
%TF.ProjectId,PBSEQ-D1,50425345-512d-4443-912e-6b696361645f,0.1*%
%TF.SameCoordinates,PX7bfa480PY68e7780*%
%TF.FileFunction,Legend,Top*%
%TF.FilePolarity,Positive*%
%FSLAX46Y46*%
G04 Gerber Fmt 4.6, Leading zero omitted, Abs format (unit mm)*
G04 Created by KiCad (PCBNEW 8.0.1) date 2024-05-12 11:03:26*
%MOMM*%
%LPD*%
G01*
G04 APERTURE LIST*
%ADD10C,0.150000*%
%ADD11C,0.120000*%
%ADD12C,0.000000*%
G04 APERTURE END LIST*
D10*
X1422700Y1296667D02*
X1456033Y1396667D01*
X1456033Y1396667D02*
X1456033Y1563333D01*
X1456033Y1563333D02*
X1422700Y1630000D01*
X1422700Y1630000D02*
X1389366Y1663333D01*
X1389366Y1663333D02*
X1322700Y1696667D01*
X1322700Y1696667D02*
X1256033Y1696667D01*
X1256033Y1696667D02*
X1189366Y1663333D01*
X1189366Y1663333D02*
X1156033Y1630000D01*
X1156033Y1630000D02*
X1122700Y1563333D01*
X1122700Y1563333D02*
X1089366Y1430000D01*
X1089366Y1430000D02*
X1056033Y1363333D01*
X1056033Y1363333D02*
X1022700Y1330000D01*
X1022700Y1330000D02*
X956033Y1296667D01*
X956033Y1296667D02*
X889366Y1296667D01*
X889366Y1296667D02*
X822700Y1330000D01*
X822700Y1330000D02*
X789366Y1363333D01*
X789366Y1363333D02*
X756033Y1430000D01*
X756033Y1430000D02*
X756033Y1596667D01*
X756033Y1596667D02*
X789366Y1696667D01*
X756033Y1930000D02*
X1456033Y2096667D01*
X1456033Y2096667D02*
X956033Y2230000D01*
X956033Y2230000D02*
X1456033Y2363334D01*
X1456033Y2363334D02*
X756033Y2530000D01*
X1456033Y3163334D02*
X1456033Y2763334D01*
X1456033Y2963334D02*
X756033Y2963334D01*
X756033Y2963334D02*
X856033Y2896667D01*
X856033Y2896667D02*
X922700Y2830000D01*
X922700Y2830000D02*
X956033Y2763334D01*
X14568333Y9098967D02*
X14335000Y9432300D01*
X14168333Y9098967D02*
X14168333Y9798967D01*
X14168333Y9798967D02*
X14435000Y9798967D01*
X14435000Y9798967D02*
X14501667Y9765634D01*
X14501667Y9765634D02*
X14535000Y9732300D01*
X14535000Y9732300D02*
X14568333Y9665634D01*
X14568333Y9665634D02*
X14568333Y9565634D01*
X14568333Y9565634D02*
X14535000Y9498967D01*
X14535000Y9498967D02*
X14501667Y9465634D01*
X14501667Y9465634D02*
X14435000Y9432300D01*
X14435000Y9432300D02*
X14168333Y9432300D01*
X14801667Y9798967D02*
X15268333Y9798967D01*
X15268333Y9798967D02*
X14968333Y9098967D01*
X12071033Y14648334D02*
X11737700Y14415001D01*
X12071033Y14248334D02*
X11371033Y14248334D01*
X11371033Y14248334D02*
X11371033Y14515001D01*
X11371033Y14515001D02*
X11404366Y14581667D01*
X11404366Y14581667D02*
X11437700Y14615001D01*
X11437700Y14615001D02*
X11504366Y14648334D01*
X11504366Y14648334D02*
X11604366Y14648334D01*
X11604366Y14648334D02*
X11671033Y14615001D01*
X11671033Y14615001D02*
X11704366Y14581667D01*
X11704366Y14581667D02*
X11737700Y14515001D01*
X11737700Y14515001D02*
X11737700Y14248334D01*
X11371033Y15248334D02*
X11371033Y15115001D01*
X11371033Y15115001D02*
X11404366Y15048334D01*
X11404366Y15048334D02*
X11437700Y15015001D01*
X11437700Y15015001D02*
X11537700Y14948334D01*
X11537700Y14948334D02*
X11671033Y14915001D01*
X11671033Y14915001D02*
X11937700Y14915001D01*
X11937700Y14915001D02*
X12004366Y14948334D01*
X12004366Y14948334D02*
X12037700Y14981667D01*
X12037700Y14981667D02*
X12071033Y15048334D01*
X12071033Y15048334D02*
X12071033Y15181667D01*
X12071033Y15181667D02*
X12037700Y15248334D01*
X12037700Y15248334D02*
X12004366Y15281667D01*
X12004366Y15281667D02*
X11937700Y15315001D01*
X11937700Y15315001D02*
X11771033Y15315001D01*
X11771033Y15315001D02*
X11704366Y15281667D01*
X11704366Y15281667D02*
X11671033Y15248334D01*
X11671033Y15248334D02*
X11637700Y15181667D01*
X11637700Y15181667D02*
X11637700Y15048334D01*
X11637700Y15048334D02*
X11671033Y14981667D01*
X11671033Y14981667D02*
X11704366Y14948334D01*
X11704366Y14948334D02*
X11771033Y14915001D01*
X2248333Y14178967D02*
X2015000Y14512300D01*
X1848333Y14178967D02*
X1848333Y14878967D01*
X1848333Y14878967D02*
X2115000Y14878967D01*
X2115000Y14878967D02*
X2181667Y14845634D01*
X2181667Y14845634D02*
X2215000Y14812300D01*
X2215000Y14812300D02*
X2248333Y14745634D01*
X2248333Y14745634D02*
X2248333Y14645634D01*
X2248333Y14645634D02*
X2215000Y14578967D01*
X2215000Y14578967D02*
X2181667Y14545634D01*
X2181667Y14545634D02*
X2115000Y14512300D01*
X2115000Y14512300D02*
X1848333Y14512300D01*
X2881667Y14878967D02*
X2548333Y14878967D01*
X2548333Y14878967D02*
X2515000Y14545634D01*
X2515000Y14545634D02*
X2548333Y14578967D01*
X2548333Y14578967D02*
X2615000Y14612300D01*
X2615000Y14612300D02*
X2781667Y14612300D01*
X2781667Y14612300D02*
X2848333Y14578967D01*
X2848333Y14578967D02*
X2881667Y14545634D01*
X2881667Y14545634D02*
X2915000Y14478967D01*
X2915000Y14478967D02*
X2915000Y14312300D01*
X2915000Y14312300D02*
X2881667Y14245634D01*
X2881667Y14245634D02*
X2848333Y14212300D01*
X2848333Y14212300D02*
X2781667Y14178967D01*
X2781667Y14178967D02*
X2615000Y14178967D01*
X2615000Y14178967D02*
X2548333Y14212300D01*
X2548333Y14212300D02*
X2515000Y14245634D01*
X5648333Y14138967D02*
X5415000Y14472300D01*
X5248333Y14138967D02*
X5248333Y14838967D01*
X5248333Y14838967D02*
X5515000Y14838967D01*
X5515000Y14838967D02*
X5581667Y14805634D01*
X5581667Y14805634D02*
X5615000Y14772300D01*
X5615000Y14772300D02*
X5648333Y14705634D01*
X5648333Y14705634D02*
X5648333Y14605634D01*
X5648333Y14605634D02*
X5615000Y14538967D01*
X5615000Y14538967D02*
X5581667Y14505634D01*
X5581667Y14505634D02*
X5515000Y14472300D01*
X5515000Y14472300D02*
X5248333Y14472300D01*
X6248333Y14605634D02*
X6248333Y14138967D01*
X6081667Y14872300D02*
X5915000Y14372300D01*
X5915000Y14372300D02*
X6348333Y14372300D01*
X4541033Y11098334D02*
X4207700Y10865001D01*
X4541033Y10698334D02*
X3841033Y10698334D01*
X3841033Y10698334D02*
X3841033Y10965001D01*
X3841033Y10965001D02*
X3874366Y11031667D01*
X3874366Y11031667D02*
X3907700Y11065001D01*
X3907700Y11065001D02*
X3974366Y11098334D01*
X3974366Y11098334D02*
X4074366Y11098334D01*
X4074366Y11098334D02*
X4141033Y11065001D01*
X4141033Y11065001D02*
X4174366Y11031667D01*
X4174366Y11031667D02*
X4207700Y10965001D01*
X4207700Y10965001D02*
X4207700Y10698334D01*
X3841033Y11331667D02*
X3841033Y11765001D01*
X3841033Y11765001D02*
X4107700Y11531667D01*
X4107700Y11531667D02*
X4107700Y11631667D01*
X4107700Y11631667D02*
X4141033Y11698334D01*
X4141033Y11698334D02*
X4174366Y11731667D01*
X4174366Y11731667D02*
X4241033Y11765001D01*
X4241033Y11765001D02*
X4407700Y11765001D01*
X4407700Y11765001D02*
X4474366Y11731667D01*
X4474366Y11731667D02*
X4507700Y11698334D01*
X4507700Y11698334D02*
X4541033Y11631667D01*
X4541033Y11631667D02*
X4541033Y11431667D01*
X4541033Y11431667D02*
X4507700Y11365001D01*
X4507700Y11365001D02*
X4474366Y11331667D01*
X5238333Y4048967D02*
X5005000Y4382300D01*
X4838333Y4048967D02*
X4838333Y4748967D01*
X4838333Y4748967D02*
X5105000Y4748967D01*
X5105000Y4748967D02*
X5171667Y4715634D01*
X5171667Y4715634D02*
X5205000Y4682300D01*
X5205000Y4682300D02*
X5238333Y4615634D01*
X5238333Y4615634D02*
X5238333Y4515634D01*
X5238333Y4515634D02*
X5205000Y4448967D01*
X5205000Y4448967D02*
X5171667Y4415634D01*
X5171667Y4415634D02*
X5105000Y4382300D01*
X5105000Y4382300D02*
X4838333Y4382300D01*
X5505000Y4682300D02*
X5538333Y4715634D01*
X5538333Y4715634D02*
X5605000Y4748967D01*
X5605000Y4748967D02*
X5771667Y4748967D01*
X5771667Y4748967D02*
X5838333Y4715634D01*
X5838333Y4715634D02*
X5871667Y4682300D01*
X5871667Y4682300D02*
X5905000Y4615634D01*
X5905000Y4615634D02*
X5905000Y4548967D01*
X5905000Y4548967D02*
X5871667Y4448967D01*
X5871667Y4448967D02*
X5471667Y4048967D01*
X5471667Y4048967D02*
X5905000Y4048967D01*
X3288333Y7778967D02*
X3055000Y8112300D01*
X2888333Y7778967D02*
X2888333Y8478967D01*
X2888333Y8478967D02*
X3155000Y8478967D01*
X3155000Y8478967D02*
X3221667Y8445634D01*
X3221667Y8445634D02*
X3255000Y8412300D01*
X3255000Y8412300D02*
X3288333Y8345634D01*
X3288333Y8345634D02*
X3288333Y8245634D01*
X3288333Y8245634D02*
X3255000Y8178967D01*
X3255000Y8178967D02*
X3221667Y8145634D01*
X3221667Y8145634D02*
X3155000Y8112300D01*
X3155000Y8112300D02*
X2888333Y8112300D01*
X3955000Y7778967D02*
X3555000Y7778967D01*
X3755000Y7778967D02*
X3755000Y8478967D01*
X3755000Y8478967D02*
X3688333Y8378967D01*
X3688333Y8378967D02*
X3621667Y8312300D01*
X3621667Y8312300D02*
X3555000Y8278967D01*
X8269700Y11398334D02*
X8236366Y11331667D01*
X8236366Y11331667D02*
X8169700Y11265000D01*
X8169700Y11265000D02*
X8069700Y11165000D01*
X8069700Y11165000D02*
X8036366Y11098334D01*
X8036366Y11098334D02*
X8036366Y11031667D01*
X8203033Y11065000D02*
X8169700Y10998334D01*
X8169700Y10998334D02*
X8103033Y10931667D01*
X8103033Y10931667D02*
X7969700Y10898334D01*
X7969700Y10898334D02*
X7736366Y10898334D01*
X7736366Y10898334D02*
X7603033Y10931667D01*
X7603033Y10931667D02*
X7536366Y10998334D01*
X7536366Y10998334D02*
X7503033Y11065000D01*
X7503033Y11065000D02*
X7503033Y11198334D01*
X7503033Y11198334D02*
X7536366Y11265000D01*
X7536366Y11265000D02*
X7603033Y11331667D01*
X7603033Y11331667D02*
X7736366Y11365000D01*
X7736366Y11365000D02*
X7969700Y11365000D01*
X7969700Y11365000D02*
X8103033Y11331667D01*
X8103033Y11331667D02*
X8169700Y11265000D01*
X8169700Y11265000D02*
X8203033Y11198334D01*
X8203033Y11198334D02*
X8203033Y11065000D01*
X7569700Y11631667D02*
X7536366Y11665000D01*
X7536366Y11665000D02*
X7503033Y11731667D01*
X7503033Y11731667D02*
X7503033Y11898333D01*
X7503033Y11898333D02*
X7536366Y11965000D01*
X7536366Y11965000D02*
X7569700Y11998333D01*
X7569700Y11998333D02*
X7636366Y12031667D01*
X7636366Y12031667D02*
X7703033Y12031667D01*
X7703033Y12031667D02*
X7803033Y11998333D01*
X7803033Y11998333D02*
X8203033Y11598333D01*
X8203033Y11598333D02*
X8203033Y12031667D01*
X10298333Y3982300D02*
X10231666Y4015634D01*
X10231666Y4015634D02*
X10165000Y4082300D01*
X10165000Y4082300D02*
X10065000Y4182300D01*
X10065000Y4182300D02*
X9998333Y4215634D01*
X9998333Y4215634D02*
X9931666Y4215634D01*
X9965000Y4048967D02*
X9898333Y4082300D01*
X9898333Y4082300D02*
X9831666Y4148967D01*
X9831666Y4148967D02*
X9798333Y4282300D01*
X9798333Y4282300D02*
X9798333Y4515634D01*
X9798333Y4515634D02*
X9831666Y4648967D01*
X9831666Y4648967D02*
X9898333Y4715634D01*
X9898333Y4715634D02*
X9965000Y4748967D01*
X9965000Y4748967D02*
X10098333Y4748967D01*
X10098333Y4748967D02*
X10165000Y4715634D01*
X10165000Y4715634D02*
X10231666Y4648967D01*
X10231666Y4648967D02*
X10265000Y4515634D01*
X10265000Y4515634D02*
X10265000Y4282300D01*
X10265000Y4282300D02*
X10231666Y4148967D01*
X10231666Y4148967D02*
X10165000Y4082300D01*
X10165000Y4082300D02*
X10098333Y4048967D01*
X10098333Y4048967D02*
X9965000Y4048967D01*
X10931666Y4048967D02*
X10531666Y4048967D01*
X10731666Y4048967D02*
X10731666Y4748967D01*
X10731666Y4748967D02*
X10664999Y4648967D01*
X10664999Y4648967D02*
X10598333Y4582300D01*
X10598333Y4582300D02*
X10531666Y4548967D01*
X723533Y16491667D02*
X1223533Y16491667D01*
X1223533Y16491667D02*
X1323533Y16458334D01*
X1323533Y16458334D02*
X1390200Y16391667D01*
X1390200Y16391667D02*
X1423533Y16291667D01*
X1423533Y16291667D02*
X1423533Y16225000D01*
X723533Y16758333D02*
X723533Y17191667D01*
X723533Y17191667D02*
X990200Y16958333D01*
X990200Y16958333D02*
X990200Y17058333D01*
X990200Y17058333D02*
X1023533Y17125000D01*
X1023533Y17125000D02*
X1056866Y17158333D01*
X1056866Y17158333D02*
X1123533Y17191667D01*
X1123533Y17191667D02*
X1290200Y17191667D01*
X1290200Y17191667D02*
X1356866Y17158333D01*
X1356866Y17158333D02*
X1390200Y17125000D01*
X1390200Y17125000D02*
X1423533Y17058333D01*
X1423533Y17058333D02*
X1423533Y16858333D01*
X1423533Y16858333D02*
X1390200Y16791667D01*
X1390200Y16791667D02*
X1356866Y16758333D01*
X12491666Y2338967D02*
X12491666Y1838967D01*
X12491666Y1838967D02*
X12458333Y1738967D01*
X12458333Y1738967D02*
X12391666Y1672300D01*
X12391666Y1672300D02*
X12291666Y1638967D01*
X12291666Y1638967D02*
X12225000Y1638967D01*
X12791666Y2272300D02*
X12824999Y2305634D01*
X12824999Y2305634D02*
X12891666Y2338967D01*
X12891666Y2338967D02*
X13058333Y2338967D01*
X13058333Y2338967D02*
X13124999Y2305634D01*
X13124999Y2305634D02*
X13158333Y2272300D01*
X13158333Y2272300D02*
X13191666Y2205634D01*
X13191666Y2205634D02*
X13191666Y2138967D01*
X13191666Y2138967D02*
X13158333Y2038967D01*
X13158333Y2038967D02*
X12758333Y1638967D01*
X12758333Y1638967D02*
X13191666Y1638967D01*
X12491666Y16838967D02*
X12491666Y16338967D01*
X12491666Y16338967D02*
X12458333Y16238967D01*
X12458333Y16238967D02*
X12391666Y16172300D01*
X12391666Y16172300D02*
X12291666Y16138967D01*
X12291666Y16138967D02*
X12225000Y16138967D01*
X13191666Y16138967D02*
X12791666Y16138967D01*
X12991666Y16138967D02*
X12991666Y16838967D01*
X12991666Y16838967D02*
X12924999Y16738967D01*
X12924999Y16738967D02*
X12858333Y16672300D01*
X12858333Y16672300D02*
X12791666Y16638967D01*
X13191033Y6728334D02*
X12491033Y6728334D01*
X12491033Y6728334D02*
X12491033Y6895001D01*
X12491033Y6895001D02*
X12524366Y6995001D01*
X12524366Y6995001D02*
X12591033Y7061667D01*
X12591033Y7061667D02*
X12657700Y7095001D01*
X12657700Y7095001D02*
X12791033Y7128334D01*
X12791033Y7128334D02*
X12891033Y7128334D01*
X12891033Y7128334D02*
X13024366Y7095001D01*
X13024366Y7095001D02*
X13091033Y7061667D01*
X13091033Y7061667D02*
X13157700Y6995001D01*
X13157700Y6995001D02*
X13191033Y6895001D01*
X13191033Y6895001D02*
X13191033Y6728334D01*
X12491033Y7361667D02*
X12491033Y7795001D01*
X12491033Y7795001D02*
X12757700Y7561667D01*
X12757700Y7561667D02*
X12757700Y7661667D01*
X12757700Y7661667D02*
X12791033Y7728334D01*
X12791033Y7728334D02*
X12824366Y7761667D01*
X12824366Y7761667D02*
X12891033Y7795001D01*
X12891033Y7795001D02*
X13057700Y7795001D01*
X13057700Y7795001D02*
X13124366Y7761667D01*
X13124366Y7761667D02*
X13157700Y7728334D01*
X13157700Y7728334D02*
X13191033Y7661667D01*
X13191033Y7661667D02*
X13191033Y7461667D01*
X13191033Y7461667D02*
X13157700Y7395001D01*
X13157700Y7395001D02*
X13124366Y7361667D01*
X13251033Y11078334D02*
X12551033Y11078334D01*
X12551033Y11078334D02*
X12551033Y11245001D01*
X12551033Y11245001D02*
X12584366Y11345001D01*
X12584366Y11345001D02*
X12651033Y11411667D01*
X12651033Y11411667D02*
X12717700Y11445001D01*
X12717700Y11445001D02*
X12851033Y11478334D01*
X12851033Y11478334D02*
X12951033Y11478334D01*
X12951033Y11478334D02*
X13084366Y11445001D01*
X13084366Y11445001D02*
X13151033Y11411667D01*
X13151033Y11411667D02*
X13217700Y11345001D01*
X13217700Y11345001D02*
X13251033Y11245001D01*
X13251033Y11245001D02*
X13251033Y11078334D01*
X12617700Y11745001D02*
X12584366Y11778334D01*
X12584366Y11778334D02*
X12551033Y11845001D01*
X12551033Y11845001D02*
X12551033Y12011667D01*
X12551033Y12011667D02*
X12584366Y12078334D01*
X12584366Y12078334D02*
X12617700Y12111667D01*
X12617700Y12111667D02*
X12684366Y12145001D01*
X12684366Y12145001D02*
X12751033Y12145001D01*
X12751033Y12145001D02*
X12851033Y12111667D01*
X12851033Y12111667D02*
X13251033Y11711667D01*
X13251033Y11711667D02*
X13251033Y12145001D01*
X9103333Y14108967D02*
X9103333Y14808967D01*
X9103333Y14808967D02*
X9270000Y14808967D01*
X9270000Y14808967D02*
X9370000Y14775634D01*
X9370000Y14775634D02*
X9436667Y14708967D01*
X9436667Y14708967D02*
X9470000Y14642300D01*
X9470000Y14642300D02*
X9503333Y14508967D01*
X9503333Y14508967D02*
X9503333Y14408967D01*
X9503333Y14408967D02*
X9470000Y14275634D01*
X9470000Y14275634D02*
X9436667Y14208967D01*
X9436667Y14208967D02*
X9370000Y14142300D01*
X9370000Y14142300D02*
X9270000Y14108967D01*
X9270000Y14108967D02*
X9103333Y14108967D01*
X10170000Y14108967D02*
X9770000Y14108967D01*
X9970000Y14108967D02*
X9970000Y14808967D01*
X9970000Y14808967D02*
X9903333Y14708967D01*
X9903333Y14708967D02*
X9836667Y14642300D01*
X9836667Y14642300D02*
X9770000Y14608967D01*
X1744366Y3988334D02*
X1777700Y3955001D01*
X1777700Y3955001D02*
X1811033Y3855001D01*
X1811033Y3855001D02*
X1811033Y3788334D01*
X1811033Y3788334D02*
X1777700Y3688334D01*
X1777700Y3688334D02*
X1711033Y3621667D01*
X1711033Y3621667D02*
X1644366Y3588334D01*
X1644366Y3588334D02*
X1511033Y3555001D01*
X1511033Y3555001D02*
X1411033Y3555001D01*
X1411033Y3555001D02*
X1277700Y3588334D01*
X1277700Y3588334D02*
X1211033Y3621667D01*
X1211033Y3621667D02*
X1144366Y3688334D01*
X1144366Y3688334D02*
X1111033Y3788334D01*
X1111033Y3788334D02*
X1111033Y3855001D01*
X1111033Y3855001D02*
X1144366Y3955001D01*
X1144366Y3955001D02*
X1177700Y3988334D01*
X1111033Y4221667D02*
X1111033Y4655001D01*
X1111033Y4655001D02*
X1377700Y4421667D01*
X1377700Y4421667D02*
X1377700Y4521667D01*
X1377700Y4521667D02*
X1411033Y4588334D01*
X1411033Y4588334D02*
X1444366Y4621667D01*
X1444366Y4621667D02*
X1511033Y4655001D01*
X1511033Y4655001D02*
X1677700Y4655001D01*
X1677700Y4655001D02*
X1744366Y4621667D01*
X1744366Y4621667D02*
X1777700Y4588334D01*
X1777700Y4588334D02*
X1811033Y4521667D01*
X1811033Y4521667D02*
X1811033Y4321667D01*
X1811033Y4321667D02*
X1777700Y4255001D01*
X1777700Y4255001D02*
X1744366Y4221667D01*
X4434366Y9138334D02*
X4467700Y9105001D01*
X4467700Y9105001D02*
X4501033Y9005001D01*
X4501033Y9005001D02*
X4501033Y8938334D01*
X4501033Y8938334D02*
X4467700Y8838334D01*
X4467700Y8838334D02*
X4401033Y8771667D01*
X4401033Y8771667D02*
X4334366Y8738334D01*
X4334366Y8738334D02*
X4201033Y8705001D01*
X4201033Y8705001D02*
X4101033Y8705001D01*
X4101033Y8705001D02*
X3967700Y8738334D01*
X3967700Y8738334D02*
X3901033Y8771667D01*
X3901033Y8771667D02*
X3834366Y8838334D01*
X3834366Y8838334D02*
X3801033Y8938334D01*
X3801033Y8938334D02*
X3801033Y9005001D01*
X3801033Y9005001D02*
X3834366Y9105001D01*
X3834366Y9105001D02*
X3867700Y9138334D01*
X3867700Y9405001D02*
X3834366Y9438334D01*
X3834366Y9438334D02*
X3801033Y9505001D01*
X3801033Y9505001D02*
X3801033Y9671667D01*
X3801033Y9671667D02*
X3834366Y9738334D01*
X3834366Y9738334D02*
X3867700Y9771667D01*
X3867700Y9771667D02*
X3934366Y9805001D01*
X3934366Y9805001D02*
X4001033Y9805001D01*
X4001033Y9805001D02*
X4101033Y9771667D01*
X4101033Y9771667D02*
X4501033Y9371667D01*
X4501033Y9371667D02*
X4501033Y9805001D01*
X7138333Y4115634D02*
X7105000Y4082300D01*
X7105000Y4082300D02*
X7005000Y4048967D01*
X7005000Y4048967D02*
X6938333Y4048967D01*
X6938333Y4048967D02*
X6838333Y4082300D01*
X6838333Y4082300D02*
X6771667Y4148967D01*
X6771667Y4148967D02*
X6738333Y4215634D01*
X6738333Y4215634D02*
X6705000Y4348967D01*
X6705000Y4348967D02*
X6705000Y4448967D01*
X6705000Y4448967D02*
X6738333Y4582300D01*
X6738333Y4582300D02*
X6771667Y4648967D01*
X6771667Y4648967D02*
X6838333Y4715634D01*
X6838333Y4715634D02*
X6938333Y4748967D01*
X6938333Y4748967D02*
X7005000Y4748967D01*
X7005000Y4748967D02*
X7105000Y4715634D01*
X7105000Y4715634D02*
X7138333Y4682300D01*
X7805000Y4048967D02*
X7405000Y4048967D01*
X7605000Y4048967D02*
X7605000Y4748967D01*
X7605000Y4748967D02*
X7538333Y4648967D01*
X7538333Y4648967D02*
X7471667Y4582300D01*
X7471667Y4582300D02*
X7405000Y4548967D01*
D11*
%TO.C,SW1*%
X7480000Y1660000D02*
X7480000Y2860000D01*
X6630000Y660000D02*
X2430000Y660000D01*
X6630000Y1210000D02*
X6630000Y660000D01*
X6630000Y3310000D02*
X6630000Y3860000D01*
X6630000Y3860000D02*
X2430000Y3860000D01*
X2430000Y660000D02*
X2430000Y1210000D01*
X2430000Y3860000D02*
X2430000Y3310000D01*
D12*
%TO.C,kibuzzard-663FBC0C*%
G36*
X10919968Y16016033D02*
G01*
X10589239Y16016033D01*
X10432076Y16016033D01*
X9570064Y16016033D01*
X8639789Y16016033D01*
X8366739Y16016033D01*
X8036010Y16016033D01*
X7796474Y16375337D01*
X8366739Y16375337D01*
X8435398Y16362836D01*
X8504851Y16353906D01*
X8573511Y16348548D01*
X8639789Y16346762D01*
X8718172Y16350533D01*
X8791395Y16361844D01*
X8857276Y16382084D01*
X8913633Y16412644D01*
X8995389Y16507894D01*
X9018011Y16574767D01*
X9025551Y16656325D01*
X9016622Y16723000D01*
X8989833Y16786500D01*
X8938040Y16842062D01*
X8854101Y16884925D01*
X8945383Y16970650D01*
X8970981Y17028594D01*
X8979514Y17094475D01*
X8965226Y17186550D01*
X8911251Y17269894D01*
X8801714Y17330219D01*
X8746426Y17342125D01*
X9114451Y17342125D01*
X9114451Y17180200D01*
X9373214Y17180200D01*
X9373214Y16359462D01*
X9570064Y16359462D01*
X9570064Y17180200D01*
X9828826Y17180200D01*
X9828826Y17342125D01*
X9941539Y17342125D01*
X9941539Y16359462D01*
X10117751Y16359462D01*
X10117751Y17011925D01*
X10176753Y16903005D01*
X10233110Y16794261D01*
X10286820Y16685694D01*
X10337885Y16577126D01*
X10386303Y16468383D01*
X10432076Y16359462D01*
X10589239Y16359462D01*
X10589239Y17342125D01*
X10413026Y17342125D01*
X10413026Y16737287D01*
X10385047Y16799200D01*
X10351908Y16870638D01*
X10314601Y16948028D01*
X10274120Y17027800D01*
X10231456Y17108961D01*
X10187601Y17190519D01*
X10143151Y17269298D01*
X10098701Y17342125D01*
X9941539Y17342125D01*
X9828826Y17342125D01*
X9114451Y17342125D01*
X8746426Y17342125D01*
X8721545Y17347483D01*
X8620739Y17353238D01*
X8488976Y17346094D01*
X8366739Y17329425D01*
X8366739Y16375337D01*
X7796474Y16375337D01*
X7480032Y16850000D01*
X8036010Y17683967D01*
X8366739Y17683967D01*
X10589239Y17683967D01*
X10919968Y17683967D01*
X10919968Y16016033D01*
G37*
G36*
X8788220Y16758719D02*
G01*
X8833464Y16656325D01*
X8817589Y16585681D01*
X8777108Y16542819D01*
X8720751Y16522181D01*
X8655664Y16516625D01*
X8607245Y16518212D01*
X8562001Y16522975D01*
X8562001Y16789675D01*
X8666776Y16789675D01*
X8788220Y16758719D01*
G37*
G36*
X8703289Y17179406D02*
G01*
X8747739Y17163531D01*
X8777901Y17130194D01*
X8789014Y17073838D01*
X8750914Y16984144D01*
X8638201Y16951600D01*
X8562001Y16951600D01*
X8562001Y17177025D01*
X8604864Y17181788D01*
X8650901Y17183375D01*
X8703289Y17179406D01*
G37*
%TO.C,kibuzzard-663FBD0F*%
G36*
X18543492Y17085881D02*
G01*
X18543492Y16173069D01*
X18543492Y14704631D01*
X18543492Y13433044D01*
X18543492Y13102315D01*
X16856508Y13102315D01*
X16856508Y13433044D01*
X17209462Y13433044D01*
X17371387Y13433044D01*
X17371387Y13647356D01*
X18030200Y13647356D01*
X18030200Y13433044D01*
X18192125Y13433044D01*
X18192125Y14056931D01*
X18030200Y14056931D01*
X18030200Y13844206D01*
X17371387Y13844206D01*
X17371387Y14056931D01*
X17209462Y14056931D01*
X17209462Y13433044D01*
X16856508Y13433044D01*
X16856508Y14214094D01*
X17209462Y14214094D01*
X18192125Y14214094D01*
X18192125Y14390306D01*
X17539662Y14390306D01*
X17648583Y14449308D01*
X17757326Y14505665D01*
X17865894Y14559375D01*
X17974461Y14610440D01*
X18083205Y14658858D01*
X18192125Y14704631D01*
X18192125Y14861794D01*
X17209462Y14861794D01*
X17209462Y14685581D01*
X17814300Y14685581D01*
X17752387Y14657602D01*
X17680950Y14624463D01*
X17603559Y14587156D01*
X17523787Y14546675D01*
X17442627Y14504011D01*
X17361069Y14460156D01*
X17282289Y14415706D01*
X17209462Y14371256D01*
X17209462Y14214094D01*
X16856508Y14214094D01*
X16856508Y16196881D01*
X17187237Y16196881D01*
X17195373Y16110759D01*
X17219781Y16030194D01*
X17260461Y15957566D01*
X17317412Y15895256D01*
X17390239Y15844059D01*
X17478544Y15804769D01*
X17581930Y15779766D01*
X17700000Y15771431D01*
X17819261Y15778575D01*
X17923044Y15800006D01*
X18011150Y15834534D01*
X18083381Y15880969D01*
X18139737Y15938714D01*
X18180219Y16007175D01*
X18204627Y16085558D01*
X18212762Y16173069D01*
X18208794Y16270105D01*
X18196887Y16351663D01*
X18168312Y16460406D01*
X17677775Y16460406D01*
X17677775Y16265144D01*
X18036550Y16265144D01*
X18041312Y16227044D01*
X18042900Y16188944D01*
X18022064Y16094091D01*
X17959556Y16025431D01*
X17893675Y15994563D01*
X17807156Y15976042D01*
X17700000Y15969869D01*
X17627173Y15973242D01*
X17561094Y15983362D01*
X17453144Y16027813D01*
X17382500Y16106394D01*
X17357100Y16223869D01*
X17374562Y16328644D01*
X17414250Y16414369D01*
X17258675Y16465169D01*
X17239625Y16432625D01*
X17215812Y16377856D01*
X17195969Y16299275D01*
X17187237Y16196881D01*
X16856508Y16196881D01*
X16856508Y16595344D01*
X17209462Y16595344D01*
X18192125Y16595344D01*
X18192125Y16771556D01*
X17539662Y16771556D01*
X17648583Y16830558D01*
X17757326Y16886915D01*
X17865894Y16940625D01*
X17974461Y16991690D01*
X18083205Y17040108D01*
X18192125Y17085881D01*
X18192125Y17243044D01*
X17209462Y17243044D01*
X17209462Y17066831D01*
X17814300Y17066831D01*
X17752387Y17038852D01*
X17680950Y17005713D01*
X17603559Y16968406D01*
X17523787Y16927925D01*
X17442627Y16885261D01*
X17361069Y16841406D01*
X17282289Y16796956D01*
X17209462Y16752506D01*
X17209462Y16595344D01*
X16856508Y16595344D01*
X16856508Y17636744D01*
X17198350Y17636744D01*
X17203112Y17527206D01*
X17222162Y17401794D01*
X18181012Y17401794D01*
X18199269Y17508950D01*
X18204825Y17611344D01*
X18197880Y17707189D01*
X18177044Y17794700D01*
X18141127Y17872289D01*
X18088937Y17938369D01*
X18019683Y17992145D01*
X17932569Y18032825D01*
X17826405Y18058423D01*
X17700000Y18066956D01*
X17576373Y18059217D01*
X17472194Y18036000D01*
X17386072Y17998892D01*
X17316619Y17949481D01*
X17263636Y17887767D01*
X17226925Y17813750D01*
X17205494Y17729414D01*
X17198350Y17636744D01*
X16856508Y17636744D01*
X16856508Y18066956D01*
X16856508Y18397685D01*
X18543492Y18397685D01*
X18543492Y18066956D01*
X18543492Y17611344D01*
X18543492Y17085881D01*
G37*
G36*
X17770048Y17865542D02*
G01*
X17834144Y17856613D01*
X17939712Y17816925D01*
X18009562Y17743900D01*
X18034962Y17631981D01*
X18034962Y17614519D01*
X18033375Y17597056D01*
X17372975Y17597056D01*
X17369006Y17625631D01*
X17368212Y17654206D01*
X17395994Y17760569D01*
X17469812Y17825656D01*
X17576175Y17858994D01*
X17700000Y17868519D01*
X17770048Y17865542D01*
G37*
%TO.C,kibuzzard-663FBCF2*%
G36*
X18493492Y5104187D02*
G01*
X18493492Y4191375D01*
X18493492Y2654675D01*
X18493492Y1759325D01*
X18493492Y970337D01*
X18493492Y614737D01*
X18493492Y284008D01*
X16806508Y284008D01*
X16806508Y614737D01*
X16806508Y968750D01*
X17137237Y968750D01*
X17151613Y865739D01*
X17194740Y778956D01*
X17266619Y708400D01*
X17339098Y667423D01*
X17427155Y638153D01*
X17530789Y620591D01*
X17650000Y614738D01*
X17769211Y620443D01*
X17872845Y637558D01*
X17960902Y666083D01*
X18033381Y706019D01*
X18105260Y775957D01*
X18148387Y864063D01*
X18162762Y970337D01*
X18148387Y1074054D01*
X18105260Y1160837D01*
X18033381Y1230687D01*
X17960902Y1270970D01*
X17872845Y1299744D01*
X17769211Y1317008D01*
X17650000Y1322762D01*
X17530789Y1317107D01*
X17427155Y1300141D01*
X17339098Y1271863D01*
X17266619Y1232275D01*
X17194740Y1162778D01*
X17151613Y1074936D01*
X17137237Y968750D01*
X16806508Y968750D01*
X16806508Y1427537D01*
X17159462Y1427537D01*
X17786525Y1427537D01*
X17868281Y1431506D01*
X17942100Y1443413D01*
X18006791Y1464844D01*
X18061162Y1497387D01*
X18136569Y1599781D01*
X18156214Y1671814D01*
X18162762Y1759325D01*
X18156214Y1848225D01*
X18136569Y1921250D01*
X18104620Y1979987D01*
X18061162Y2026025D01*
X18006791Y2059759D01*
X17942100Y2081587D01*
X17868281Y2093494D01*
X17786525Y2097462D01*
X17159462Y2097462D01*
X17159462Y1902200D01*
X17772237Y1902200D01*
X17876219Y1895850D01*
X17944481Y1873625D01*
X17981787Y1830762D01*
X17992900Y1762500D01*
X17981787Y1694237D01*
X17945275Y1652169D01*
X17877806Y1630737D01*
X17773825Y1624387D01*
X17159462Y1624387D01*
X17159462Y1427537D01*
X16806508Y1427537D01*
X16806508Y2199062D01*
X17159462Y2199062D01*
X17321387Y2199062D01*
X17321387Y2457825D01*
X18142125Y2457825D01*
X18142125Y2654675D01*
X17321387Y2654675D01*
X17321387Y2913437D01*
X17159462Y2913437D01*
X17159462Y2199062D01*
X16806508Y2199062D01*
X16806508Y4215187D01*
X17137237Y4215187D01*
X17145373Y4129066D01*
X17169781Y4048500D01*
X17210461Y3975872D01*
X17267412Y3913563D01*
X17340239Y3862366D01*
X17428544Y3823075D01*
X17531930Y3798072D01*
X17650000Y3789738D01*
X17769261Y3796881D01*
X17873044Y3818312D01*
X17961150Y3852841D01*
X18033381Y3899275D01*
X18089737Y3957020D01*
X18130219Y4025481D01*
X18154627Y4103864D01*
X18162762Y4191375D01*
X18158794Y4288411D01*
X18146887Y4369969D01*
X18118312Y4478713D01*
X17627775Y4478713D01*
X17627775Y4283450D01*
X17986550Y4283450D01*
X17991312Y4245350D01*
X17992900Y4207250D01*
X17972064Y4112397D01*
X17909556Y4043738D01*
X17843675Y4012869D01*
X17757156Y3994349D01*
X17650000Y3988175D01*
X17577173Y3991548D01*
X17511094Y4001669D01*
X17403144Y4046119D01*
X17332500Y4124700D01*
X17307100Y4242175D01*
X17324562Y4346950D01*
X17364250Y4432675D01*
X17208675Y4483475D01*
X17189625Y4450931D01*
X17165812Y4396163D01*
X17145969Y4317581D01*
X17137237Y4215187D01*
X16806508Y4215187D01*
X16806508Y4613650D01*
X17159462Y4613650D01*
X18142125Y4613650D01*
X18142125Y4789863D01*
X17489662Y4789863D01*
X17598583Y4848865D01*
X17707326Y4905221D01*
X17815894Y4958931D01*
X17924461Y5009996D01*
X18033205Y5058415D01*
X18142125Y5104187D01*
X18142125Y5261350D01*
X17159462Y5261350D01*
X17159462Y5085138D01*
X17764300Y5085138D01*
X17702387Y5057158D01*
X17630950Y5024019D01*
X17553559Y4986713D01*
X17473787Y4946231D01*
X17392627Y4903567D01*
X17311069Y4859712D01*
X17232289Y4815263D01*
X17159462Y4770812D01*
X17159462Y4613650D01*
X16806508Y4613650D01*
X16806508Y5655050D01*
X17148350Y5655050D01*
X17153112Y5545513D01*
X17172162Y5420100D01*
X18131012Y5420100D01*
X18149269Y5527256D01*
X18154825Y5629650D01*
X18147880Y5725495D01*
X18127044Y5813006D01*
X18091127Y5890595D01*
X18038937Y5956675D01*
X17969683Y6010452D01*
X17882569Y6051131D01*
X17776405Y6076730D01*
X17650000Y6085263D01*
X17526373Y6077523D01*
X17422194Y6054306D01*
X17336072Y6017198D01*
X17266619Y5967787D01*
X17213636Y5906073D01*
X17176925Y5832056D01*
X17155494Y5747720D01*
X17148350Y5655050D01*
X16806508Y5655050D01*
X16806508Y6085263D01*
X16806508Y6415992D01*
X18493492Y6415992D01*
X18493492Y6085263D01*
X18493492Y5629650D01*
X18493492Y5104187D01*
G37*
G36*
X17719056Y1122936D02*
G01*
X17783350Y1118769D01*
X17892094Y1096544D01*
X17965912Y1048919D01*
X17992900Y968750D01*
X17965912Y887787D01*
X17892887Y840956D01*
X17784144Y818731D01*
X17719255Y814564D01*
X17650000Y813175D01*
X17580944Y814564D01*
X17516650Y818731D01*
X17407906Y840956D01*
X17334087Y887787D01*
X17307100Y968750D01*
X17334087Y1049713D01*
X17407112Y1096544D01*
X17515856Y1118769D01*
X17580745Y1122936D01*
X17650000Y1124325D01*
X17719056Y1122936D01*
G37*
G36*
X17720048Y5883848D02*
G01*
X17784144Y5874919D01*
X17889712Y5835231D01*
X17959562Y5762206D01*
X17984962Y5650287D01*
X17984962Y5632825D01*
X17983375Y5615363D01*
X17322975Y5615363D01*
X17319006Y5643938D01*
X17318212Y5672512D01*
X17345994Y5778875D01*
X17419812Y5843962D01*
X17526175Y5877300D01*
X17650000Y5886825D01*
X17720048Y5883848D01*
G37*
%TO.C,kibuzzard-663FBC0C*%
G36*
X11169968Y1316033D02*
G01*
X10839239Y1316033D01*
X10682076Y1316033D01*
X9820064Y1316033D01*
X8889789Y1316033D01*
X8616739Y1316033D01*
X8286010Y1316033D01*
X8046474Y1675337D01*
X8616739Y1675337D01*
X8685398Y1662836D01*
X8754851Y1653906D01*
X8823511Y1648548D01*
X8889789Y1646762D01*
X8968172Y1650533D01*
X9041395Y1661844D01*
X9107276Y1682084D01*
X9163633Y1712644D01*
X9245389Y1807894D01*
X9268011Y1874767D01*
X9275551Y1956325D01*
X9266622Y2023000D01*
X9239833Y2086500D01*
X9188040Y2142062D01*
X9104101Y2184925D01*
X9195383Y2270650D01*
X9220981Y2328594D01*
X9229514Y2394475D01*
X9215226Y2486550D01*
X9161251Y2569894D01*
X9051714Y2630219D01*
X8996426Y2642125D01*
X9364451Y2642125D01*
X9364451Y2480200D01*
X9623214Y2480200D01*
X9623214Y1659462D01*
X9820064Y1659462D01*
X9820064Y2480200D01*
X10078826Y2480200D01*
X10078826Y2642125D01*
X10191539Y2642125D01*
X10191539Y1659462D01*
X10367751Y1659462D01*
X10367751Y2311925D01*
X10426753Y2203005D01*
X10483110Y2094261D01*
X10536820Y1985694D01*
X10587885Y1877126D01*
X10636303Y1768383D01*
X10682076Y1659462D01*
X10839239Y1659462D01*
X10839239Y2642125D01*
X10663026Y2642125D01*
X10663026Y2037287D01*
X10635047Y2099200D01*
X10601908Y2170638D01*
X10564601Y2248028D01*
X10524120Y2327800D01*
X10481456Y2408961D01*
X10437601Y2490519D01*
X10393151Y2569298D01*
X10348701Y2642125D01*
X10191539Y2642125D01*
X10078826Y2642125D01*
X9364451Y2642125D01*
X8996426Y2642125D01*
X8971545Y2647483D01*
X8870739Y2653238D01*
X8738976Y2646094D01*
X8616739Y2629425D01*
X8616739Y1675337D01*
X8046474Y1675337D01*
X7730032Y2150000D01*
X8286010Y2983967D01*
X8616739Y2983967D01*
X10839239Y2983967D01*
X11169968Y2983967D01*
X11169968Y1316033D01*
G37*
G36*
X9038220Y2058719D02*
G01*
X9083464Y1956325D01*
X9067589Y1885681D01*
X9027108Y1842819D01*
X8970751Y1822181D01*
X8905664Y1816625D01*
X8857245Y1818212D01*
X8812001Y1822975D01*
X8812001Y2089675D01*
X8916776Y2089675D01*
X9038220Y2058719D01*
G37*
G36*
X8953289Y2479406D02*
G01*
X8997739Y2463531D01*
X9027901Y2430194D01*
X9039014Y2373838D01*
X9000914Y2284144D01*
X8888201Y2251600D01*
X8812001Y2251600D01*
X8812001Y2477025D01*
X8854864Y2481788D01*
X8900901Y2483375D01*
X8953289Y2479406D01*
G37*
D11*
%TO.C,R7*%
X12672258Y9967500D02*
X12197742Y9967500D01*
X12672258Y8922500D02*
X12197742Y8922500D01*
%TO.C,R6*%
X12207500Y12277742D02*
X12207500Y12752258D01*
X11162500Y12277742D02*
X11162500Y12752258D01*
%TO.C,R5*%
X2552258Y13797500D02*
X2077742Y13797500D01*
X2552258Y12752500D02*
X2077742Y12752500D01*
%TO.C,R4*%
X5577742Y12752500D02*
X6052258Y12752500D01*
X5577742Y13797500D02*
X6052258Y13797500D01*
%TO.C,R3*%
X2077742Y10722500D02*
X2552258Y10722500D01*
X2077742Y11767500D02*
X2552258Y11767500D01*
%TO.C,R2*%
X5817500Y6007742D02*
X5817500Y6482258D01*
X4772500Y6007742D02*
X4772500Y6482258D01*
%TO.C,R1*%
X2892500Y6482258D02*
X2892500Y6007742D01*
X3937500Y6482258D02*
X3937500Y6007742D01*
%TO.C,Q2*%
X6465000Y8703000D02*
X7115000Y8703000D01*
X6465000Y8703000D02*
X5815000Y8703000D01*
X6465000Y11823000D02*
X7115000Y11823000D01*
X6465000Y11823000D02*
X5815000Y11823000D01*
X5302500Y11773000D02*
X5062500Y12109000D01*
X5542500Y12109000D01*
X5302500Y11773000D01*
G36*
X5302500Y11773000D02*
G01*
X5062500Y12109000D01*
X5542500Y12109000D01*
X5302500Y11773000D01*
G37*
%TO.C,Q1*%
X10365000Y5034000D02*
X11015000Y5034000D01*
X10365000Y5034000D02*
X9715000Y5034000D01*
X10365000Y8154000D02*
X11015000Y8154000D01*
X10365000Y8154000D02*
X9715000Y8154000D01*
X9202500Y8104000D02*
X8962500Y8440000D01*
X9442500Y8440000D01*
X9202500Y8104000D01*
G36*
X9202500Y8104000D02*
G01*
X8962500Y8440000D01*
X9442500Y8440000D01*
X9202500Y8104000D01*
G37*
%TO.C,J3*%
X3022500Y15595000D02*
X1692500Y15595000D01*
X6892500Y15595000D02*
X6892500Y18255000D01*
X4292500Y15595000D02*
X6892500Y15595000D01*
X4292500Y15595000D02*
X4292500Y18255000D01*
X1692500Y15595000D02*
X1692500Y16925000D01*
X4292500Y18255000D02*
X6892500Y18255000D01*
%TO.C,J2*%
X13595000Y4525000D02*
X13595000Y5855000D01*
X13595000Y655000D02*
X16255000Y655000D01*
X13595000Y3255000D02*
X13595000Y655000D01*
X13595000Y3255000D02*
X16255000Y3255000D01*
X13595000Y5855000D02*
X14925000Y5855000D01*
X16255000Y3255000D02*
X16255000Y655000D01*
%TO.C,J1*%
X16255000Y15755000D02*
X16255000Y13155000D01*
X13595000Y18355000D02*
X14925000Y18355000D01*
X13595000Y15755000D02*
X16255000Y15755000D01*
X13595000Y15755000D02*
X13595000Y13155000D01*
X13595000Y13155000D02*
X16255000Y13155000D01*
X13595000Y17025000D02*
X13595000Y18355000D01*
%TO.C,D3*%
X13460000Y6560000D02*
X15745000Y6560000D01*
X13460000Y8030000D02*
X13460000Y6560000D01*
X15745000Y8030000D02*
X13460000Y8030000D01*
%TO.C,D2*%
X13460000Y10950000D02*
X15745000Y10950000D01*
X13460000Y12420000D02*
X13460000Y10950000D01*
X15745000Y12420000D02*
X13460000Y12420000D01*
%TO.C,D1*%
X8725000Y9970000D02*
X10425000Y9970000D01*
X8725000Y9970000D02*
X8725000Y13230000D01*
X10425000Y9970000D02*
X10425000Y13230000D01*
%TO.C,C3*%
X1015000Y6385580D02*
X1015000Y6104420D01*
X2035000Y6385580D02*
X2035000Y6104420D01*
%TO.C,C2*%
X2164420Y8725000D02*
X2445580Y8725000D01*
X2164420Y9745000D02*
X2445580Y9745000D01*
%TO.C,C1*%
X7765000Y6104420D02*
X7765000Y6385580D01*
X6745000Y6104420D02*
X6745000Y6385580D01*
%TD*%
M02*
