%TF.GenerationSoftware,KiCad,Pcbnew,8.0.1*%
%TF.CreationDate,2024-05-12T11:03:26+05:30*%
%TF.ProjectId,PBSEQ-D1,50425345-512d-4443-912e-6b696361645f,0.1*%
%TF.SameCoordinates,PX7bfa480PY68e7780*%
%TF.FileFunction,Legend,Bot*%
%TF.FilePolarity,Positive*%
%FSLAX46Y46*%
G04 Gerber Fmt 4.6, Leading zero omitted, Abs format (unit mm)*
G04 Created by KiCad (PCBNEW 8.0.1) date 2024-05-12 11:03:26*
%MOMM*%
%LPD*%
G01*
G04 APERTURE LIST*
%ADD10C,0.200000*%
%ADD11C,0.000000*%
G04 APERTURE END LIST*
D10*
X15709523Y10132781D02*
X15709523Y11132781D01*
X15709523Y11132781D02*
X15328571Y11132781D01*
X15328571Y11132781D02*
X15233333Y11085162D01*
X15233333Y11085162D02*
X15185714Y11037543D01*
X15185714Y11037543D02*
X15138095Y10942305D01*
X15138095Y10942305D02*
X15138095Y10799448D01*
X15138095Y10799448D02*
X15185714Y10704210D01*
X15185714Y10704210D02*
X15233333Y10656591D01*
X15233333Y10656591D02*
X15328571Y10608972D01*
X15328571Y10608972D02*
X15709523Y10608972D01*
X14376190Y10656591D02*
X14233333Y10608972D01*
X14233333Y10608972D02*
X14185714Y10561353D01*
X14185714Y10561353D02*
X14138095Y10466115D01*
X14138095Y10466115D02*
X14138095Y10323258D01*
X14138095Y10323258D02*
X14185714Y10228020D01*
X14185714Y10228020D02*
X14233333Y10180400D01*
X14233333Y10180400D02*
X14328571Y10132781D01*
X14328571Y10132781D02*
X14709523Y10132781D01*
X14709523Y10132781D02*
X14709523Y11132781D01*
X14709523Y11132781D02*
X14376190Y11132781D01*
X14376190Y11132781D02*
X14280952Y11085162D01*
X14280952Y11085162D02*
X14233333Y11037543D01*
X14233333Y11037543D02*
X14185714Y10942305D01*
X14185714Y10942305D02*
X14185714Y10847067D01*
X14185714Y10847067D02*
X14233333Y10751829D01*
X14233333Y10751829D02*
X14280952Y10704210D01*
X14280952Y10704210D02*
X14376190Y10656591D01*
X14376190Y10656591D02*
X14709523Y10656591D01*
X13757142Y10180400D02*
X13614285Y10132781D01*
X13614285Y10132781D02*
X13376190Y10132781D01*
X13376190Y10132781D02*
X13280952Y10180400D01*
X13280952Y10180400D02*
X13233333Y10228020D01*
X13233333Y10228020D02*
X13185714Y10323258D01*
X13185714Y10323258D02*
X13185714Y10418496D01*
X13185714Y10418496D02*
X13233333Y10513734D01*
X13233333Y10513734D02*
X13280952Y10561353D01*
X13280952Y10561353D02*
X13376190Y10608972D01*
X13376190Y10608972D02*
X13566666Y10656591D01*
X13566666Y10656591D02*
X13661904Y10704210D01*
X13661904Y10704210D02*
X13709523Y10751829D01*
X13709523Y10751829D02*
X13757142Y10847067D01*
X13757142Y10847067D02*
X13757142Y10942305D01*
X13757142Y10942305D02*
X13709523Y11037543D01*
X13709523Y11037543D02*
X13661904Y11085162D01*
X13661904Y11085162D02*
X13566666Y11132781D01*
X13566666Y11132781D02*
X13328571Y11132781D01*
X13328571Y11132781D02*
X13185714Y11085162D01*
X12757142Y10656591D02*
X12423809Y10656591D01*
X12280952Y10132781D02*
X12757142Y10132781D01*
X12757142Y10132781D02*
X12757142Y11132781D01*
X12757142Y11132781D02*
X12280952Y11132781D01*
X11185714Y10037543D02*
X11280952Y10085162D01*
X11280952Y10085162D02*
X11376190Y10180400D01*
X11376190Y10180400D02*
X11519047Y10323258D01*
X11519047Y10323258D02*
X11614285Y10370877D01*
X11614285Y10370877D02*
X11709523Y10370877D01*
X11661904Y10132781D02*
X11757142Y10180400D01*
X11757142Y10180400D02*
X11852380Y10275639D01*
X11852380Y10275639D02*
X11899999Y10466115D01*
X11899999Y10466115D02*
X11899999Y10799448D01*
X11899999Y10799448D02*
X11852380Y10989924D01*
X11852380Y10989924D02*
X11757142Y11085162D01*
X11757142Y11085162D02*
X11661904Y11132781D01*
X11661904Y11132781D02*
X11471428Y11132781D01*
X11471428Y11132781D02*
X11376190Y11085162D01*
X11376190Y11085162D02*
X11280952Y10989924D01*
X11280952Y10989924D02*
X11233333Y10799448D01*
X11233333Y10799448D02*
X11233333Y10466115D01*
X11233333Y10466115D02*
X11280952Y10275639D01*
X11280952Y10275639D02*
X11376190Y10180400D01*
X11376190Y10180400D02*
X11471428Y10132781D01*
X11471428Y10132781D02*
X11661904Y10132781D01*
X10804761Y10513734D02*
X10042857Y10513734D01*
X9566666Y10132781D02*
X9566666Y11132781D01*
X9566666Y11132781D02*
X9328571Y11132781D01*
X9328571Y11132781D02*
X9185714Y11085162D01*
X9185714Y11085162D02*
X9090476Y10989924D01*
X9090476Y10989924D02*
X9042857Y10894686D01*
X9042857Y10894686D02*
X8995238Y10704210D01*
X8995238Y10704210D02*
X8995238Y10561353D01*
X8995238Y10561353D02*
X9042857Y10370877D01*
X9042857Y10370877D02*
X9090476Y10275639D01*
X9090476Y10275639D02*
X9185714Y10180400D01*
X9185714Y10180400D02*
X9328571Y10132781D01*
X9328571Y10132781D02*
X9566666Y10132781D01*
X8042857Y10132781D02*
X8614285Y10132781D01*
X8328571Y10132781D02*
X8328571Y11132781D01*
X8328571Y11132781D02*
X8423809Y10989924D01*
X8423809Y10989924D02*
X8519047Y10894686D01*
X8519047Y10894686D02*
X8614285Y10847067D01*
D11*
%TO.C,G\u002A\u002A\u002A*%
G36*
X16133654Y7365339D02*
G01*
X16132744Y7345023D01*
X16129062Y7328039D01*
X16127655Y7324238D01*
X16116002Y7302167D01*
X16100035Y7283263D01*
X16080705Y7268142D01*
X16058956Y7257423D01*
X16035735Y7251722D01*
X16011988Y7251659D01*
X16002333Y7253231D01*
X15977441Y7260975D01*
X15955639Y7273155D01*
X15937380Y7289075D01*
X15923115Y7308044D01*
X15913297Y7329365D01*
X15908375Y7352346D01*
X15908659Y7368194D01*
X15975414Y7368194D01*
X15976680Y7353822D01*
X15981304Y7342419D01*
X15991267Y7328897D01*
X16004212Y7320214D01*
X16012869Y7317466D01*
X16028536Y7317075D01*
X16043168Y7322751D01*
X16056312Y7334373D01*
X16061059Y7341100D01*
X16066638Y7356221D01*
X16066695Y7371995D01*
X16061345Y7387091D01*
X16050701Y7400175D01*
X16039059Y7408564D01*
X16026972Y7412446D01*
X16013260Y7411701D01*
X16012428Y7411535D01*
X15998731Y7405776D01*
X15987372Y7395648D01*
X15979289Y7382627D01*
X15975414Y7368194D01*
X15908659Y7368194D01*
X15908804Y7376293D01*
X15915036Y7400512D01*
X15915594Y7401987D01*
X15917289Y7407036D01*
X15918668Y7412581D01*
X15919782Y7419343D01*
X15920681Y7428043D01*
X15921415Y7439403D01*
X15922032Y7454143D01*
X15922582Y7472989D01*
X15923117Y7496658D01*
X15923684Y7525873D01*
X15925699Y7633998D01*
X15934591Y7657437D01*
X15941192Y7673244D01*
X15958234Y7703723D01*
X15979373Y7729597D01*
X16004906Y7751192D01*
X16035126Y7768837D01*
X16041143Y7771630D01*
X16056243Y7777870D01*
X16070726Y7782943D01*
X16082137Y7785954D01*
X16086618Y7786467D01*
X16095876Y7786993D01*
X16109657Y7787448D01*
X16128137Y7787832D01*
X16151492Y7788147D01*
X16179893Y7788394D01*
X16213514Y7788574D01*
X16252534Y7788687D01*
X16297123Y7788737D01*
X16347458Y7788722D01*
X16403711Y7788645D01*
X16466058Y7788506D01*
X16831173Y7787567D01*
X16852302Y7779346D01*
X16871944Y7770737D01*
X16903173Y7752206D01*
X16929821Y7729627D01*
X16951672Y7703231D01*
X16968513Y7673251D01*
X16980129Y7639922D01*
X16980985Y7636457D01*
X16982067Y7631469D01*
X16982990Y7625994D01*
X16983770Y7619548D01*
X16984416Y7611652D01*
X16984944Y7601824D01*
X16985362Y7589580D01*
X16985688Y7574440D01*
X16985928Y7555924D01*
X16986097Y7533547D01*
X16986208Y7506829D01*
X16986273Y7475288D01*
X16986302Y7438442D01*
X16986308Y7395810D01*
X16986306Y7365294D01*
X16986284Y7326769D01*
X16986232Y7293693D01*
X16986137Y7265585D01*
X16985986Y7241960D01*
X16985767Y7222339D01*
X16985469Y7206241D01*
X16985080Y7193183D01*
X16984586Y7182682D01*
X16983976Y7174259D01*
X16983237Y7167431D01*
X16982357Y7161715D01*
X16981325Y7156632D01*
X16980129Y7151698D01*
X16970213Y7122295D01*
X16954198Y7092035D01*
X16933489Y7065388D01*
X16908525Y7042911D01*
X16879751Y7025165D01*
X16874680Y7022607D01*
X16868414Y7019417D01*
X16862620Y7016582D01*
X16856923Y7014080D01*
X16850950Y7011894D01*
X16844325Y7009998D01*
X16836674Y7008376D01*
X16827623Y7007003D01*
X16816798Y7005861D01*
X16803823Y7004927D01*
X16788325Y7004183D01*
X16769928Y7003604D01*
X16748258Y7003172D01*
X16722942Y7002866D01*
X16693605Y7002664D01*
X16659872Y7002546D01*
X16621368Y7002490D01*
X16577720Y7002475D01*
X16528552Y7002483D01*
X16473491Y7002490D01*
X16467790Y7002489D01*
X16422115Y7002468D01*
X16378205Y7002414D01*
X16336470Y7002330D01*
X16297320Y7002219D01*
X16261163Y7002082D01*
X16228409Y7001921D01*
X16199468Y7001738D01*
X16174748Y7001537D01*
X16154659Y7001318D01*
X16139611Y7001086D01*
X16130011Y7000842D01*
X16126271Y7000588D01*
X16125264Y6999745D01*
X16124379Y6997688D01*
X16123636Y6993969D01*
X16123020Y6988125D01*
X16122522Y6979697D01*
X16122130Y6968226D01*
X16121830Y6953248D01*
X16121612Y6934305D01*
X16121463Y6910936D01*
X16121372Y6882680D01*
X16121326Y6849077D01*
X16121312Y6809667D01*
X16121343Y6775814D01*
X16121432Y6743648D01*
X16121573Y6713835D01*
X16121761Y6686935D01*
X16121991Y6663507D01*
X16122257Y6644109D01*
X16122553Y6629300D01*
X16122874Y6619641D01*
X16123215Y6615691D01*
X16123308Y6615504D01*
X16124253Y6614741D01*
X16126334Y6614063D01*
X16129895Y6613466D01*
X16135276Y6612943D01*
X16142820Y6612490D01*
X16152869Y6612103D01*
X16165764Y6611776D01*
X16181850Y6611505D01*
X16201466Y6611285D01*
X16224955Y6611109D01*
X16252661Y6610973D01*
X16284924Y6610874D01*
X16322087Y6610805D01*
X16364492Y6610762D01*
X16412479Y6610740D01*
X16466393Y6610735D01*
X16807668Y6610735D01*
X16807655Y6693003D01*
X16807647Y6706971D01*
X16807584Y6728995D01*
X16807396Y6746137D01*
X16807016Y6759304D01*
X16806378Y6769400D01*
X16805413Y6777333D01*
X16804055Y6784009D01*
X16802234Y6790333D01*
X16799886Y6797210D01*
X16794009Y6819295D01*
X16793216Y6832443D01*
X16859045Y6832443D01*
X16859269Y6831337D01*
X16864006Y6818153D01*
X16871574Y6806047D01*
X16880385Y6797611D01*
X16881912Y6796672D01*
X16896636Y6791301D01*
X16911896Y6791372D01*
X16926357Y6796447D01*
X16938683Y6806080D01*
X16947538Y6819831D01*
X16947685Y6820182D01*
X16951324Y6835570D01*
X16949887Y6850249D01*
X16944231Y6863431D01*
X16935210Y6874336D01*
X16923679Y6882177D01*
X16910490Y6886170D01*
X16896501Y6885531D01*
X16882565Y6879473D01*
X16881115Y6878457D01*
X16871649Y6868921D01*
X16864107Y6856659D01*
X16859553Y6843794D01*
X16859045Y6832443D01*
X16793216Y6832443D01*
X16792443Y6845262D01*
X16796963Y6870771D01*
X16798336Y6875155D01*
X16806085Y6893242D01*
X16817117Y6909226D01*
X16832768Y6925136D01*
X16841700Y6932301D01*
X16862765Y6943841D01*
X16885527Y6950162D01*
X16909083Y6951452D01*
X16932526Y6947897D01*
X16954954Y6939686D01*
X16975463Y6927006D01*
X16993149Y6910045D01*
X17007108Y6888987D01*
X17013842Y6870794D01*
X17017342Y6847807D01*
X17017010Y6835570D01*
X17016679Y6823387D01*
X17011761Y6799320D01*
X17010439Y6794806D01*
X17008804Y6788270D01*
X17007542Y6781261D01*
X17006602Y6772955D01*
X17005940Y6762521D01*
X17005508Y6749131D01*
X17005257Y6731959D01*
X17005141Y6710175D01*
X17005114Y6682950D01*
X17005074Y6662511D01*
X17004810Y6634490D01*
X17004226Y6611394D01*
X17003234Y6592399D01*
X17001747Y6576681D01*
X16999680Y6563416D01*
X16996946Y6551780D01*
X16993461Y6540950D01*
X16989136Y6530100D01*
X16981545Y6514826D01*
X16964243Y6489363D01*
X16942471Y6465892D01*
X16917360Y6445746D01*
X16907717Y6439385D01*
X16892987Y6431063D01*
X16878057Y6424901D01*
X16859932Y6419529D01*
X16856658Y6418719D01*
X16852766Y6417913D01*
X16848241Y6417197D01*
X16842732Y6416565D01*
X16835886Y6416010D01*
X16827350Y6415529D01*
X16816772Y6415115D01*
X16803800Y6414763D01*
X16788083Y6414468D01*
X16769267Y6414223D01*
X16747001Y6414024D01*
X16720932Y6413867D01*
X16690709Y6413743D01*
X16655978Y6413650D01*
X16616389Y6413579D01*
X16571589Y6413529D01*
X16521224Y6413491D01*
X16464944Y6413462D01*
X16437524Y6413447D01*
X16382838Y6413414D01*
X16333901Y6413392D01*
X16290357Y6413399D01*
X16251852Y6413449D01*
X16218031Y6413560D01*
X16188539Y6413750D01*
X16163021Y6414036D01*
X16141122Y6414433D01*
X16122488Y6414960D01*
X16106765Y6415633D01*
X16093595Y6416468D01*
X16082625Y6417483D01*
X16073501Y6418697D01*
X16065866Y6420122D01*
X16059366Y6421779D01*
X16053647Y6423682D01*
X16048354Y6425851D01*
X16043130Y6428301D01*
X16037623Y6431047D01*
X16031476Y6434111D01*
X16009185Y6447345D01*
X15984586Y6467789D01*
X15963017Y6492234D01*
X15945488Y6519509D01*
X15933007Y6548443D01*
X15925435Y6571558D01*
X15925435Y6810202D01*
X15925443Y6853893D01*
X15925473Y6891800D01*
X15925534Y6924371D01*
X15925638Y6952056D01*
X15925794Y6975301D01*
X15926014Y6994560D01*
X15926309Y7010277D01*
X15926686Y7022905D01*
X15927158Y7032889D01*
X15927737Y7040682D01*
X15928430Y7046731D01*
X15929248Y7051484D01*
X15930203Y7055391D01*
X15931306Y7058902D01*
X15937191Y7074450D01*
X15953972Y7106915D01*
X15975299Y7135125D01*
X16001008Y7158912D01*
X16030929Y7178109D01*
X16064900Y7192553D01*
X16065484Y7192745D01*
X16068498Y7193619D01*
X16072064Y7194403D01*
X16076540Y7195101D01*
X16082281Y7195720D01*
X16089647Y7196269D01*
X16098993Y7196754D01*
X16110678Y7197182D01*
X16125057Y7197561D01*
X16142490Y7197896D01*
X16163332Y7198198D01*
X16187942Y7198469D01*
X16216676Y7198721D01*
X16249891Y7198958D01*
X16287946Y7199188D01*
X16331197Y7199419D01*
X16380002Y7199655D01*
X16434717Y7199907D01*
X16787296Y7201500D01*
X16788163Y7389543D01*
X16788286Y7422236D01*
X16788356Y7454516D01*
X16788366Y7484512D01*
X16788317Y7511655D01*
X16788216Y7535375D01*
X16788062Y7555104D01*
X16787860Y7570273D01*
X16787610Y7580311D01*
X16787316Y7584651D01*
X16785603Y7591717D01*
X16454242Y7590918D01*
X16122880Y7590121D01*
X16122036Y7508636D01*
X16121828Y7485794D01*
X16121756Y7465405D01*
X16121895Y7449550D01*
X16122298Y7437314D01*
X16123014Y7427786D01*
X16124090Y7420049D01*
X16125576Y7413189D01*
X16127521Y7406293D01*
X16131837Y7386719D01*
X16133088Y7371995D01*
X16133654Y7365339D01*
G37*
G36*
X4581991Y6860133D02*
G01*
X4598056Y6802369D01*
X4613437Y6747057D01*
X4628056Y6694472D01*
X4641835Y6644891D01*
X4654700Y6598588D01*
X4666573Y6555841D01*
X4677377Y6516926D01*
X4687037Y6482117D01*
X4695474Y6451691D01*
X4702614Y6425924D01*
X4708378Y6405092D01*
X4712690Y6389470D01*
X4715475Y6379334D01*
X4716654Y6374962D01*
X4716705Y6374758D01*
X4718868Y6359473D01*
X4716552Y6347626D01*
X4709534Y6338067D01*
X4708988Y6337566D01*
X4707135Y6336113D01*
X4704734Y6334925D01*
X4701213Y6333978D01*
X4696000Y6333252D01*
X4688524Y6332724D01*
X4678211Y6332373D01*
X4664490Y6332175D01*
X4646790Y6332111D01*
X4624537Y6332157D01*
X4597160Y6332294D01*
X4564088Y6332496D01*
X4425563Y6333372D01*
X4417461Y6340985D01*
X4416061Y6342302D01*
X4414112Y6344301D01*
X4412294Y6346701D01*
X4410449Y6350014D01*
X4408415Y6354756D01*
X4406034Y6361437D01*
X4403145Y6370574D01*
X4399588Y6382682D01*
X4395203Y6398272D01*
X4389831Y6417858D01*
X4383312Y6441957D01*
X4375485Y6471081D01*
X4366190Y6505744D01*
X4332580Y6631106D01*
X4097008Y6631909D01*
X3861435Y6632713D01*
X3858210Y6622507D01*
X3857342Y6619582D01*
X3854763Y6610413D01*
X3850951Y6596566D01*
X3846134Y6578893D01*
X3840544Y6558254D01*
X3834408Y6535503D01*
X3827959Y6511501D01*
X3821422Y6487103D01*
X3815032Y6463165D01*
X3809017Y6440546D01*
X3803606Y6420100D01*
X3799027Y6402686D01*
X3795514Y6389162D01*
X3793293Y6380381D01*
X3790067Y6368378D01*
X3786563Y6357287D01*
X3783636Y6349878D01*
X3781860Y6346457D01*
X3779509Y6342843D01*
X3776480Y6339878D01*
X3772214Y6337498D01*
X3766151Y6335638D01*
X3757732Y6334235D01*
X3746401Y6333226D01*
X3731595Y6332542D01*
X3712757Y6332122D01*
X3689329Y6331902D01*
X3660749Y6331819D01*
X3626461Y6331804D01*
X3624090Y6331804D01*
X3591926Y6331814D01*
X3565405Y6331859D01*
X3543939Y6331968D01*
X3526938Y6332166D01*
X3513819Y6332480D01*
X3503993Y6332936D01*
X3496873Y6333563D01*
X3491870Y6334386D01*
X3488401Y6335432D01*
X3485874Y6336728D01*
X3483706Y6338300D01*
X3479233Y6342547D01*
X3476217Y6349027D01*
X3475448Y6358999D01*
X3475713Y6360920D01*
X3477506Y6369026D01*
X3480978Y6383059D01*
X3486110Y6402950D01*
X3492885Y6428633D01*
X3501283Y6460040D01*
X3511286Y6497105D01*
X3522877Y6539758D01*
X3536034Y6587933D01*
X3550743Y6641562D01*
X3566982Y6700579D01*
X3584736Y6764917D01*
X3603984Y6834507D01*
X3614273Y6871628D01*
X3917992Y6871628D01*
X3918919Y6870768D01*
X3922518Y6870035D01*
X3929190Y6869423D01*
X3939335Y6868919D01*
X3953351Y6868517D01*
X3971637Y6868209D01*
X3994595Y6867985D01*
X4022623Y6867835D01*
X4056119Y6867752D01*
X4095484Y6867725D01*
X4274291Y6867725D01*
X4269957Y6882613D01*
X4269474Y6884339D01*
X4267348Y6892202D01*
X4263798Y6905480D01*
X4258942Y6923740D01*
X4252893Y6946543D01*
X4245767Y6973455D01*
X4237681Y7004041D01*
X4228748Y7037862D01*
X4219084Y7074486D01*
X4208806Y7113471D01*
X4198026Y7154389D01*
X4186862Y7196798D01*
X4185307Y7202706D01*
X4171777Y7254128D01*
X4159744Y7299857D01*
X4149116Y7340227D01*
X4139801Y7375573D01*
X4131705Y7406224D01*
X4124739Y7432515D01*
X4118808Y7454779D01*
X4113823Y7473349D01*
X4109691Y7488558D01*
X4106317Y7500737D01*
X4103613Y7510221D01*
X4101485Y7517344D01*
X4099840Y7522436D01*
X4098588Y7525830D01*
X4097636Y7527861D01*
X4096891Y7528862D01*
X4096262Y7529164D01*
X4095657Y7529102D01*
X4094982Y7529006D01*
X4094846Y7528904D01*
X4093192Y7524818D01*
X4090052Y7514929D01*
X4085492Y7499464D01*
X4079571Y7478651D01*
X4072354Y7452718D01*
X4063902Y7421889D01*
X4054278Y7386393D01*
X4043543Y7346458D01*
X4031761Y7302309D01*
X4018994Y7254175D01*
X4005303Y7202283D01*
X4004747Y7200172D01*
X3993172Y7156200D01*
X3982038Y7113920D01*
X3971448Y7073733D01*
X3961510Y7036032D01*
X3952326Y7001216D01*
X3944002Y6969682D01*
X3936644Y6941827D01*
X3930356Y6918049D01*
X3925243Y6898745D01*
X3921408Y6884311D01*
X3918958Y6875144D01*
X3917998Y6871644D01*
X3917992Y6871628D01*
X3614273Y6871628D01*
X3624709Y6909281D01*
X3646892Y6989174D01*
X3670514Y7074116D01*
X3865582Y7775030D01*
X3878533Y7788036D01*
X3882557Y7791991D01*
X3886603Y7795491D01*
X3891034Y7798452D01*
X3896339Y7800915D01*
X3903010Y7802923D01*
X3911538Y7804515D01*
X3922410Y7805735D01*
X3936119Y7806626D01*
X3953155Y7807227D01*
X3974008Y7807582D01*
X3999168Y7807731D01*
X4029124Y7807715D01*
X4064368Y7807579D01*
X4105391Y7807362D01*
X4285599Y7806370D01*
X4300402Y7797669D01*
X4312919Y7788099D01*
X4323076Y7775536D01*
X4323224Y7775259D01*
X4325262Y7769828D01*
X4328881Y7758586D01*
X4334085Y7741516D01*
X4340880Y7718601D01*
X4349269Y7689825D01*
X4359259Y7655169D01*
X4370851Y7614619D01*
X4384055Y7568156D01*
X4398872Y7515763D01*
X4415308Y7457424D01*
X4433368Y7393122D01*
X4453056Y7322840D01*
X4474377Y7246560D01*
X4497337Y7164267D01*
X4521940Y7075946D01*
X4530448Y7045377D01*
X4548110Y6981913D01*
X4565316Y6920073D01*
X4579879Y6867725D01*
X4581991Y6860133D01*
G37*
G36*
X10983784Y7807346D02*
G01*
X11015979Y7807053D01*
X11041985Y7806553D01*
X11061774Y7805845D01*
X11075325Y7804931D01*
X11126103Y7797910D01*
X11172874Y7786965D01*
X11215302Y7772015D01*
X11253742Y7752908D01*
X11288554Y7729492D01*
X11320093Y7701618D01*
X11325101Y7696482D01*
X11349980Y7667024D01*
X11370512Y7635063D01*
X11387070Y7599830D01*
X11400024Y7560555D01*
X11409749Y7516470D01*
X11410228Y7513674D01*
X11411017Y7508543D01*
X11411724Y7502944D01*
X11412353Y7496538D01*
X11412911Y7488984D01*
X11413398Y7479937D01*
X11413823Y7469060D01*
X11414188Y7456010D01*
X11414497Y7440446D01*
X11414757Y7422024D01*
X11414970Y7400408D01*
X11415142Y7375252D01*
X11415275Y7346219D01*
X11415376Y7312964D01*
X11415450Y7275147D01*
X11415499Y7232427D01*
X11415528Y7184463D01*
X11415543Y7130914D01*
X11415546Y7071439D01*
X11415535Y7013018D01*
X11415499Y6956344D01*
X11415433Y6905373D01*
X11415337Y6859816D01*
X11415207Y6819382D01*
X11415039Y6783778D01*
X11414831Y6752713D01*
X11414582Y6725896D01*
X11414287Y6703038D01*
X11413945Y6683845D01*
X11413551Y6668026D01*
X11413106Y6655290D01*
X11412602Y6645347D01*
X11412041Y6637905D01*
X11411417Y6632673D01*
X11408517Y6615671D01*
X11397961Y6571124D01*
X11383684Y6531132D01*
X11365432Y6495158D01*
X11342943Y6462661D01*
X11315963Y6433107D01*
X11299223Y6417922D01*
X11270818Y6396336D01*
X11240172Y6378195D01*
X11206535Y6363183D01*
X11169161Y6350988D01*
X11127299Y6341294D01*
X11080204Y6333784D01*
X11079600Y6333732D01*
X11073421Y6333536D01*
X11061669Y6333373D01*
X11044903Y6333244D01*
X11023679Y6333152D01*
X10998555Y6333095D01*
X10970090Y6333076D01*
X10938842Y6333097D01*
X10905366Y6333160D01*
X10870223Y6333264D01*
X10852516Y6333329D01*
X10813226Y6333504D01*
X10779506Y6333710D01*
X10750855Y6333958D01*
X10726780Y6334263D01*
X10706781Y6334636D01*
X10690363Y6335091D01*
X10677027Y6335640D01*
X10666277Y6336295D01*
X10657617Y6337070D01*
X10650546Y6337978D01*
X10644571Y6339029D01*
X10633186Y6341444D01*
X10583654Y6355003D01*
X10538907Y6372599D01*
X10498900Y6394272D01*
X10463589Y6420065D01*
X10432929Y6450020D01*
X10406875Y6484180D01*
X10385384Y6522585D01*
X10368410Y6565278D01*
X10355911Y6612301D01*
X10354353Y6620387D01*
X10352960Y6629647D01*
X10351892Y6639990D01*
X10351106Y6652283D01*
X10350565Y6667386D01*
X10350226Y6686165D01*
X10350050Y6709484D01*
X10349995Y6738207D01*
X10349994Y6746149D01*
X10350016Y6771961D01*
X10350112Y6792404D01*
X10350324Y6808189D01*
X10350696Y6820023D01*
X10351271Y6828616D01*
X10352093Y6834678D01*
X10353203Y6838918D01*
X10354645Y6842043D01*
X10356462Y6844764D01*
X10356988Y6845480D01*
X10360615Y6850184D01*
X10364326Y6854045D01*
X10368738Y6857145D01*
X10374472Y6859568D01*
X10382146Y6861398D01*
X10392376Y6862718D01*
X10405783Y6863611D01*
X10422985Y6864161D01*
X10444600Y6864451D01*
X10471245Y6864563D01*
X10503540Y6864582D01*
X10504177Y6864582D01*
X10539006Y6864674D01*
X10568103Y6864692D01*
X10591991Y6864266D01*
X10611191Y6863022D01*
X10626223Y6860593D01*
X10637607Y6856606D01*
X10645867Y6850689D01*
X10651522Y6842471D01*
X10655093Y6831583D01*
X10657102Y6817651D01*
X10658070Y6800308D01*
X10658519Y6779178D01*
X10658968Y6753893D01*
X10659499Y6731938D01*
X10660214Y6709471D01*
X10661128Y6691632D01*
X10662386Y6677508D01*
X10664141Y6666191D01*
X10666538Y6656767D01*
X10669728Y6648330D01*
X10673859Y6639966D01*
X10679080Y6630765D01*
X10683573Y6624332D01*
X10696808Y6611641D01*
X10714063Y6600709D01*
X10733830Y6592591D01*
X10736905Y6591711D01*
X10742294Y6590530D01*
X10748920Y6589571D01*
X10757412Y6588814D01*
X10768398Y6588235D01*
X10782507Y6587812D01*
X10800369Y6587524D01*
X10822612Y6587344D01*
X10849866Y6587254D01*
X10882759Y6587229D01*
X10883096Y6587229D01*
X10915250Y6587238D01*
X10941791Y6587283D01*
X10963369Y6587397D01*
X10980636Y6587610D01*
X10994239Y6587953D01*
X11004826Y6588456D01*
X11013051Y6589150D01*
X11019561Y6590067D01*
X11025007Y6591235D01*
X11030037Y6592688D01*
X11035301Y6594455D01*
X11037262Y6595150D01*
X11058715Y6605538D01*
X11075800Y6619739D01*
X11088799Y6638139D01*
X11097990Y6661126D01*
X11103652Y6689085D01*
X11103974Y6692256D01*
X11104529Y6701884D01*
X11105011Y6716330D01*
X11105421Y6735742D01*
X11105759Y6760261D01*
X11106026Y6790035D01*
X11106224Y6825205D01*
X11106353Y6865920D01*
X11106415Y6912323D01*
X11106409Y6964558D01*
X11106338Y7022773D01*
X11106201Y7087109D01*
X11105271Y7458491D01*
X11098255Y7479130D01*
X11092702Y7493402D01*
X11081937Y7512221D01*
X11068045Y7526765D01*
X11050038Y7537972D01*
X11026925Y7546781D01*
X11023776Y7547690D01*
X11018228Y7548988D01*
X11011750Y7550033D01*
X11003675Y7550851D01*
X10993336Y7551471D01*
X10980066Y7551917D01*
X10963197Y7552218D01*
X10942062Y7552400D01*
X10915994Y7552489D01*
X10884326Y7552513D01*
X10863202Y7552500D01*
X10832857Y7552396D01*
X10807710Y7552141D01*
X10787091Y7551676D01*
X10770336Y7550942D01*
X10756774Y7549881D01*
X10745740Y7548435D01*
X10736565Y7546548D01*
X10728581Y7544159D01*
X10721122Y7541211D01*
X10713520Y7537647D01*
X10700032Y7529353D01*
X10684950Y7515618D01*
X10674056Y7500116D01*
X10670042Y7491486D01*
X10666118Y7480194D01*
X10663160Y7467212D01*
X10661051Y7451631D01*
X10659676Y7432535D01*
X10658915Y7409008D01*
X10658652Y7380140D01*
X10658569Y7358729D01*
X10658343Y7340496D01*
X10657905Y7326763D01*
X10657193Y7316611D01*
X10656138Y7309117D01*
X10654674Y7303360D01*
X10652735Y7298417D01*
X10651401Y7295510D01*
X10648791Y7290462D01*
X10645761Y7286326D01*
X10641723Y7283011D01*
X10636093Y7280427D01*
X10628287Y7278482D01*
X10617721Y7277085D01*
X10603809Y7276146D01*
X10585967Y7275574D01*
X10563611Y7275278D01*
X10536155Y7275167D01*
X10503017Y7275150D01*
X10476305Y7275162D01*
X10450034Y7275227D01*
X10428864Y7275370D01*
X10412167Y7275620D01*
X10399309Y7276003D01*
X10389661Y7276547D01*
X10382590Y7277279D01*
X10377467Y7278227D01*
X10373658Y7279416D01*
X10370535Y7280876D01*
X10364556Y7284361D01*
X10359517Y7288377D01*
X10355649Y7293460D01*
X10352796Y7300357D01*
X10350806Y7309808D01*
X10349524Y7322556D01*
X10348801Y7339343D01*
X10348477Y7360914D01*
X10348405Y7388008D01*
X10348406Y7390913D01*
X10348601Y7423198D01*
X10349195Y7450390D01*
X10350276Y7473565D01*
X10351927Y7493801D01*
X10354233Y7512177D01*
X10357285Y7529771D01*
X10361166Y7547661D01*
X10372961Y7586928D01*
X10391036Y7627212D01*
X10414155Y7664142D01*
X10442009Y7697402D01*
X10474291Y7726674D01*
X10510688Y7751641D01*
X10550895Y7771986D01*
X10594601Y7787392D01*
X10601736Y7789402D01*
X10614066Y7792787D01*
X10625403Y7795668D01*
X10636354Y7798091D01*
X10647523Y7800100D01*
X10659515Y7801741D01*
X10672936Y7803059D01*
X10688390Y7804100D01*
X10706482Y7804907D01*
X10727817Y7805527D01*
X10753000Y7806005D01*
X10782635Y7806385D01*
X10817329Y7806714D01*
X10857686Y7807037D01*
X10900921Y7807308D01*
X10945423Y7807431D01*
X10983784Y7807346D01*
G37*
G36*
X12720407Y7497349D02*
G01*
X12720415Y7451245D01*
X12720403Y7400336D01*
X12720372Y7344377D01*
X12720325Y7283124D01*
X12720263Y7216334D01*
X12720188Y7143763D01*
X12720102Y7065171D01*
X12720031Y7002946D01*
X12719944Y6929160D01*
X12719857Y6861209D01*
X12719768Y6798849D01*
X12719676Y6741837D01*
X12719577Y6689928D01*
X12719470Y6642881D01*
X12719353Y6600452D01*
X12719224Y6562398D01*
X12719081Y6528477D01*
X12718920Y6498443D01*
X12718740Y6472057D01*
X12718538Y6449071D01*
X12718314Y6429246D01*
X12718063Y6412336D01*
X12717785Y6398100D01*
X12717477Y6386294D01*
X12717138Y6376674D01*
X12716763Y6368999D01*
X12716351Y6363023D01*
X12715902Y6358505D01*
X12715411Y6355200D01*
X12714877Y6352868D01*
X12714299Y6351262D01*
X12713671Y6350142D01*
X12713658Y6350123D01*
X12706731Y6342816D01*
X12698001Y6336894D01*
X12697757Y6336776D01*
X12694355Y6335519D01*
X12689555Y6334494D01*
X12682753Y6333679D01*
X12673337Y6333048D01*
X12660699Y6332582D01*
X12644230Y6332254D01*
X12623319Y6332043D01*
X12597359Y6331928D01*
X12565741Y6331880D01*
X12552559Y6331876D01*
X12521676Y6331906D01*
X12496250Y6332069D01*
X12475697Y6332454D01*
X12459426Y6333144D01*
X12446850Y6334225D01*
X12437383Y6335784D01*
X12430436Y6337906D01*
X12425421Y6340677D01*
X12421752Y6344183D01*
X12418839Y6348509D01*
X12416094Y6353743D01*
X12415910Y6354122D01*
X12414926Y6356564D01*
X12414073Y6359766D01*
X12413339Y6364150D01*
X12412715Y6370143D01*
X12412195Y6378164D01*
X12411767Y6388640D01*
X12411423Y6401995D01*
X12411153Y6418653D01*
X12410951Y6439033D01*
X12410806Y6463566D01*
X12410707Y6492669D01*
X12410647Y6526772D01*
X12410619Y6566294D01*
X12410610Y6611660D01*
X12410605Y6858609D01*
X12395122Y6874092D01*
X12218986Y6872427D01*
X12096965Y6623270D01*
X12080801Y6590261D01*
X12060869Y6549546D01*
X12043404Y6513869D01*
X12028232Y6482887D01*
X12015181Y6456262D01*
X12004078Y6433651D01*
X11994749Y6414715D01*
X11987024Y6399113D01*
X11980726Y6386506D01*
X11975685Y6376551D01*
X11971730Y6368908D01*
X11968684Y6363238D01*
X11966376Y6359200D01*
X11964633Y6356451D01*
X11963283Y6354655D01*
X11962152Y6353467D01*
X11961068Y6352548D01*
X11959858Y6351559D01*
X11958349Y6350158D01*
X11958055Y6349865D01*
X11953466Y6345650D01*
X11948528Y6342144D01*
X11942651Y6339282D01*
X11935241Y6337001D01*
X11925709Y6335233D01*
X11913459Y6333915D01*
X11897902Y6332982D01*
X11878444Y6332370D01*
X11854495Y6332012D01*
X11825461Y6331845D01*
X11790753Y6331804D01*
X11782638Y6331805D01*
X11751772Y6331849D01*
X11726436Y6331968D01*
X11706032Y6332184D01*
X11689962Y6332518D01*
X11677629Y6332993D01*
X11668436Y6333630D01*
X11661785Y6334450D01*
X11657076Y6335475D01*
X11653713Y6336725D01*
X11650734Y6338313D01*
X11641455Y6347131D01*
X11637434Y6359099D01*
X11638870Y6373726D01*
X11638914Y6373877D01*
X11641017Y6378903D01*
X11645750Y6389066D01*
X11652908Y6403946D01*
X11662283Y6423129D01*
X11673669Y6446197D01*
X11686858Y6472733D01*
X11701644Y6502323D01*
X11717819Y6534548D01*
X11735177Y6568992D01*
X11753509Y6605239D01*
X11772612Y6642872D01*
X11774782Y6647142D01*
X11793692Y6684386D01*
X11811746Y6720026D01*
X11828743Y6753665D01*
X11844485Y6784908D01*
X11858773Y6813351D01*
X11871407Y6838602D01*
X11882190Y6860259D01*
X11890919Y6877925D01*
X11897399Y6891203D01*
X11901426Y6899693D01*
X11902806Y6902997D01*
X11902778Y6903193D01*
X11899627Y6906463D01*
X11892267Y6911072D01*
X11882168Y6916086D01*
X11857724Y6928113D01*
X11819766Y6951999D01*
X11786398Y6980131D01*
X11757706Y7012411D01*
X11733773Y7048736D01*
X11714683Y7089006D01*
X11700521Y7133120D01*
X11699657Y7136574D01*
X11696416Y7150712D01*
X11693728Y7164945D01*
X11691553Y7179956D01*
X11689855Y7196434D01*
X11688592Y7215063D01*
X11687728Y7236528D01*
X11687223Y7261516D01*
X11687041Y7290712D01*
X11687139Y7324801D01*
X11687197Y7331563D01*
X11998478Y7331563D01*
X11998486Y7312647D01*
X11998545Y7283710D01*
X11998685Y7260029D01*
X11998930Y7240949D01*
X11999304Y7225825D01*
X11999833Y7214007D01*
X12000542Y7204847D01*
X12001455Y7197694D01*
X12002596Y7191902D01*
X12003990Y7186821D01*
X12007284Y7177706D01*
X12019316Y7156699D01*
X12036291Y7139394D01*
X12058000Y7125974D01*
X12084232Y7116624D01*
X12087752Y7115793D01*
X12094130Y7114628D01*
X12101885Y7113660D01*
X12111628Y7112866D01*
X12123970Y7112225D01*
X12139521Y7111711D01*
X12158896Y7111302D01*
X12182704Y7110974D01*
X12211557Y7110706D01*
X12246068Y7110471D01*
X12268262Y7110358D01*
X12296366Y7110270D01*
X12322208Y7110253D01*
X12345122Y7110303D01*
X12364437Y7110418D01*
X12379487Y7110594D01*
X12389606Y7110829D01*
X12394124Y7111119D01*
X12396688Y7111652D01*
X12399529Y7112445D01*
X12401955Y7113780D01*
X12403999Y7116097D01*
X12405692Y7119837D01*
X12407069Y7125441D01*
X12408161Y7133348D01*
X12409002Y7144001D01*
X12409623Y7157836D01*
X12410061Y7175298D01*
X12410344Y7196826D01*
X12410507Y7222860D01*
X12410583Y7253840D01*
X12410605Y7290207D01*
X12410605Y7538694D01*
X12402694Y7546605D01*
X12394784Y7554516D01*
X12246776Y7553372D01*
X12233602Y7553270D01*
X12201304Y7552999D01*
X12174452Y7552725D01*
X12152444Y7552421D01*
X12134676Y7552055D01*
X12120546Y7551602D01*
X12109451Y7551031D01*
X12100788Y7550316D01*
X12093954Y7549426D01*
X12088346Y7548335D01*
X12083361Y7547013D01*
X12078397Y7545431D01*
X12065844Y7540784D01*
X12044154Y7529524D01*
X12027197Y7515267D01*
X12014119Y7497195D01*
X12004064Y7474490D01*
X12003019Y7471242D01*
X12001799Y7466269D01*
X12000816Y7460154D01*
X12000046Y7452257D01*
X11999463Y7441938D01*
X11999041Y7428553D01*
X11998758Y7411464D01*
X11998586Y7390031D01*
X11998501Y7363610D01*
X11998478Y7331563D01*
X11687197Y7331563D01*
X11687481Y7364470D01*
X11687604Y7376046D01*
X11687969Y7407220D01*
X11688341Y7433050D01*
X11688757Y7454228D01*
X11689252Y7471451D01*
X11689860Y7485411D01*
X11690616Y7496802D01*
X11691555Y7506322D01*
X11692712Y7514660D01*
X11694123Y7522513D01*
X11695820Y7530575D01*
X11704980Y7564999D01*
X11721641Y7608340D01*
X11743114Y7647730D01*
X11769335Y7683081D01*
X11800235Y7714308D01*
X11835748Y7741323D01*
X11875805Y7764040D01*
X11893961Y7772326D01*
X11924296Y7783751D01*
X11956932Y7792963D01*
X11993811Y7800566D01*
X11996663Y7801057D01*
X12002317Y7801930D01*
X12008434Y7802704D01*
X12015402Y7803381D01*
X12023607Y7803971D01*
X12033435Y7804478D01*
X12045277Y7804909D01*
X12059516Y7805269D01*
X12076541Y7805566D01*
X12096738Y7805805D01*
X12120494Y7805992D01*
X12148196Y7806132D01*
X12180232Y7806235D01*
X12216988Y7806303D01*
X12258850Y7806345D01*
X12306208Y7806364D01*
X12359445Y7806370D01*
X12401495Y7806369D01*
X12449686Y7806363D01*
X12492253Y7806344D01*
X12529556Y7806305D01*
X12561957Y7806240D01*
X12589814Y7806142D01*
X12613490Y7806004D01*
X12633344Y7805818D01*
X12649739Y7805580D01*
X12663033Y7805280D01*
X12673588Y7804912D01*
X12681764Y7804471D01*
X12687922Y7803949D01*
X12692422Y7803338D01*
X12695624Y7802633D01*
X12697891Y7801826D01*
X12699582Y7800911D01*
X12701056Y7799879D01*
X12701558Y7799502D01*
X12709185Y7791819D01*
X12715401Y7782642D01*
X12715739Y7781918D01*
X12716324Y7780234D01*
X12716861Y7777887D01*
X12717354Y7774631D01*
X12717803Y7770225D01*
X12718210Y7764424D01*
X12718577Y7756985D01*
X12718906Y7747665D01*
X12719197Y7736219D01*
X12719452Y7722404D01*
X12719673Y7705976D01*
X12719863Y7686691D01*
X12720021Y7664306D01*
X12720151Y7638577D01*
X12720252Y7609261D01*
X12720328Y7576112D01*
X12720379Y7538891D01*
X12720379Y7538694D01*
X12720407Y7497349D01*
G37*
G36*
X8579480Y7806367D02*
G01*
X8607046Y7806334D01*
X8629372Y7806241D01*
X8647067Y7806062D01*
X8660745Y7805765D01*
X8671015Y7805322D01*
X8678488Y7804702D01*
X8683773Y7803877D01*
X8687482Y7802818D01*
X8690228Y7801496D01*
X8692617Y7799879D01*
X8693114Y7799504D01*
X8700739Y7791821D01*
X8706946Y7782642D01*
X8707211Y7782084D01*
X8707802Y7780443D01*
X8708345Y7778147D01*
X8708846Y7774955D01*
X8709303Y7770620D01*
X8709720Y7764900D01*
X8710098Y7757550D01*
X8710441Y7748327D01*
X8710747Y7736984D01*
X8711020Y7723280D01*
X8711263Y7706970D01*
X8711476Y7687810D01*
X8711662Y7665553D01*
X8711822Y7639960D01*
X8711959Y7610783D01*
X8712073Y7577779D01*
X8712166Y7540705D01*
X8712243Y7499314D01*
X8712304Y7453365D01*
X8712350Y7402612D01*
X8712383Y7346812D01*
X8712406Y7285720D01*
X8712421Y7219092D01*
X8712428Y7146685D01*
X8712430Y7068255D01*
X8712430Y6998645D01*
X8712426Y6925644D01*
X8712415Y6858450D01*
X8712396Y6796818D01*
X8712369Y6740504D01*
X8712328Y6689261D01*
X8712274Y6642847D01*
X8712205Y6601015D01*
X8712117Y6563523D01*
X8712010Y6530123D01*
X8711880Y6500573D01*
X8711729Y6474627D01*
X8711550Y6452040D01*
X8711346Y6432568D01*
X8711110Y6415965D01*
X8710844Y6401988D01*
X8710544Y6390391D01*
X8710208Y6380929D01*
X8709837Y6373359D01*
X8709425Y6367433D01*
X8708972Y6362910D01*
X8708476Y6359543D01*
X8707935Y6357089D01*
X8707346Y6355301D01*
X8706708Y6353936D01*
X8706355Y6353302D01*
X8699208Y6344395D01*
X8690303Y6337531D01*
X8687687Y6336276D01*
X8684025Y6335047D01*
X8679144Y6334064D01*
X8672412Y6333301D01*
X8663199Y6332729D01*
X8650873Y6332325D01*
X8634803Y6332056D01*
X8614359Y6331898D01*
X8588909Y6331823D01*
X8557823Y6331804D01*
X8552675Y6331804D01*
X8520766Y6331836D01*
X8494437Y6331970D01*
X8473085Y6332285D01*
X8456113Y6332849D01*
X8442916Y6333741D01*
X8432895Y6335035D01*
X8425449Y6336802D01*
X8419979Y6339117D01*
X8415880Y6342055D01*
X8412555Y6345690D01*
X8409400Y6350095D01*
X8408866Y6351011D01*
X8408276Y6352507D01*
X8407733Y6354677D01*
X8407233Y6357764D01*
X8406775Y6362011D01*
X8406355Y6367661D01*
X8405974Y6374958D01*
X8405626Y6384146D01*
X8405312Y6395466D01*
X8405028Y6409162D01*
X8404773Y6425478D01*
X8404543Y6444657D01*
X8404338Y6466943D01*
X8404153Y6492577D01*
X8403989Y6521803D01*
X8403842Y6554866D01*
X8403711Y6592007D01*
X8403592Y6633471D01*
X8403484Y6679500D01*
X8403384Y6730338D01*
X8403291Y6786228D01*
X8403203Y6847413D01*
X8403115Y6914137D01*
X8403028Y6986641D01*
X8402939Y7065171D01*
X8402890Y7108610D01*
X8402810Y7183903D01*
X8402742Y7253304D01*
X8402688Y7317057D01*
X8402650Y7375405D01*
X8402630Y7428593D01*
X8402626Y7476862D01*
X8402646Y7520457D01*
X8402687Y7559623D01*
X8402751Y7594603D01*
X8402840Y7625640D01*
X8402956Y7652978D01*
X8403102Y7676861D01*
X8403277Y7697533D01*
X8403483Y7715235D01*
X8403722Y7730215D01*
X8403997Y7742713D01*
X8404307Y7752974D01*
X8404657Y7761242D01*
X8405046Y7767762D01*
X8405475Y7772775D01*
X8405948Y7776526D01*
X8406465Y7779258D01*
X8407029Y7781215D01*
X8407639Y7782642D01*
X8407959Y7783250D01*
X8414384Y7792455D01*
X8421982Y7799879D01*
X8423607Y7801017D01*
X8426174Y7802430D01*
X8429513Y7803569D01*
X8434234Y7804465D01*
X8440949Y7805146D01*
X8450269Y7805642D01*
X8462802Y7805983D01*
X8479162Y7806196D01*
X8499958Y7806312D01*
X8525800Y7806360D01*
X8557300Y7806370D01*
X8579480Y7806367D01*
G37*
G36*
X2944551Y7807929D02*
G01*
X3002748Y7807917D01*
X3055264Y7807895D01*
X3102395Y7807855D01*
X3144443Y7807799D01*
X3181705Y7807721D01*
X3214484Y7807617D01*
X3243076Y7807485D01*
X3267782Y7807323D01*
X3288902Y7807122D01*
X3306733Y7806885D01*
X3321577Y7806605D01*
X3333732Y7806280D01*
X3343497Y7805906D01*
X3351171Y7805479D01*
X3357054Y7804998D01*
X3361446Y7804458D01*
X3364647Y7803854D01*
X3366954Y7803185D01*
X3368668Y7802447D01*
X3369272Y7802132D01*
X3378479Y7795714D01*
X3385905Y7788117D01*
X3386581Y7787175D01*
X3388251Y7784416D01*
X3389567Y7781008D01*
X3390571Y7776250D01*
X3391304Y7769439D01*
X3391810Y7759870D01*
X3392130Y7746845D01*
X3392306Y7729658D01*
X3392381Y7707609D01*
X3392396Y7679993D01*
X3392379Y7656791D01*
X3392296Y7633594D01*
X3392108Y7615401D01*
X3391778Y7601516D01*
X3391270Y7591243D01*
X3390547Y7583886D01*
X3389573Y7578751D01*
X3388312Y7575143D01*
X3386725Y7572367D01*
X3385665Y7570826D01*
X3382769Y7567065D01*
X3379454Y7563912D01*
X3375189Y7561317D01*
X3369441Y7559223D01*
X3361678Y7557577D01*
X3351370Y7556326D01*
X3337984Y7555415D01*
X3320989Y7554791D01*
X3299853Y7554398D01*
X3274044Y7554186D01*
X3243030Y7554097D01*
X3206279Y7554079D01*
X3180804Y7554076D01*
X3150440Y7554052D01*
X3125394Y7553982D01*
X3105111Y7553844D01*
X3089042Y7553617D01*
X3076633Y7553276D01*
X3067332Y7552801D01*
X3060585Y7552169D01*
X3055841Y7551355D01*
X3052547Y7550337D01*
X3050150Y7549094D01*
X3048098Y7547604D01*
X3039865Y7541127D01*
X3039057Y6950799D01*
X3038249Y6360470D01*
X3031758Y6351622D01*
X3031384Y6351125D01*
X3023700Y6343501D01*
X3014521Y6337293D01*
X3012741Y6336460D01*
X3009083Y6335203D01*
X3004214Y6334195D01*
X2997501Y6333404D01*
X2988312Y6332809D01*
X2976017Y6332381D01*
X2959980Y6332093D01*
X2939573Y6331920D01*
X2914161Y6331836D01*
X2883114Y6331814D01*
X2872820Y6331814D01*
X2841656Y6331858D01*
X2815994Y6332027D01*
X2795243Y6332413D01*
X2778812Y6333099D01*
X2766108Y6334177D01*
X2756541Y6335732D01*
X2749517Y6337853D01*
X2744446Y6340627D01*
X2740737Y6344141D01*
X2737798Y6348484D01*
X2735035Y6353743D01*
X2734865Y6354096D01*
X2734212Y6355799D01*
X2733616Y6358135D01*
X2733072Y6361375D01*
X2732579Y6365786D01*
X2732133Y6371634D01*
X2731734Y6379190D01*
X2731378Y6388723D01*
X2731062Y6400498D01*
X2730784Y6414787D01*
X2730544Y6431857D01*
X2730336Y6451974D01*
X2730160Y6475408D01*
X2730011Y6502429D01*
X2729889Y6533302D01*
X2729790Y6568298D01*
X2729712Y6607683D01*
X2729654Y6651728D01*
X2729610Y6700698D01*
X2729581Y6754864D01*
X2729562Y6814493D01*
X2729554Y6879854D01*
X2729550Y6951214D01*
X2729550Y6960542D01*
X2729548Y7030973D01*
X2729541Y7095436D01*
X2729527Y7154200D01*
X2729504Y7207534D01*
X2729467Y7255704D01*
X2729415Y7298981D01*
X2729345Y7337627D01*
X2729253Y7371916D01*
X2729139Y7402111D01*
X2728998Y7428483D01*
X2728829Y7451297D01*
X2728628Y7470822D01*
X2728392Y7487326D01*
X2728120Y7501077D01*
X2727808Y7512342D01*
X2727454Y7521390D01*
X2727053Y7528487D01*
X2726606Y7533902D01*
X2726108Y7537903D01*
X2725557Y7540756D01*
X2724950Y7542731D01*
X2724285Y7544094D01*
X2723557Y7545113D01*
X2717569Y7552513D01*
X2558236Y7554079D01*
X2545793Y7554204D01*
X2511845Y7554560D01*
X2483459Y7554908D01*
X2460104Y7555265D01*
X2441247Y7555659D01*
X2426357Y7556109D01*
X2414903Y7556641D01*
X2406352Y7557277D01*
X2400174Y7558039D01*
X2395836Y7558951D01*
X2392807Y7560035D01*
X2390556Y7561314D01*
X2387713Y7563318D01*
X2383340Y7567048D01*
X2379879Y7571496D01*
X2377222Y7577357D01*
X2375266Y7585321D01*
X2373903Y7596086D01*
X2373027Y7610343D01*
X2372533Y7628786D01*
X2372314Y7652110D01*
X2372265Y7681008D01*
X2372300Y7708945D01*
X2372495Y7732672D01*
X2372981Y7751457D01*
X2373887Y7765979D01*
X2375345Y7776914D01*
X2377486Y7784942D01*
X2380439Y7790739D01*
X2384337Y7794985D01*
X2389308Y7798355D01*
X2395484Y7801531D01*
X2395814Y7801691D01*
X2397668Y7802535D01*
X2399742Y7803301D01*
X2402341Y7803991D01*
X2405765Y7804608D01*
X2410318Y7805158D01*
X2416301Y7805643D01*
X2424018Y7806069D01*
X2433769Y7806438D01*
X2445858Y7806755D01*
X2460588Y7807023D01*
X2478260Y7807248D01*
X2499176Y7807433D01*
X2523639Y7807580D01*
X2551952Y7807695D01*
X2584416Y7807782D01*
X2621334Y7807846D01*
X2663010Y7807888D01*
X2709744Y7807913D01*
X2761839Y7807928D01*
X2819596Y7807932D01*
X2883319Y7807932D01*
X2944551Y7807929D01*
G37*
G36*
X14268262Y7807346D02*
G01*
X14300457Y7807053D01*
X14326463Y7806553D01*
X14346252Y7805845D01*
X14359803Y7804931D01*
X14410581Y7797910D01*
X14457352Y7786965D01*
X14499780Y7772015D01*
X14538220Y7752908D01*
X14573032Y7729492D01*
X14604571Y7701618D01*
X14609578Y7696482D01*
X14634458Y7667024D01*
X14654990Y7635063D01*
X14671548Y7599830D01*
X14684502Y7560555D01*
X14694227Y7516470D01*
X14694707Y7513674D01*
X14695496Y7508543D01*
X14696202Y7502944D01*
X14696831Y7496538D01*
X14697389Y7488984D01*
X14697877Y7479937D01*
X14698301Y7469060D01*
X14698666Y7456010D01*
X14698976Y7440446D01*
X14699235Y7422024D01*
X14699448Y7400408D01*
X14699620Y7375252D01*
X14699753Y7346219D01*
X14699855Y7312964D01*
X14699928Y7275147D01*
X14699976Y7232427D01*
X14700006Y7184463D01*
X14700020Y7130914D01*
X14700024Y7071439D01*
X14700013Y7013018D01*
X14699977Y6956344D01*
X14699912Y6905373D01*
X14699815Y6859816D01*
X14699684Y6819382D01*
X14699517Y6783778D01*
X14699309Y6752713D01*
X14699060Y6725896D01*
X14698765Y6703038D01*
X14698423Y6683845D01*
X14698029Y6668026D01*
X14697582Y6655290D01*
X14697080Y6645347D01*
X14696518Y6637905D01*
X14695895Y6632673D01*
X14692995Y6615671D01*
X14682439Y6571124D01*
X14668163Y6531132D01*
X14649908Y6495158D01*
X14627421Y6462661D01*
X14600441Y6433107D01*
X14583700Y6417922D01*
X14555296Y6396336D01*
X14524649Y6378195D01*
X14491013Y6363183D01*
X14453639Y6350988D01*
X14411777Y6341294D01*
X14364682Y6333784D01*
X14364079Y6333732D01*
X14357899Y6333536D01*
X14346147Y6333373D01*
X14329380Y6333244D01*
X14308156Y6333152D01*
X14283033Y6333095D01*
X14254568Y6333076D01*
X14223320Y6333097D01*
X14189844Y6333160D01*
X14154700Y6333264D01*
X14136994Y6333329D01*
X14097704Y6333504D01*
X14063982Y6333710D01*
X14035333Y6333958D01*
X14011257Y6334263D01*
X13991259Y6334636D01*
X13974841Y6335091D01*
X13961505Y6335640D01*
X13950755Y6336295D01*
X13942094Y6337070D01*
X13935025Y6337978D01*
X13929049Y6339029D01*
X13917664Y6341444D01*
X13868132Y6355003D01*
X13823385Y6372599D01*
X13783377Y6394272D01*
X13748067Y6420065D01*
X13717406Y6450020D01*
X13691353Y6484180D01*
X13669861Y6522585D01*
X13652889Y6565278D01*
X13640389Y6612301D01*
X13638831Y6620387D01*
X13637438Y6629647D01*
X13636368Y6639990D01*
X13635584Y6652283D01*
X13635043Y6667386D01*
X13634704Y6686165D01*
X13634528Y6709484D01*
X13634472Y6738207D01*
X13634472Y6746149D01*
X13634494Y6771961D01*
X13634590Y6792404D01*
X13634802Y6808189D01*
X13635174Y6820023D01*
X13635749Y6828616D01*
X13636571Y6834678D01*
X13637681Y6838918D01*
X13639123Y6842043D01*
X13640940Y6844764D01*
X13641466Y6845480D01*
X13645092Y6850184D01*
X13648803Y6854045D01*
X13653216Y6857145D01*
X13658949Y6859568D01*
X13666623Y6861398D01*
X13676854Y6862718D01*
X13690261Y6863611D01*
X13707462Y6864161D01*
X13729076Y6864451D01*
X13755723Y6864563D01*
X13788018Y6864582D01*
X13788655Y6864582D01*
X13823483Y6864674D01*
X13852581Y6864692D01*
X13876469Y6864266D01*
X13895669Y6863022D01*
X13910700Y6860593D01*
X13922085Y6856606D01*
X13930344Y6850689D01*
X13936000Y6842471D01*
X13939571Y6831583D01*
X13941580Y6817651D01*
X13942548Y6800308D01*
X13942996Y6779178D01*
X13943444Y6753893D01*
X13943977Y6731938D01*
X13944692Y6709471D01*
X13945605Y6691632D01*
X13946864Y6677508D01*
X13948619Y6666191D01*
X13951016Y6656767D01*
X13954206Y6648330D01*
X13958337Y6639966D01*
X13963558Y6630765D01*
X13968051Y6624332D01*
X13981284Y6611641D01*
X13998541Y6600709D01*
X14018308Y6592591D01*
X14021383Y6591711D01*
X14026772Y6590530D01*
X14033398Y6589571D01*
X14041890Y6588814D01*
X14052876Y6588235D01*
X14066985Y6587812D01*
X14084847Y6587524D01*
X14107090Y6587344D01*
X14134344Y6587254D01*
X14167237Y6587229D01*
X14167575Y6587229D01*
X14199728Y6587238D01*
X14226269Y6587283D01*
X14247848Y6587397D01*
X14265114Y6587610D01*
X14278716Y6587953D01*
X14289305Y6588456D01*
X14297530Y6589150D01*
X14304039Y6590067D01*
X14309485Y6591235D01*
X14314514Y6592688D01*
X14319779Y6594455D01*
X14321740Y6595150D01*
X14343193Y6605538D01*
X14360278Y6619739D01*
X14373276Y6638139D01*
X14382468Y6661126D01*
X14388130Y6689085D01*
X14388452Y6692256D01*
X14389006Y6701884D01*
X14389489Y6716330D01*
X14389899Y6735742D01*
X14390237Y6760261D01*
X14390504Y6790035D01*
X14390702Y6825205D01*
X14390832Y6865920D01*
X14390892Y6912323D01*
X14390887Y6964558D01*
X14390814Y7022773D01*
X14390678Y7087109D01*
X14389748Y7458491D01*
X14382733Y7479130D01*
X14377179Y7493402D01*
X14366415Y7512221D01*
X14352523Y7526765D01*
X14334516Y7537972D01*
X14311403Y7546781D01*
X14308254Y7547690D01*
X14302705Y7548988D01*
X14296228Y7550033D01*
X14288152Y7550851D01*
X14277814Y7551471D01*
X14264543Y7551917D01*
X14247675Y7552218D01*
X14226540Y7552400D01*
X14200473Y7552489D01*
X14168804Y7552513D01*
X14147679Y7552500D01*
X14117335Y7552396D01*
X14092186Y7552141D01*
X14071569Y7551676D01*
X14054813Y7550942D01*
X14041252Y7549881D01*
X14030217Y7548435D01*
X14021043Y7546548D01*
X14013059Y7544159D01*
X14005600Y7541211D01*
X13997999Y7537647D01*
X13984510Y7529353D01*
X13969427Y7515618D01*
X13958535Y7500116D01*
X13954519Y7491486D01*
X13950594Y7480194D01*
X13947638Y7467212D01*
X13945530Y7451631D01*
X13944153Y7432535D01*
X13943393Y7409008D01*
X13943130Y7380140D01*
X13943048Y7358729D01*
X13942820Y7340496D01*
X13942384Y7326763D01*
X13941671Y7316611D01*
X13940616Y7309117D01*
X13939153Y7303360D01*
X13937214Y7298417D01*
X13935879Y7295510D01*
X13933270Y7290462D01*
X13930239Y7286326D01*
X13926201Y7283011D01*
X13920571Y7280427D01*
X13912765Y7278482D01*
X13902199Y7277085D01*
X13888286Y7276146D01*
X13870444Y7275574D01*
X13848089Y7275278D01*
X13820634Y7275167D01*
X13787495Y7275150D01*
X13760783Y7275162D01*
X13734510Y7275227D01*
X13713342Y7275370D01*
X13696644Y7275620D01*
X13683787Y7276003D01*
X13674138Y7276547D01*
X13667067Y7277279D01*
X13661944Y7278227D01*
X13658136Y7279416D01*
X13655013Y7280876D01*
X13649034Y7284361D01*
X13643995Y7288377D01*
X13640126Y7293460D01*
X13637274Y7300357D01*
X13635284Y7309808D01*
X13634003Y7322556D01*
X13633278Y7339343D01*
X13632955Y7360914D01*
X13632882Y7388008D01*
X13632884Y7390913D01*
X13633079Y7423198D01*
X13633674Y7450390D01*
X13634754Y7473565D01*
X13636404Y7493801D01*
X13638711Y7512177D01*
X13641763Y7529771D01*
X13645644Y7547661D01*
X13657439Y7586928D01*
X13675514Y7627212D01*
X13698633Y7664142D01*
X13726487Y7697402D01*
X13758768Y7726674D01*
X13795165Y7751641D01*
X13835373Y7771986D01*
X13879080Y7787392D01*
X13886214Y7789402D01*
X13898542Y7792787D01*
X13909881Y7795668D01*
X13920833Y7798091D01*
X13932001Y7800100D01*
X13943994Y7801741D01*
X13957414Y7803059D01*
X13972867Y7804100D01*
X13990960Y7804907D01*
X14012294Y7805527D01*
X14037477Y7806005D01*
X14067113Y7806385D01*
X14101807Y7806714D01*
X14142165Y7807037D01*
X14185399Y7807308D01*
X14229902Y7807431D01*
X14268262Y7807346D01*
G37*
G36*
X17540604Y6653257D02*
G01*
X17540558Y6590766D01*
X17540485Y6533771D01*
X17540387Y6482155D01*
X17540262Y6435801D01*
X17540110Y6394593D01*
X17539930Y6358414D01*
X17539723Y6327149D01*
X17539487Y6300681D01*
X17539223Y6278893D01*
X17538931Y6261669D01*
X17538610Y6248892D01*
X17538259Y6240447D01*
X17537879Y6236215D01*
X17530580Y6205706D01*
X17515782Y6166375D01*
X17495642Y6129441D01*
X17470542Y6095243D01*
X17440860Y6064123D01*
X17406978Y6036420D01*
X17369273Y6012475D01*
X17328128Y5992630D01*
X17283921Y5977224D01*
X17237032Y5966599D01*
X17236646Y5966537D01*
X17232466Y5966093D01*
X17225884Y5965679D01*
X17216693Y5965296D01*
X17204694Y5964942D01*
X17189680Y5964617D01*
X17171447Y5964317D01*
X17149795Y5964045D01*
X17124518Y5963796D01*
X17095415Y5963571D01*
X17062280Y5963368D01*
X17024911Y5963187D01*
X16983104Y5963025D01*
X16936657Y5962883D01*
X16885365Y5962758D01*
X16829025Y5962650D01*
X16767434Y5962557D01*
X16700388Y5962479D01*
X16627685Y5962414D01*
X16549120Y5962363D01*
X16464490Y5962321D01*
X16459151Y5962319D01*
X16377044Y5962280D01*
X16300942Y5962243D01*
X16230607Y5962210D01*
X16165791Y5962188D01*
X16106249Y5962183D01*
X16051737Y5962202D01*
X16002012Y5962249D01*
X15956827Y5962331D01*
X15915940Y5962453D01*
X15879106Y5962621D01*
X15846079Y5962841D01*
X15816617Y5963118D01*
X15790472Y5963459D01*
X15767403Y5963871D01*
X15747163Y5964357D01*
X15729510Y5964924D01*
X15714198Y5965577D01*
X15700981Y5966324D01*
X15689617Y5967169D01*
X15679861Y5968118D01*
X15671470Y5969177D01*
X15664195Y5970353D01*
X15657794Y5971649D01*
X15652025Y5973073D01*
X15646640Y5974632D01*
X15641397Y5976329D01*
X15636050Y5978171D01*
X15630354Y5980164D01*
X15624065Y5982313D01*
X15618912Y5984071D01*
X15573081Y6002947D01*
X15531581Y6026166D01*
X15494544Y6053618D01*
X15462103Y6085190D01*
X15434390Y6120772D01*
X15411540Y6160249D01*
X15407682Y6168101D01*
X15402504Y6178897D01*
X15398122Y6188791D01*
X15394464Y6198380D01*
X15391463Y6208262D01*
X15389048Y6219033D01*
X15387149Y6231294D01*
X15385695Y6245640D01*
X15384617Y6262668D01*
X15383845Y6282978D01*
X15383309Y6307164D01*
X15382938Y6335827D01*
X15382663Y6369562D01*
X15382415Y6408967D01*
X15381380Y6578584D01*
X15388580Y6580513D01*
X15390030Y6580755D01*
X15397504Y6581299D01*
X15409806Y6581768D01*
X15425919Y6582140D01*
X15444827Y6582388D01*
X15465514Y6582486D01*
X15535247Y6582527D01*
X15535272Y6652261D01*
X15535298Y6721993D01*
X15572881Y6741792D01*
X15576689Y6743810D01*
X15589940Y6751044D01*
X15600664Y6757223D01*
X15607844Y6761746D01*
X15610464Y6764011D01*
X15609972Y6764427D01*
X15604959Y6767111D01*
X15594965Y6771983D01*
X15580517Y6778797D01*
X15562147Y6787309D01*
X15540383Y6797275D01*
X15515755Y6808449D01*
X15488795Y6820588D01*
X15460030Y6833447D01*
X15447826Y6838890D01*
X15419753Y6851463D01*
X15393705Y6863201D01*
X15370211Y6873861D01*
X15349803Y6883200D01*
X15333006Y6890975D01*
X15320354Y6896941D01*
X15312373Y6900859D01*
X15310749Y6901808D01*
X15494605Y6901808D01*
X15494730Y6901667D01*
X15498638Y6899536D01*
X15507619Y6895169D01*
X15521130Y6888817D01*
X15538631Y6880727D01*
X15559578Y6871152D01*
X15583430Y6860338D01*
X15609642Y6848535D01*
X15637675Y6835993D01*
X15643547Y6833371D01*
X15671308Y6820917D01*
X15697172Y6809212D01*
X15720591Y6798513D01*
X15741016Y6789072D01*
X15757902Y6781147D01*
X15770697Y6774991D01*
X15778856Y6770858D01*
X15781828Y6769003D01*
X15780576Y6767718D01*
X15774488Y6763729D01*
X15763919Y6757498D01*
X15749508Y6749383D01*
X15731890Y6739738D01*
X15711703Y6728922D01*
X15689585Y6717292D01*
X15596360Y6668713D01*
X15595489Y6625621D01*
X15594617Y6582527D01*
X15670705Y6582480D01*
X15685668Y6582423D01*
X15705743Y6582186D01*
X15723193Y6581794D01*
X15737105Y6581272D01*
X15746572Y6580654D01*
X15750681Y6579964D01*
X15751227Y6579199D01*
X15752119Y6575517D01*
X15752878Y6568530D01*
X15753516Y6557815D01*
X15754049Y6542948D01*
X15754488Y6523505D01*
X15754846Y6499065D01*
X15755140Y6469202D01*
X15755382Y6433495D01*
X15756196Y6289495D01*
X16460669Y6288704D01*
X16463126Y6288702D01*
X16544013Y6288617D01*
X16618846Y6288553D01*
X16687830Y6288509D01*
X16751176Y6288487D01*
X16809086Y6288487D01*
X16861771Y6288513D01*
X16909437Y6288561D01*
X16952292Y6288635D01*
X16990541Y6288735D01*
X17024394Y6288863D01*
X17054055Y6289019D01*
X17079734Y6289204D01*
X17101637Y6289418D01*
X17119970Y6289664D01*
X17134943Y6289942D01*
X17146761Y6290252D01*
X17155631Y6290595D01*
X17161763Y6290973D01*
X17165360Y6291388D01*
X17166631Y6291838D01*
X17166716Y6293388D01*
X17166837Y6300776D01*
X17166950Y6313995D01*
X17167053Y6332787D01*
X17167146Y6356885D01*
X17167230Y6386030D01*
X17167302Y6419955D01*
X17167366Y6458399D01*
X17167419Y6501100D01*
X17167461Y6547794D01*
X17167492Y6598217D01*
X17167512Y6652108D01*
X17167520Y6709204D01*
X17167518Y6769241D01*
X17167503Y6831957D01*
X17167475Y6897088D01*
X17167435Y6964371D01*
X17167384Y7033545D01*
X17167320Y7104344D01*
X17166516Y7912927D01*
X15756196Y7912927D01*
X15755382Y7766411D01*
X15754568Y7619895D01*
X15676248Y7619895D01*
X15658870Y7619875D01*
X15639110Y7619800D01*
X15622224Y7619679D01*
X15609061Y7619517D01*
X15600470Y7619325D01*
X15597299Y7619111D01*
X15597201Y7618402D01*
X15596888Y7612693D01*
X15596476Y7602030D01*
X15595996Y7587317D01*
X15595476Y7569464D01*
X15594948Y7549378D01*
X15593227Y7480429D01*
X15546999Y7461791D01*
X15536948Y7457694D01*
X15522604Y7451684D01*
X15511159Y7446681D01*
X15503589Y7443115D01*
X15500873Y7441419D01*
X15501033Y7441268D01*
X15505093Y7439131D01*
X15514215Y7434756D01*
X15527854Y7428393D01*
X15545471Y7420290D01*
X15566524Y7410694D01*
X15590470Y7399856D01*
X15616769Y7388021D01*
X15644880Y7375439D01*
X15651916Y7372295D01*
X15679530Y7359877D01*
X15705126Y7348249D01*
X15728173Y7337660D01*
X15748141Y7328361D01*
X15764498Y7320597D01*
X15776713Y7314619D01*
X15784255Y7310677D01*
X15786596Y7309017D01*
X15785202Y7308209D01*
X15778745Y7304997D01*
X15767689Y7299708D01*
X15752722Y7292657D01*
X15734529Y7284160D01*
X15713796Y7274535D01*
X15691210Y7264097D01*
X15667457Y7253162D01*
X15643222Y7242047D01*
X15619190Y7231068D01*
X15596050Y7220540D01*
X15574487Y7210779D01*
X15555186Y7202105D01*
X15538835Y7194829D01*
X15532298Y7191907D01*
X15518372Y7185414D01*
X15507178Y7179825D01*
X15499729Y7175655D01*
X15497036Y7173424D01*
X15498288Y7172458D01*
X15504569Y7169076D01*
X15515615Y7163620D01*
X15530844Y7156362D01*
X15549673Y7147578D01*
X15571521Y7137538D01*
X15595805Y7126518D01*
X15621943Y7114790D01*
X15657310Y7098996D01*
X15687814Y7085337D01*
X15713388Y7073839D01*
X15734439Y7064311D01*
X15751370Y7056565D01*
X15764587Y7050412D01*
X15774491Y7045666D01*
X15781492Y7042135D01*
X15785991Y7039633D01*
X15788393Y7037974D01*
X15789104Y7036964D01*
X15787176Y7034939D01*
X15781497Y7032084D01*
X15778002Y7030662D01*
X15768365Y7026535D01*
X15754581Y7020490D01*
X15737309Y7012826D01*
X15717205Y7003844D01*
X15694930Y6993838D01*
X15671140Y6983111D01*
X15646491Y6971960D01*
X15621643Y6960684D01*
X15597254Y6949581D01*
X15573979Y6938950D01*
X15552479Y6929091D01*
X15533411Y6920301D01*
X15517431Y6912878D01*
X15505198Y6907123D01*
X15497370Y6903334D01*
X15494605Y6901808D01*
X15310749Y6901808D01*
X15309596Y6902482D01*
X15309861Y6902723D01*
X15314286Y6905073D01*
X15323743Y6909635D01*
X15337698Y6916160D01*
X15355610Y6924402D01*
X15376945Y6934117D01*
X15401164Y6945057D01*
X15427733Y6956977D01*
X15456112Y6969629D01*
X15464621Y6973413D01*
X15492632Y6985894D01*
X15518747Y6997565D01*
X15542419Y7008181D01*
X15563099Y7017493D01*
X15580239Y7025254D01*
X15593291Y7031220D01*
X15601710Y7035139D01*
X15604945Y7036767D01*
X15604749Y7037066D01*
X15600511Y7039522D01*
X15591245Y7044171D01*
X15577477Y7050770D01*
X15559728Y7059073D01*
X15538524Y7068838D01*
X15514387Y7079822D01*
X15487842Y7091780D01*
X15459414Y7104467D01*
X15449481Y7108889D01*
X15421532Y7121404D01*
X15395586Y7133139D01*
X15372177Y7143842D01*
X15351836Y7153267D01*
X15335098Y7161163D01*
X15322497Y7167282D01*
X15314567Y7171377D01*
X15311840Y7173198D01*
X15312061Y7173452D01*
X15316341Y7175925D01*
X15325667Y7180617D01*
X15339498Y7187273D01*
X15357293Y7195643D01*
X15378513Y7205473D01*
X15402617Y7216511D01*
X15429066Y7228504D01*
X15457317Y7241200D01*
X15465026Y7244652D01*
X15492868Y7257171D01*
X15518780Y7268902D01*
X15542218Y7279593D01*
X15562640Y7288994D01*
X15579505Y7296852D01*
X15592267Y7302921D01*
X15600388Y7306946D01*
X15603321Y7308678D01*
X15603054Y7308987D01*
X15598622Y7311503D01*
X15589166Y7316217D01*
X15575216Y7322881D01*
X15557304Y7331251D01*
X15535963Y7341077D01*
X15511721Y7352114D01*
X15485113Y7364114D01*
X15456669Y7376830D01*
X15447296Y7381005D01*
X15419267Y7393543D01*
X15393168Y7405290D01*
X15369542Y7415995D01*
X15348932Y7425412D01*
X15331883Y7433291D01*
X15318937Y7439381D01*
X15310635Y7443435D01*
X15307525Y7445203D01*
X15307188Y7445858D01*
X15307488Y7449594D01*
X15307802Y7449809D01*
X15310318Y7451011D01*
X15315545Y7453229D01*
X15323833Y7456603D01*
X15335533Y7461269D01*
X15350990Y7467364D01*
X15370555Y7475025D01*
X15394574Y7484389D01*
X15423399Y7495592D01*
X15457377Y7508774D01*
X15496856Y7524068D01*
X15535247Y7538936D01*
X15535247Y7619895D01*
X15381338Y7619895D01*
X15383435Y7966207D01*
X15391979Y7993749D01*
X15407972Y8035606D01*
X15429241Y8074460D01*
X15455667Y8109797D01*
X15487324Y8141714D01*
X15524277Y8170301D01*
X15557816Y8191188D01*
X15598394Y8211150D01*
X15640110Y8225777D01*
X15684114Y8235539D01*
X15685774Y8235799D01*
X15689796Y8236335D01*
X15694578Y8236829D01*
X15700363Y8237282D01*
X15707387Y8237696D01*
X15715891Y8238074D01*
X15726113Y8238413D01*
X15738296Y8238717D01*
X15752675Y8238989D01*
X15769492Y8239227D01*
X15788985Y8239433D01*
X15811394Y8239609D01*
X15836959Y8239758D01*
X15865919Y8239878D01*
X15898514Y8239970D01*
X15934982Y8240038D01*
X15975565Y8240083D01*
X16020500Y8240104D01*
X16070026Y8240105D01*
X16124384Y8240086D01*
X16183812Y8240047D01*
X16248552Y8239991D01*
X16318842Y8239918D01*
X16394920Y8239832D01*
X16477027Y8239730D01*
X17238600Y8238769D01*
X17269477Y8230141D01*
X17304844Y8218880D01*
X17351093Y8199348D01*
X17392882Y8175675D01*
X17430082Y8147973D01*
X17462570Y8116353D01*
X17490217Y8080928D01*
X17512896Y8041812D01*
X17530481Y7999114D01*
X17539468Y7972474D01*
X17540393Y7113746D01*
X17540455Y7052217D01*
X17540535Y6960504D01*
X17540590Y6874867D01*
X17540619Y6795191D01*
X17540625Y6721359D01*
X17540620Y6709204D01*
X17540604Y6653257D01*
G37*
G36*
X6554497Y7806358D02*
G01*
X6588775Y7806308D01*
X6617854Y7806206D01*
X6642284Y7806038D01*
X6662616Y7805789D01*
X6679398Y7805444D01*
X6693184Y7804988D01*
X6704522Y7804408D01*
X6713965Y7803687D01*
X6722062Y7802813D01*
X6729364Y7801769D01*
X6736421Y7800542D01*
X6749665Y7797926D01*
X6798375Y7785329D01*
X6842297Y7768903D01*
X6881631Y7748561D01*
X6916580Y7724215D01*
X6916704Y7724117D01*
X6949286Y7694287D01*
X6976813Y7661177D01*
X6999403Y7624564D01*
X7017173Y7584226D01*
X7030240Y7539940D01*
X7038723Y7491482D01*
X7039509Y7483448D01*
X7040529Y7466327D01*
X7041264Y7444998D01*
X7041715Y7420724D01*
X7041884Y7394765D01*
X7041770Y7368386D01*
X7041376Y7342846D01*
X7040704Y7319410D01*
X7039754Y7299338D01*
X7038526Y7283891D01*
X7032353Y7243448D01*
X7020849Y7198473D01*
X7004988Y7156517D01*
X6985037Y7118015D01*
X6961259Y7083404D01*
X6933920Y7053111D01*
X6903285Y7027575D01*
X6869619Y7007231D01*
X6859926Y7002787D01*
X6842276Y6995752D01*
X6820756Y6988017D01*
X6796653Y6980004D01*
X6771256Y6972137D01*
X6745856Y6964842D01*
X6721743Y6958545D01*
X6699171Y6953239D01*
X6647008Y6942508D01*
X6590996Y6932854D01*
X6532756Y6924547D01*
X6473913Y6917854D01*
X6442167Y6913620D01*
X6404982Y6905460D01*
X6371839Y6894381D01*
X6343120Y6880575D01*
X6319206Y6864231D01*
X6300480Y6845541D01*
X6287324Y6824695D01*
X6287001Y6824004D01*
X6284058Y6817420D01*
X6281927Y6811420D01*
X6280472Y6804862D01*
X6279568Y6796602D01*
X6279083Y6785498D01*
X6278887Y6770412D01*
X6278851Y6750199D01*
X6278853Y6745231D01*
X6278980Y6725328D01*
X6279372Y6710157D01*
X6280146Y6698452D01*
X6281411Y6688945D01*
X6283281Y6680372D01*
X6285870Y6671467D01*
X6293532Y6651382D01*
X6305877Y6630635D01*
X6321835Y6614472D01*
X6342108Y6602221D01*
X6367400Y6593207D01*
X6368238Y6592983D01*
X6375089Y6591387D01*
X6382843Y6590094D01*
X6392268Y6589064D01*
X6404129Y6588251D01*
X6419193Y6587614D01*
X6438227Y6587110D01*
X6461995Y6586697D01*
X6491266Y6586332D01*
X6523558Y6586061D01*
X6551410Y6586055D01*
X6574568Y6586388D01*
X6593829Y6587117D01*
X6609988Y6588300D01*
X6623843Y6589997D01*
X6636189Y6592268D01*
X6647823Y6595171D01*
X6659542Y6598763D01*
X6671856Y6603565D01*
X6683913Y6610867D01*
X6696094Y6621710D01*
X6697402Y6623036D01*
X6707002Y6634297D01*
X6714394Y6646573D01*
X6719899Y6660907D01*
X6723838Y6678345D01*
X6726532Y6699931D01*
X6728300Y6726712D01*
X6728509Y6730916D01*
X6729917Y6751669D01*
X6731922Y6767271D01*
X6734852Y6778673D01*
X6739028Y6786822D01*
X6744779Y6792667D01*
X6752427Y6797159D01*
X6755244Y6797979D01*
X6764541Y6799232D01*
X6778713Y6800281D01*
X6796906Y6801126D01*
X6818261Y6801767D01*
X6841922Y6802205D01*
X6867031Y6802442D01*
X6892732Y6802473D01*
X6918168Y6802304D01*
X6942482Y6801932D01*
X6964815Y6801360D01*
X6984312Y6800586D01*
X7000114Y6799609D01*
X7011367Y6798434D01*
X7017212Y6797057D01*
X7017756Y6796774D01*
X7024819Y6792446D01*
X7030122Y6787282D01*
X7033912Y6780380D01*
X7036431Y6770834D01*
X7037927Y6757741D01*
X7038644Y6740195D01*
X7038826Y6717292D01*
X7038549Y6693404D01*
X7036937Y6660075D01*
X7033717Y6630304D01*
X7028701Y6602520D01*
X7021700Y6575152D01*
X7017515Y6561817D01*
X7000575Y6520959D01*
X6978571Y6483550D01*
X6951748Y6449778D01*
X6920359Y6419827D01*
X6884645Y6393887D01*
X6844856Y6372146D01*
X6801240Y6354790D01*
X6754043Y6342006D01*
X6703514Y6333982D01*
X6699461Y6333791D01*
X6689435Y6333569D01*
X6674242Y6333350D01*
X6654471Y6333139D01*
X6630716Y6332940D01*
X6603563Y6332757D01*
X6573606Y6332599D01*
X6541433Y6332467D01*
X6507636Y6332368D01*
X6487897Y6332327D01*
X6448253Y6332303D01*
X6414164Y6332374D01*
X6385137Y6332550D01*
X6360681Y6332842D01*
X6340305Y6333255D01*
X6323515Y6333801D01*
X6309820Y6334487D01*
X6298730Y6335323D01*
X6289751Y6336318D01*
X6257251Y6341653D01*
X6208482Y6353952D01*
X6163919Y6370803D01*
X6123634Y6392143D01*
X6087705Y6417905D01*
X6056201Y6448026D01*
X6029198Y6482442D01*
X6006769Y6521088D01*
X5988989Y6563901D01*
X5975929Y6610814D01*
X5974139Y6619319D01*
X5972493Y6628323D01*
X5971218Y6637449D01*
X5970267Y6647576D01*
X5969589Y6659579D01*
X5969139Y6674338D01*
X5968869Y6692731D01*
X5968730Y6715636D01*
X5968674Y6743931D01*
X5968725Y6774287D01*
X5969014Y6802526D01*
X5969629Y6826225D01*
X5970649Y6846280D01*
X5972152Y6863598D01*
X5974221Y6879079D01*
X5976934Y6893627D01*
X5980373Y6908143D01*
X5984615Y6923530D01*
X5992147Y6946557D01*
X6010817Y6988685D01*
X6034832Y7027621D01*
X6064039Y7063099D01*
X6064585Y7063677D01*
X6084463Y7083389D01*
X6104139Y7099906D01*
X6124897Y7114007D01*
X6148027Y7126478D01*
X6174810Y7138096D01*
X6206536Y7149644D01*
X6208916Y7150450D01*
X6263805Y7167351D01*
X6321323Y7181827D01*
X6382317Y7194049D01*
X6447635Y7204188D01*
X6518125Y7212413D01*
X6523760Y7212987D01*
X6563468Y7217787D01*
X6597586Y7223441D01*
X6626684Y7230131D01*
X6651333Y7238032D01*
X6672102Y7247325D01*
X6689561Y7258187D01*
X6704283Y7270800D01*
X6710018Y7276815D01*
X6717961Y7286873D01*
X6723754Y7297545D01*
X6727711Y7309955D01*
X6730148Y7325231D01*
X6731379Y7344496D01*
X6731720Y7368878D01*
X6731564Y7385357D01*
X6729886Y7420336D01*
X6726229Y7449984D01*
X6720418Y7474787D01*
X6712278Y7495232D01*
X6701638Y7511805D01*
X6688320Y7524994D01*
X6672153Y7535286D01*
X6668330Y7537192D01*
X6659192Y7541272D01*
X6649804Y7544562D01*
X6639413Y7547146D01*
X6627268Y7549103D01*
X6612616Y7550514D01*
X6594706Y7551461D01*
X6572785Y7552025D01*
X6546101Y7552284D01*
X6513904Y7552323D01*
X6507770Y7552314D01*
X6480378Y7552245D01*
X6458299Y7552099D01*
X6440740Y7551835D01*
X6426902Y7551406D01*
X6415990Y7550773D01*
X6407208Y7549887D01*
X6399759Y7548709D01*
X6392847Y7547193D01*
X6385677Y7545296D01*
X6364604Y7538382D01*
X6344927Y7528639D01*
X6329781Y7516256D01*
X6318382Y7500369D01*
X6309942Y7480107D01*
X6303680Y7454601D01*
X6303256Y7452258D01*
X6301207Y7436830D01*
X6299764Y7419147D01*
X6299216Y7402586D01*
X6299149Y7396333D01*
X6297781Y7378224D01*
X6294322Y7364601D01*
X6288342Y7354234D01*
X6279409Y7345889D01*
X6278700Y7345378D01*
X6276164Y7343808D01*
X6273033Y7342531D01*
X6268676Y7341508D01*
X6262462Y7340704D01*
X6253763Y7340082D01*
X6241948Y7339605D01*
X6226385Y7339236D01*
X6206446Y7338939D01*
X6181498Y7338677D01*
X6150913Y7338415D01*
X6144443Y7338364D01*
X6110416Y7338210D01*
X6081372Y7338279D01*
X6057569Y7338567D01*
X6039262Y7339068D01*
X6026708Y7339779D01*
X6020162Y7340694D01*
X6018425Y7341281D01*
X6008595Y7346491D01*
X5999791Y7353628D01*
X5990518Y7363297D01*
X5989496Y7410894D01*
X5989320Y7426486D01*
X5991219Y7476621D01*
X5997060Y7522416D01*
X6006954Y7564370D01*
X6021012Y7602979D01*
X6039338Y7638741D01*
X6055575Y7663382D01*
X6083767Y7696802D01*
X6116533Y7726014D01*
X6153773Y7750953D01*
X6195392Y7771558D01*
X6241289Y7787766D01*
X6291369Y7799516D01*
X6297541Y7800618D01*
X6305264Y7801884D01*
X6313018Y7802949D01*
X6321370Y7803832D01*
X6330890Y7804548D01*
X6342141Y7805116D01*
X6355691Y7805552D01*
X6372110Y7805874D01*
X6391961Y7806098D01*
X6415812Y7806243D01*
X6444230Y7806325D01*
X6477784Y7806362D01*
X6517037Y7806370D01*
X6554497Y7806358D01*
G37*
G36*
X13224131Y7806367D02*
G01*
X13251697Y7806334D01*
X13274023Y7806241D01*
X13291719Y7806062D01*
X13305396Y7805765D01*
X13315666Y7805322D01*
X13323139Y7804702D01*
X13328424Y7803877D01*
X13332135Y7802818D01*
X13334879Y7801496D01*
X13337270Y7799879D01*
X13337767Y7799504D01*
X13345390Y7791821D01*
X13351597Y7782642D01*
X13351861Y7782084D01*
X13352452Y7780443D01*
X13352996Y7778147D01*
X13353497Y7774955D01*
X13353954Y7770620D01*
X13354371Y7764900D01*
X13354750Y7757550D01*
X13355092Y7748327D01*
X13355398Y7736984D01*
X13355671Y7723280D01*
X13355913Y7706970D01*
X13356128Y7687810D01*
X13356313Y7665553D01*
X13356472Y7639960D01*
X13356609Y7610783D01*
X13356724Y7577779D01*
X13356819Y7540705D01*
X13356895Y7499314D01*
X13356955Y7453365D01*
X13357001Y7402612D01*
X13357034Y7346812D01*
X13357057Y7285720D01*
X13357072Y7219092D01*
X13357078Y7146685D01*
X13357082Y7068255D01*
X13357081Y6998645D01*
X13357076Y6925644D01*
X13357065Y6858450D01*
X13357048Y6796818D01*
X13357019Y6740504D01*
X13356979Y6689261D01*
X13356924Y6642847D01*
X13356855Y6601015D01*
X13356768Y6563523D01*
X13356660Y6530123D01*
X13356533Y6500573D01*
X13356380Y6474627D01*
X13356203Y6452040D01*
X13355996Y6432568D01*
X13355762Y6415965D01*
X13355495Y6401988D01*
X13355195Y6390391D01*
X13354861Y6380929D01*
X13354488Y6373359D01*
X13354076Y6367433D01*
X13353623Y6362910D01*
X13353127Y6359543D01*
X13352586Y6357089D01*
X13351996Y6355301D01*
X13351359Y6353936D01*
X13351006Y6353302D01*
X13343860Y6344395D01*
X13334955Y6337531D01*
X13332338Y6336276D01*
X13328676Y6335047D01*
X13323796Y6334064D01*
X13317064Y6333301D01*
X13307850Y6332729D01*
X13295525Y6332325D01*
X13279455Y6332056D01*
X13259011Y6331898D01*
X13233562Y6331823D01*
X13202473Y6331804D01*
X13197326Y6331804D01*
X13165417Y6331836D01*
X13139087Y6331970D01*
X13117736Y6332285D01*
X13100763Y6332849D01*
X13087566Y6333741D01*
X13077546Y6335035D01*
X13070102Y6336802D01*
X13064630Y6339117D01*
X13060532Y6342055D01*
X13057205Y6345690D01*
X13054050Y6350095D01*
X13053518Y6351011D01*
X13052928Y6352507D01*
X13052384Y6354677D01*
X13051884Y6357764D01*
X13051426Y6362011D01*
X13051006Y6367661D01*
X13050624Y6374958D01*
X13050277Y6384146D01*
X13049963Y6395466D01*
X13049679Y6409162D01*
X13049423Y6425478D01*
X13049194Y6444657D01*
X13048988Y6466943D01*
X13048804Y6492577D01*
X13048641Y6521803D01*
X13048493Y6554866D01*
X13048361Y6592007D01*
X13048242Y6633471D01*
X13048136Y6679500D01*
X13048036Y6730338D01*
X13047943Y6786228D01*
X13047854Y6847413D01*
X13047767Y6914137D01*
X13047679Y6986641D01*
X13047590Y7065171D01*
X13047542Y7108610D01*
X13047460Y7183903D01*
X13047393Y7253304D01*
X13047339Y7317057D01*
X13047301Y7375405D01*
X13047280Y7428593D01*
X13047279Y7476862D01*
X13047296Y7520457D01*
X13047337Y7559623D01*
X13047402Y7594603D01*
X13047491Y7625640D01*
X13047608Y7652978D01*
X13047753Y7676861D01*
X13047927Y7697533D01*
X13048133Y7715235D01*
X13048374Y7730215D01*
X13048648Y7742713D01*
X13048960Y7752974D01*
X13049308Y7761242D01*
X13049697Y7767762D01*
X13050127Y7772775D01*
X13050600Y7776526D01*
X13051117Y7779258D01*
X13051680Y7781215D01*
X13052290Y7782642D01*
X13052610Y7783250D01*
X13059036Y7792455D01*
X13066634Y7799879D01*
X13068258Y7801017D01*
X13070824Y7802430D01*
X13074163Y7803569D01*
X13078885Y7804465D01*
X13085599Y7805146D01*
X13094919Y7805642D01*
X13107453Y7805983D01*
X13123812Y7806196D01*
X13144609Y7806312D01*
X13170451Y7806360D01*
X13201952Y7806370D01*
X13224131Y7806367D01*
G37*
G36*
X9258495Y7807408D02*
G01*
X9276926Y7806949D01*
X9291422Y7806126D01*
X9302572Y7804871D01*
X9310966Y7803116D01*
X9317195Y7800795D01*
X9321851Y7797841D01*
X9325523Y7794182D01*
X9328804Y7789754D01*
X9329500Y7788552D01*
X9330160Y7786849D01*
X9330762Y7784405D01*
X9331311Y7780945D01*
X9331810Y7776191D01*
X9332262Y7769868D01*
X9332671Y7761699D01*
X9333041Y7751407D01*
X9333375Y7738718D01*
X9333676Y7723352D01*
X9333950Y7705035D01*
X9334199Y7683490D01*
X9334427Y7658441D01*
X9334636Y7629611D01*
X9334832Y7596725D01*
X9335017Y7559506D01*
X9335195Y7517675D01*
X9335370Y7470959D01*
X9335545Y7419081D01*
X9335726Y7361763D01*
X9335912Y7298731D01*
X9336110Y7229706D01*
X9337677Y6678116D01*
X9345002Y6656484D01*
X9353023Y6638276D01*
X9367131Y6619222D01*
X9385647Y6604624D01*
X9408553Y6594499D01*
X9414222Y6592765D01*
X9419731Y6591295D01*
X9425571Y6590112D01*
X9432399Y6589182D01*
X9440876Y6588478D01*
X9451664Y6587967D01*
X9465419Y6587618D01*
X9482804Y6587401D01*
X9504476Y6587285D01*
X9531097Y6587238D01*
X9563327Y6587229D01*
X9568690Y6587229D01*
X9599951Y6587239D01*
X9625698Y6587287D01*
X9646580Y6587407D01*
X9663252Y6587630D01*
X9676364Y6587988D01*
X9686569Y6588512D01*
X9694518Y6589236D01*
X9700863Y6590192D01*
X9706258Y6591410D01*
X9711353Y6592925D01*
X9716800Y6594766D01*
X9732729Y6601672D01*
X9752503Y6615623D01*
X9767825Y6633952D01*
X9778519Y6656484D01*
X9785844Y6678116D01*
X9787411Y7229706D01*
X9787603Y7296539D01*
X9787790Y7359766D01*
X9787969Y7417268D01*
X9788145Y7469323D01*
X9788320Y7516205D01*
X9788498Y7558192D01*
X9788683Y7595562D01*
X9788877Y7628587D01*
X9789088Y7657547D01*
X9789313Y7682717D01*
X9789562Y7704374D01*
X9789834Y7722793D01*
X9790135Y7738251D01*
X9790468Y7751026D01*
X9790837Y7761393D01*
X9791245Y7769628D01*
X9791696Y7776008D01*
X9792193Y7780809D01*
X9792740Y7784308D01*
X9793340Y7786781D01*
X9793998Y7788504D01*
X9794716Y7789754D01*
X9797746Y7793877D01*
X9801377Y7797596D01*
X9805948Y7800605D01*
X9812053Y7802973D01*
X9820284Y7804766D01*
X9831231Y7806055D01*
X9845487Y7806907D01*
X9863643Y7807389D01*
X9886292Y7807569D01*
X9914023Y7807515D01*
X9947430Y7807296D01*
X9959375Y7807204D01*
X9989279Y7806953D01*
X10013744Y7806645D01*
X10033388Y7806194D01*
X10048821Y7805510D01*
X10060660Y7804507D01*
X10069517Y7803097D01*
X10076008Y7801193D01*
X10080746Y7798706D01*
X10084346Y7795549D01*
X10087421Y7791635D01*
X10090585Y7786876D01*
X10091212Y7785730D01*
X10091844Y7783951D01*
X10092419Y7781366D01*
X10092941Y7777701D01*
X10093410Y7772681D01*
X10093832Y7766037D01*
X10094208Y7757493D01*
X10094540Y7746775D01*
X10094830Y7733614D01*
X10095084Y7717734D01*
X10095301Y7698861D01*
X10095486Y7676725D01*
X10095641Y7651051D01*
X10095769Y7621567D01*
X10095871Y7587998D01*
X10095952Y7550072D01*
X10096012Y7507519D01*
X10096056Y7460060D01*
X10096084Y7407427D01*
X10096102Y7349344D01*
X10096111Y7285540D01*
X10096114Y7215740D01*
X10096112Y7158155D01*
X10096104Y7093151D01*
X10096088Y7033891D01*
X10096058Y6980097D01*
X10096015Y6931478D01*
X10095955Y6887751D01*
X10095873Y6848629D01*
X10095771Y6813829D01*
X10095641Y6783061D01*
X10095484Y6756041D01*
X10095296Y6732484D01*
X10095072Y6712104D01*
X10094814Y6694614D01*
X10094516Y6679730D01*
X10094176Y6667165D01*
X10093791Y6656631D01*
X10093359Y6647848D01*
X10092876Y6640525D01*
X10092340Y6634378D01*
X10091748Y6629122D01*
X10091098Y6624470D01*
X10090386Y6620136D01*
X10082291Y6582668D01*
X10068458Y6540072D01*
X10050298Y6501644D01*
X10027634Y6467025D01*
X10000289Y6435854D01*
X9978978Y6416635D01*
X9943378Y6391370D01*
X9903528Y6370298D01*
X9859814Y6353583D01*
X9812623Y6341393D01*
X9762338Y6333890D01*
X9756665Y6333536D01*
X9744470Y6333151D01*
X9727346Y6332835D01*
X9705991Y6332588D01*
X9681107Y6332406D01*
X9653393Y6332288D01*
X9623549Y6332232D01*
X9592274Y6332237D01*
X9560270Y6332298D01*
X9528234Y6332416D01*
X9496867Y6332586D01*
X9466871Y6332809D01*
X9438942Y6333080D01*
X9413785Y6333398D01*
X9392094Y6333762D01*
X9374572Y6334169D01*
X9361918Y6334617D01*
X9354832Y6335104D01*
X9343175Y6336644D01*
X9304533Y6343370D01*
X9269708Y6352342D01*
X9236943Y6364075D01*
X9204480Y6379082D01*
X9174317Y6396472D01*
X9139582Y6422579D01*
X9109374Y6452946D01*
X9083654Y6487626D01*
X9062384Y6526673D01*
X9045526Y6570140D01*
X9033040Y6618083D01*
X9032404Y6621544D01*
X9031802Y6625789D01*
X9031251Y6630998D01*
X9030750Y6637449D01*
X9030293Y6645423D01*
X9029879Y6655197D01*
X9029505Y6667050D01*
X9029169Y6681263D01*
X9028865Y6698115D01*
X9028592Y6717885D01*
X9028346Y6740851D01*
X9028126Y6767294D01*
X9027928Y6797493D01*
X9027748Y6831725D01*
X9027585Y6870270D01*
X9027434Y6913410D01*
X9027293Y6961420D01*
X9027159Y7014583D01*
X9027029Y7073176D01*
X9026901Y7137476D01*
X9026770Y7207768D01*
X9026652Y7274266D01*
X9026544Y7338467D01*
X9026455Y7396935D01*
X9026388Y7449941D01*
X9026344Y7497762D01*
X9026326Y7540669D01*
X9026336Y7578941D01*
X9026376Y7612846D01*
X9026447Y7642660D01*
X9026554Y7668658D01*
X9026696Y7691114D01*
X9026876Y7710300D01*
X9027099Y7726491D01*
X9027364Y7739963D01*
X9027673Y7750985D01*
X9028029Y7759837D01*
X9028435Y7766788D01*
X9028893Y7772114D01*
X9029403Y7776087D01*
X9029970Y7778984D01*
X9030594Y7781078D01*
X9031280Y7782642D01*
X9031606Y7783261D01*
X9038054Y7792462D01*
X9045652Y7799879D01*
X9046544Y7800519D01*
X9049084Y7802056D01*
X9052261Y7803306D01*
X9056700Y7804307D01*
X9063027Y7805093D01*
X9071868Y7805699D01*
X9083848Y7806162D01*
X9099592Y7806517D01*
X9119727Y7806802D01*
X9144880Y7807050D01*
X9175675Y7807296D01*
X9207457Y7807507D01*
X9235534Y7807572D01*
X9258495Y7807408D01*
G37*
G36*
X5373435Y7807929D02*
G01*
X5431632Y7807917D01*
X5484147Y7807895D01*
X5531279Y7807855D01*
X5573326Y7807799D01*
X5610590Y7807721D01*
X5643369Y7807617D01*
X5671960Y7807485D01*
X5696667Y7807323D01*
X5717786Y7807122D01*
X5735618Y7806885D01*
X5750460Y7806605D01*
X5762615Y7806280D01*
X5772380Y7805906D01*
X5780055Y7805479D01*
X5785938Y7804998D01*
X5790330Y7804458D01*
X5793531Y7803854D01*
X5795838Y7803185D01*
X5797551Y7802447D01*
X5798155Y7802132D01*
X5807362Y7795714D01*
X5814788Y7788117D01*
X5815466Y7787175D01*
X5817136Y7784416D01*
X5818451Y7781008D01*
X5819455Y7776250D01*
X5820187Y7769439D01*
X5820693Y7759870D01*
X5821013Y7746845D01*
X5821189Y7729658D01*
X5821264Y7707609D01*
X5821280Y7679993D01*
X5821264Y7656791D01*
X5821181Y7633594D01*
X5820992Y7615401D01*
X5820662Y7601516D01*
X5820154Y7591243D01*
X5819432Y7583886D01*
X5818458Y7578751D01*
X5817195Y7575143D01*
X5815609Y7572367D01*
X5814549Y7570826D01*
X5811653Y7567065D01*
X5808338Y7563912D01*
X5804073Y7561317D01*
X5798325Y7559223D01*
X5790562Y7557577D01*
X5780254Y7556326D01*
X5766868Y7555415D01*
X5749873Y7554791D01*
X5728738Y7554398D01*
X5702927Y7554186D01*
X5671914Y7554097D01*
X5635163Y7554079D01*
X5609689Y7554076D01*
X5579325Y7554052D01*
X5554278Y7553982D01*
X5533996Y7553844D01*
X5517926Y7553617D01*
X5505517Y7553276D01*
X5496215Y7552801D01*
X5489469Y7552169D01*
X5484725Y7551355D01*
X5481431Y7550337D01*
X5479033Y7549094D01*
X5476982Y7547604D01*
X5468748Y7541127D01*
X5467941Y6950799D01*
X5467132Y6360470D01*
X5460641Y6351622D01*
X5460267Y6351125D01*
X5452585Y6343501D01*
X5443405Y6337293D01*
X5441624Y6336460D01*
X5437967Y6335203D01*
X5433097Y6334195D01*
X5426385Y6333404D01*
X5417197Y6332809D01*
X5404901Y6332381D01*
X5388864Y6332093D01*
X5368457Y6331920D01*
X5343046Y6331836D01*
X5311997Y6331814D01*
X5301703Y6331814D01*
X5270539Y6331858D01*
X5244878Y6332027D01*
X5224127Y6332413D01*
X5207695Y6333099D01*
X5194991Y6334177D01*
X5185425Y6335732D01*
X5178401Y6337853D01*
X5173330Y6340627D01*
X5169621Y6344141D01*
X5166682Y6348484D01*
X5163918Y6353743D01*
X5163749Y6354096D01*
X5163096Y6355799D01*
X5162499Y6358135D01*
X5161956Y6361375D01*
X5161462Y6365786D01*
X5161018Y6371634D01*
X5160618Y6379190D01*
X5160262Y6388723D01*
X5159946Y6400498D01*
X5159669Y6414787D01*
X5159428Y6431857D01*
X5159220Y6451974D01*
X5159043Y6475408D01*
X5158895Y6502429D01*
X5158773Y6533302D01*
X5158674Y6568298D01*
X5158596Y6607683D01*
X5158537Y6651728D01*
X5158493Y6700698D01*
X5158465Y6754864D01*
X5158447Y6814493D01*
X5158437Y6879854D01*
X5158435Y6951214D01*
X5158435Y6960542D01*
X5158432Y7030973D01*
X5158425Y7095436D01*
X5158411Y7154200D01*
X5158388Y7207534D01*
X5158350Y7255704D01*
X5158299Y7298981D01*
X5158228Y7337627D01*
X5158137Y7371916D01*
X5158022Y7402111D01*
X5157882Y7428483D01*
X5157713Y7451297D01*
X5157512Y7470822D01*
X5157276Y7487326D01*
X5157004Y7501077D01*
X5156691Y7512342D01*
X5156337Y7521390D01*
X5155937Y7528487D01*
X5155490Y7533902D01*
X5154992Y7537903D01*
X5154441Y7540756D01*
X5153834Y7542731D01*
X5153168Y7544094D01*
X5152441Y7545113D01*
X5146453Y7552513D01*
X4987121Y7554079D01*
X4974677Y7554204D01*
X4940728Y7554560D01*
X4912344Y7554908D01*
X4888988Y7555265D01*
X4870130Y7555659D01*
X4855241Y7556109D01*
X4843787Y7556641D01*
X4835236Y7557277D01*
X4829058Y7558039D01*
X4824720Y7558951D01*
X4821691Y7560035D01*
X4819439Y7561314D01*
X4816597Y7563318D01*
X4812224Y7567048D01*
X4808763Y7571496D01*
X4806106Y7577357D01*
X4804150Y7585321D01*
X4802787Y7596086D01*
X4801911Y7610343D01*
X4801417Y7628786D01*
X4801198Y7652110D01*
X4801148Y7681008D01*
X4801184Y7708945D01*
X4801378Y7732672D01*
X4801864Y7751457D01*
X4802771Y7765979D01*
X4804229Y7776914D01*
X4806370Y7784942D01*
X4809322Y7790739D01*
X4813221Y7794985D01*
X4818192Y7798355D01*
X4824368Y7801531D01*
X4824698Y7801691D01*
X4826552Y7802535D01*
X4828626Y7803301D01*
X4831226Y7803991D01*
X4834649Y7804608D01*
X4839202Y7805158D01*
X4845186Y7805643D01*
X4852901Y7806069D01*
X4862654Y7806438D01*
X4874743Y7806755D01*
X4889472Y7807023D01*
X4907143Y7807248D01*
X4928060Y7807433D01*
X4952524Y7807580D01*
X4980836Y7807695D01*
X5013301Y7807782D01*
X5050218Y7807846D01*
X5091894Y7807888D01*
X5138627Y7807913D01*
X5190722Y7807928D01*
X5248480Y7807932D01*
X5312204Y7807932D01*
X5373435Y7807929D01*
G37*
G36*
X7755308Y7807929D02*
G01*
X7813506Y7807917D01*
X7866020Y7807895D01*
X7913153Y7807855D01*
X7955199Y7807799D01*
X7992463Y7807721D01*
X8025242Y7807617D01*
X8053834Y7807485D01*
X8078540Y7807323D01*
X8099660Y7807122D01*
X8117491Y7806885D01*
X8132334Y7806605D01*
X8144488Y7806280D01*
X8154253Y7805906D01*
X8161928Y7805479D01*
X8167812Y7804998D01*
X8172204Y7804458D01*
X8175404Y7803854D01*
X8177712Y7803185D01*
X8179425Y7802447D01*
X8180028Y7802132D01*
X8189236Y7795714D01*
X8196662Y7788117D01*
X8197339Y7787175D01*
X8199009Y7784416D01*
X8200324Y7781008D01*
X8201328Y7776250D01*
X8202061Y7769439D01*
X8202567Y7759870D01*
X8202886Y7746845D01*
X8203063Y7729658D01*
X8203138Y7707609D01*
X8203152Y7679993D01*
X8203137Y7656791D01*
X8203053Y7633594D01*
X8202865Y7615401D01*
X8202535Y7601516D01*
X8202027Y7591243D01*
X8201304Y7583886D01*
X8200331Y7578751D01*
X8199069Y7575143D01*
X8197482Y7572367D01*
X8196422Y7570826D01*
X8193526Y7567065D01*
X8190212Y7563912D01*
X8185946Y7561317D01*
X8180198Y7559223D01*
X8172436Y7557577D01*
X8162127Y7556326D01*
X8148742Y7555415D01*
X8131746Y7554791D01*
X8110611Y7554398D01*
X8084801Y7554186D01*
X8053787Y7554097D01*
X8017037Y7554079D01*
X7991562Y7554076D01*
X7961198Y7554052D01*
X7936151Y7553982D01*
X7915869Y7553844D01*
X7899799Y7553617D01*
X7887391Y7553276D01*
X7878089Y7552801D01*
X7871342Y7552169D01*
X7866598Y7551355D01*
X7863304Y7550337D01*
X7860907Y7549094D01*
X7858856Y7547604D01*
X7850621Y7541127D01*
X7849814Y6950799D01*
X7849006Y6360470D01*
X7842515Y6351622D01*
X7842140Y6351125D01*
X7834458Y6343501D01*
X7825278Y6337293D01*
X7823497Y6336460D01*
X7819840Y6335203D01*
X7814971Y6334195D01*
X7808258Y6333404D01*
X7799070Y6332809D01*
X7786774Y6332381D01*
X7770738Y6332093D01*
X7750331Y6331920D01*
X7724919Y6331836D01*
X7693871Y6331814D01*
X7683576Y6331814D01*
X7652413Y6331858D01*
X7626751Y6332027D01*
X7606001Y6332413D01*
X7589569Y6333099D01*
X7576865Y6334177D01*
X7567297Y6335732D01*
X7560274Y6337853D01*
X7555204Y6340627D01*
X7551495Y6344141D01*
X7548555Y6348484D01*
X7545792Y6353743D01*
X7545622Y6354096D01*
X7544970Y6355799D01*
X7544372Y6358135D01*
X7543829Y6361375D01*
X7543335Y6365786D01*
X7542891Y6371634D01*
X7542491Y6379190D01*
X7542135Y6388723D01*
X7541819Y6400498D01*
X7541542Y6414787D01*
X7541301Y6431857D01*
X7541093Y6451974D01*
X7540917Y6475408D01*
X7540768Y6502429D01*
X7540646Y6533302D01*
X7540548Y6568298D01*
X7540470Y6607683D01*
X7540410Y6651728D01*
X7540367Y6700698D01*
X7540338Y6754864D01*
X7540320Y6814493D01*
X7540310Y6879854D01*
X7540308Y6951214D01*
X7540308Y6960542D01*
X7540306Y7030973D01*
X7540299Y7095436D01*
X7540285Y7154200D01*
X7540261Y7207534D01*
X7540224Y7255704D01*
X7540171Y7298981D01*
X7540102Y7337627D01*
X7540011Y7371916D01*
X7539896Y7402111D01*
X7539756Y7428483D01*
X7539586Y7451297D01*
X7539385Y7470822D01*
X7539150Y7487326D01*
X7538877Y7501077D01*
X7538564Y7512342D01*
X7538210Y7521390D01*
X7537811Y7528487D01*
X7537363Y7533902D01*
X7536865Y7537903D01*
X7536315Y7540756D01*
X7535708Y7542731D01*
X7535041Y7544094D01*
X7534314Y7545113D01*
X7528326Y7552513D01*
X7368994Y7554079D01*
X7356550Y7554204D01*
X7322602Y7554560D01*
X7294217Y7554908D01*
X7270861Y7555265D01*
X7252004Y7555659D01*
X7237115Y7556109D01*
X7225661Y7556641D01*
X7217109Y7557277D01*
X7210930Y7558039D01*
X7206593Y7558951D01*
X7203565Y7560035D01*
X7201312Y7561314D01*
X7198470Y7563318D01*
X7194097Y7567048D01*
X7190635Y7571496D01*
X7187980Y7577357D01*
X7186023Y7585321D01*
X7184660Y7596086D01*
X7183785Y7610343D01*
X7183290Y7628786D01*
X7183071Y7652110D01*
X7183021Y7681008D01*
X7183056Y7708945D01*
X7183252Y7732672D01*
X7183737Y7751457D01*
X7184644Y7765979D01*
X7186102Y7776914D01*
X7188243Y7784942D01*
X7191196Y7790739D01*
X7195094Y7794985D01*
X7200065Y7798355D01*
X7206241Y7801531D01*
X7206571Y7801691D01*
X7208425Y7802535D01*
X7210499Y7803301D01*
X7213099Y7803991D01*
X7216523Y7804608D01*
X7221076Y7805158D01*
X7227059Y7805643D01*
X7234774Y7806069D01*
X7244527Y7806438D01*
X7256616Y7806755D01*
X7271346Y7807023D01*
X7289017Y7807248D01*
X7309934Y7807433D01*
X7334397Y7807580D01*
X7362708Y7807695D01*
X7395174Y7807782D01*
X7432092Y7807846D01*
X7473767Y7807888D01*
X7520501Y7807913D01*
X7572595Y7807928D01*
X7630353Y7807932D01*
X7694077Y7807932D01*
X7755308Y7807929D01*
G37*
G36*
X1538775Y7807470D02*
G01*
X1581522Y7807433D01*
X1629573Y7807368D01*
X1683251Y7807279D01*
X1742876Y7807167D01*
X1797326Y7807063D01*
X1851337Y7806953D01*
X1899694Y7806846D01*
X1942717Y7806734D01*
X1980727Y7806613D01*
X2014045Y7806476D01*
X2042993Y7806318D01*
X2067889Y7806135D01*
X2089058Y7805919D01*
X2106816Y7805667D01*
X2121489Y7805371D01*
X2133393Y7805027D01*
X2142852Y7804630D01*
X2150187Y7804172D01*
X2155718Y7803652D01*
X2159765Y7803059D01*
X2162649Y7802392D01*
X2164693Y7801643D01*
X2166216Y7800807D01*
X2167539Y7799879D01*
X2168040Y7799502D01*
X2175666Y7791819D01*
X2181881Y7782642D01*
X2182219Y7781918D01*
X2182804Y7780234D01*
X2183342Y7777887D01*
X2183835Y7774631D01*
X2184284Y7770225D01*
X2184692Y7764424D01*
X2185058Y7756985D01*
X2185387Y7747665D01*
X2185677Y7736219D01*
X2185932Y7722404D01*
X2186155Y7705976D01*
X2186344Y7686691D01*
X2186502Y7664306D01*
X2186632Y7638577D01*
X2186733Y7609261D01*
X2186808Y7576112D01*
X2186860Y7538891D01*
X2186887Y7497349D01*
X2186896Y7451245D01*
X2186883Y7400336D01*
X2186852Y7344377D01*
X2186806Y7283124D01*
X2186744Y7216334D01*
X2186669Y7143763D01*
X2186583Y7065171D01*
X2186512Y7002946D01*
X2186424Y6929160D01*
X2186337Y6861209D01*
X2186249Y6798849D01*
X2186156Y6741837D01*
X2186058Y6689928D01*
X2185951Y6642881D01*
X2185835Y6600452D01*
X2185705Y6562398D01*
X2185561Y6528477D01*
X2185400Y6498443D01*
X2185220Y6472057D01*
X2185019Y6449071D01*
X2184794Y6429246D01*
X2184544Y6412336D01*
X2184266Y6398100D01*
X2183958Y6386294D01*
X2183618Y6376674D01*
X2183244Y6368999D01*
X2182833Y6363023D01*
X2182383Y6358505D01*
X2181892Y6355200D01*
X2181358Y6352868D01*
X2180779Y6351262D01*
X2180152Y6350142D01*
X2180139Y6350123D01*
X2173212Y6342816D01*
X2164482Y6336894D01*
X2163253Y6336395D01*
X2160685Y6335729D01*
X2156906Y6335132D01*
X2151597Y6334601D01*
X2144445Y6334130D01*
X2135133Y6333717D01*
X2123345Y6333358D01*
X2108764Y6333047D01*
X2091075Y6332784D01*
X2069962Y6332563D01*
X2045109Y6332382D01*
X2016200Y6332234D01*
X1982919Y6332118D01*
X1944949Y6332030D01*
X1901976Y6331964D01*
X1853682Y6331920D01*
X1799753Y6331891D01*
X1739870Y6331876D01*
X1721600Y6331871D01*
X1662888Y6331857D01*
X1610035Y6331847D01*
X1562726Y6331856D01*
X1520645Y6331895D01*
X1483475Y6331977D01*
X1450899Y6332115D01*
X1422603Y6332320D01*
X1398271Y6332607D01*
X1377583Y6332987D01*
X1360227Y6333473D01*
X1345886Y6334077D01*
X1334242Y6334813D01*
X1324981Y6335692D01*
X1317786Y6336727D01*
X1312341Y6337930D01*
X1308330Y6339315D01*
X1305435Y6340894D01*
X1303343Y6342679D01*
X1301735Y6344683D01*
X1300297Y6346918D01*
X1298712Y6349397D01*
X1297237Y6351814D01*
X1295790Y6355232D01*
X1294657Y6359886D01*
X1293788Y6366495D01*
X1293134Y6375779D01*
X1292649Y6388455D01*
X1292283Y6405245D01*
X1291989Y6426863D01*
X1291717Y6454032D01*
X1291514Y6479461D01*
X1291458Y6503669D01*
X1291698Y6522916D01*
X1292347Y6537904D01*
X1293510Y6549332D01*
X1295295Y6557899D01*
X1297812Y6564310D01*
X1301168Y6569265D01*
X1305474Y6573462D01*
X1310835Y6577604D01*
X1312431Y6578707D01*
X1314332Y6579706D01*
X1316891Y6580579D01*
X1320509Y6581338D01*
X1325587Y6581994D01*
X1332526Y6582557D01*
X1341725Y6583039D01*
X1353588Y6583454D01*
X1368511Y6583810D01*
X1386900Y6584120D01*
X1409152Y6584396D01*
X1435668Y6584650D01*
X1466849Y6584891D01*
X1503098Y6585133D01*
X1544813Y6585386D01*
X1592394Y6585662D01*
X1865106Y6587229D01*
X1871096Y6594627D01*
X1871218Y6594780D01*
X1872513Y6596660D01*
X1873602Y6599122D01*
X1874503Y6602684D01*
X1875234Y6607861D01*
X1875812Y6615172D01*
X1876256Y6625133D01*
X1876584Y6638261D01*
X1876812Y6655072D01*
X1876958Y6676085D01*
X1877040Y6701815D01*
X1877078Y6732777D01*
X1877085Y6769493D01*
X1877085Y6936959D01*
X1861701Y6952345D01*
X1629348Y6952345D01*
X1588133Y6952352D01*
X1552622Y6952378D01*
X1522356Y6952438D01*
X1496881Y6952540D01*
X1475739Y6952699D01*
X1458474Y6952928D01*
X1444629Y6953239D01*
X1433748Y6953644D01*
X1425374Y6954157D01*
X1419049Y6954788D01*
X1414319Y6955549D01*
X1410726Y6956456D01*
X1407814Y6957520D01*
X1405126Y6958752D01*
X1399259Y6961752D01*
X1394220Y6965100D01*
X1390264Y6969285D01*
X1387261Y6974986D01*
X1385080Y6982884D01*
X1383588Y6993657D01*
X1382655Y7007982D01*
X1382153Y7026539D01*
X1381947Y7050008D01*
X1381907Y7079065D01*
X1381918Y7094869D01*
X1382043Y7120826D01*
X1382387Y7141564D01*
X1383055Y7157774D01*
X1384144Y7170142D01*
X1385759Y7179359D01*
X1388001Y7186116D01*
X1390970Y7191099D01*
X1394770Y7195001D01*
X1399500Y7198508D01*
X1399908Y7198779D01*
X1401878Y7199908D01*
X1404386Y7200888D01*
X1407871Y7201733D01*
X1412774Y7202457D01*
X1419538Y7203075D01*
X1428602Y7203600D01*
X1440406Y7204047D01*
X1455394Y7204431D01*
X1474004Y7204766D01*
X1496677Y7205066D01*
X1523856Y7205345D01*
X1555980Y7205618D01*
X1593490Y7205899D01*
X1636826Y7206201D01*
X1865106Y7207768D01*
X1871096Y7215166D01*
X1872066Y7216470D01*
X1873260Y7218708D01*
X1874250Y7221873D01*
X1875052Y7226496D01*
X1875686Y7233114D01*
X1876175Y7242258D01*
X1876533Y7254467D01*
X1876784Y7270271D01*
X1876946Y7290206D01*
X1877036Y7314806D01*
X1877077Y7344606D01*
X1877085Y7380140D01*
X1877082Y7405665D01*
X1877052Y7437125D01*
X1876979Y7463225D01*
X1876841Y7484501D01*
X1876619Y7501485D01*
X1876295Y7514714D01*
X1875847Y7524719D01*
X1875258Y7532037D01*
X1874508Y7537201D01*
X1873576Y7540745D01*
X1872446Y7543205D01*
X1871096Y7545113D01*
X1865106Y7552513D01*
X1591382Y7554079D01*
X1578543Y7554153D01*
X1532288Y7554427D01*
X1491802Y7554686D01*
X1456685Y7554940D01*
X1426541Y7555199D01*
X1400969Y7555475D01*
X1379573Y7555778D01*
X1361954Y7556117D01*
X1347715Y7556503D01*
X1336455Y7556945D01*
X1327778Y7557456D01*
X1321286Y7558045D01*
X1316580Y7558723D01*
X1313264Y7559497D01*
X1310937Y7560381D01*
X1309203Y7561385D01*
X1307321Y7562710D01*
X1302738Y7566654D01*
X1299086Y7571470D01*
X1296270Y7577837D01*
X1294199Y7586427D01*
X1292775Y7597913D01*
X1291904Y7612969D01*
X1291492Y7632269D01*
X1291444Y7656487D01*
X1291667Y7686297D01*
X1291929Y7711217D01*
X1292225Y7732734D01*
X1292586Y7749391D01*
X1293064Y7761916D01*
X1293713Y7771040D01*
X1294585Y7777493D01*
X1295734Y7782005D01*
X1297215Y7785305D01*
X1299077Y7788125D01*
X1299457Y7788628D01*
X1307138Y7796251D01*
X1316315Y7802466D01*
X1317557Y7803037D01*
X1319744Y7803767D01*
X1322740Y7804420D01*
X1326869Y7804998D01*
X1332450Y7805505D01*
X1339804Y7805945D01*
X1349254Y7806323D01*
X1361117Y7806638D01*
X1375719Y7806899D01*
X1393378Y7807106D01*
X1414416Y7807263D01*
X1439153Y7807375D01*
X1467912Y7807445D01*
X1501011Y7807474D01*
X1538775Y7807470D01*
G37*
%TO.C,kibuzzard-66404F66*%
G36*
X7348918Y9820508D02*
G01*
X6842823Y9820508D01*
X6512094Y9820508D01*
X5821531Y9820508D01*
X5407194Y9820508D01*
X4611856Y9820508D01*
X3487906Y9820508D01*
X3157177Y9820508D01*
X3051767Y10171875D01*
X3487906Y10171875D01*
X4084806Y10171875D01*
X4084806Y10297288D01*
X4470569Y10297288D01*
X4513431Y10190925D01*
X4611856Y10154413D01*
X4665831Y10163938D01*
X4711075Y10191719D01*
X4742825Y10236169D01*
X4754731Y10297288D01*
X4742825Y10356819D01*
X4711075Y10400475D01*
X4665831Y10427463D01*
X4611856Y10436988D01*
X4513431Y10400475D01*
X4470569Y10297288D01*
X4084806Y10297288D01*
X4084806Y10333800D01*
X3878431Y10333800D01*
X3878431Y10665588D01*
X5065881Y10665588D01*
X5071338Y10543747D01*
X5087709Y10438575D01*
X5114995Y10350072D01*
X5153194Y10278238D01*
X5220222Y10207682D01*
X5304888Y10165349D01*
X5407194Y10151238D01*
X5509499Y10165349D01*
X5522551Y10171875D01*
X5821531Y10171875D01*
X6026319Y10171875D01*
X6065808Y10265339D01*
X6111250Y10355231D01*
X6161455Y10443933D01*
X6215231Y10533825D01*
X6316831Y10533825D01*
X6316831Y10171875D01*
X6512094Y10171875D01*
X6512094Y11140250D01*
X6449388Y11152156D01*
X6380331Y11160094D01*
X6313656Y11164063D01*
X6258094Y11165650D01*
X6177925Y11160888D01*
X6105694Y11146600D01*
X6042194Y11122391D01*
X5988219Y11087863D01*
X5912813Y10987056D01*
X5893167Y10920580D01*
X5886619Y10843388D01*
X5895350Y10761631D01*
X5921544Y10687813D01*
X5967978Y10626297D01*
X6037431Y10581450D01*
X5980281Y10490169D01*
X5921544Y10385394D01*
X5866775Y10275856D01*
X5821531Y10171875D01*
X5522551Y10171875D01*
X5594166Y10207682D01*
X5661194Y10278238D01*
X5699393Y10350072D01*
X5726678Y10438575D01*
X5743049Y10543747D01*
X5748506Y10665588D01*
X5742950Y10786039D01*
X5726281Y10890219D01*
X5698500Y10978127D01*
X5659606Y11049763D01*
X5592049Y11120318D01*
X5507912Y11162651D01*
X5407194Y11176763D01*
X5304888Y11162740D01*
X5220222Y11120671D01*
X5153194Y11050556D01*
X5114995Y10979168D01*
X5087709Y10891211D01*
X5071338Y10786684D01*
X5065881Y10665588D01*
X3878431Y10665588D01*
X3878431Y10883075D01*
X3980031Y10826719D01*
X4076869Y10787825D01*
X4140369Y10949750D01*
X4057819Y10986263D01*
X3968919Y11035475D01*
X3884781Y11092625D01*
X3816519Y11154538D01*
X3683169Y11154538D01*
X3683169Y10333800D01*
X3487906Y10333800D01*
X3487906Y10171875D01*
X3051767Y10171875D01*
X2651082Y11507492D01*
X3157177Y11507492D01*
X3487906Y11507492D01*
X6512094Y11507492D01*
X6842823Y11507492D01*
X7348918Y9820508D01*
G37*
G36*
X5477441Y10988048D02*
G01*
X5529431Y10921969D01*
X5553244Y10854324D01*
X5567531Y10768863D01*
X5572294Y10665588D01*
X5567531Y10561430D01*
X5553244Y10475440D01*
X5529431Y10407619D01*
X5477441Y10341539D01*
X5407194Y10319513D01*
X5405606Y10320003D01*
X5335955Y10341539D01*
X5284163Y10407619D01*
X5260791Y10475440D01*
X5246768Y10561430D01*
X5242094Y10665588D01*
X5242812Y10681463D01*
X5318294Y10681463D01*
X5342900Y10607644D01*
X5405606Y10576688D01*
X5470694Y10607644D01*
X5494506Y10681463D01*
X5470694Y10756075D01*
X5405606Y10787825D01*
X5342900Y10756075D01*
X5318294Y10681463D01*
X5242812Y10681463D01*
X5246768Y10768863D01*
X5260791Y10854324D01*
X5284163Y10921969D01*
X5335955Y10988048D01*
X5407194Y11010075D01*
X5477441Y10988048D01*
G37*
G36*
X6285081Y10994994D02*
G01*
X6316831Y10991025D01*
X6316831Y10695750D01*
X6273969Y10695750D01*
X6187847Y10705473D01*
X6129506Y10734644D01*
X6085056Y10844975D01*
X6096963Y10912444D01*
X6132681Y10959275D01*
X6187847Y10986659D01*
X6258094Y10995788D01*
X6285081Y10994994D01*
G37*
%TD*%
M02*
